M48
;DRILL file {KiCad 4.0.6} date 06/28/17 13:30:55
;FORMAT={-:-/ absolute / inch / decimal}
FMAT,2
INCH,TZ
T1C0.016
T2C0.039
T3C0.039
T4C0.118
T5C0.150
%
G90
G05
M72
T1
X4.3819Y-3.3425
X4.5984Y-4.7441
X4.6772Y-3.0748
X4.685Y-4.1142
X4.685Y-4.2126
X4.7323Y-4.5945
X4.8543Y-4.5709
T2
X3.9118Y-3.4094
X3.9118Y-3.5094
X3.9118Y-3.6094
X3.9118Y-3.7094
X3.9118Y-3.8094
X3.9118Y-3.9094
X3.9118Y-4.0094
X3.9118Y-4.1094
X3.9118Y-4.2094
X3.9118Y-4.3094
X3.9118Y-4.4094
X3.9118Y-4.5094
X4.0118Y-3.4094
X4.0118Y-3.5094
X4.0118Y-3.6094
X4.0118Y-3.7094
X4.0118Y-3.8094
X4.0118Y-3.9094
X4.0118Y-4.0094
X4.0118Y-4.1094
X4.0118Y-4.2094
X4.0118Y-4.3094
X4.0118Y-4.4094
X4.0118Y-4.5094
X4.2126Y-3.0598
X4.2126Y-3.1598
X4.2126Y-3.2598
X4.2126Y-4.6614
X4.2126Y-4.7614
X4.2126Y-4.8614
X4.7874Y-3.0606
X4.8874Y-3.0606
X4.9874Y-3.0606
X5.0874Y-3.0606
X5.1874Y-3.0606
T3
X6.8425Y-3.0551
X6.8425Y-3.1551
X6.8425Y-3.2551
X6.8425Y-3.3551
X6.8425Y-3.4551
X6.8425Y-3.5551
X6.8425Y-3.6551
X6.8425Y-3.7551
X6.8425Y-3.8551
X6.8425Y-3.9551
X6.8425Y-4.0551
X6.8425Y-4.1551
X6.8425Y-4.2551
X6.8425Y-4.3551
X6.8425Y-4.4551
X6.8425Y-4.5551
X6.8425Y-4.6551
X6.8425Y-4.7551
X6.8425Y-4.8551
X6.9425Y-3.0551
X6.9425Y-3.1551
X6.9425Y-3.2551
X6.9425Y-3.3551
X6.9425Y-3.4551
X6.9425Y-3.5551
X6.9425Y-3.6551
X6.9425Y-3.7551
X6.9425Y-3.8551
X6.9425Y-3.9551
X6.9425Y-4.0551
X6.9425Y-4.1551
X6.9425Y-4.2551
X6.9425Y-4.3551
X6.9425Y-4.4551
X6.9425Y-4.5551
X6.9425Y-4.6551
X6.9425Y-4.7551
X6.9425Y-4.8551
X7.0425Y-3.0551
X7.0425Y-3.1551
X7.0425Y-3.2551
X7.0425Y-3.3551
X7.0425Y-3.4551
X7.0425Y-3.5551
X7.0425Y-3.6551
X7.0425Y-3.7551
X7.0425Y-3.8551
X7.0425Y-3.9551
X7.0425Y-4.0551
X7.0425Y-4.1551
X7.0425Y-4.2551
X7.0425Y-4.3551
X7.0425Y-4.4551
X7.0425Y-4.5551
X7.0425Y-4.6551
X7.0425Y-4.7551
X7.0425Y-4.8551
X7.1425Y-3.0551
X7.1425Y-3.1551
X7.1425Y-3.2551
X7.1425Y-3.3551
X7.1425Y-3.4551
X7.1425Y-3.5551
X7.1425Y-3.6551
X7.1425Y-3.7551
X7.1425Y-3.8551
X7.1425Y-3.9551
X7.1425Y-4.0551
X7.1425Y-4.1551
X7.1425Y-4.2551
X7.1425Y-4.3551
X7.1425Y-4.4551
X7.1425Y-4.5551
X7.1425Y-4.6551
X7.1425Y-4.7551
X7.1425Y-4.8551
X7.2425Y-3.0551
X7.2425Y-3.1551
X7.2425Y-3.2551
X7.2425Y-3.3551
X7.2425Y-3.4551
X7.2425Y-3.5551
X7.2425Y-3.6551
X7.2425Y-3.7551
X7.2425Y-3.8551
X7.2425Y-3.9551
X7.2425Y-4.0551
X7.2425Y-4.1551
X7.2425Y-4.2551
X7.2425Y-4.3551
X7.2425Y-4.4551
X7.2425Y-4.5551
X7.2425Y-4.6551
X7.2425Y-4.7551
X7.2425Y-4.8551
X7.3425Y-3.3551
X7.3425Y-3.4551
X7.3425Y-3.5551
X7.3425Y-3.6551
X7.3425Y-3.7551
X7.3425Y-3.8551
X7.3425Y-3.9551
X7.3425Y-4.0551
X7.3425Y-4.1551
X7.3425Y-4.2551
X7.3425Y-4.3551
X7.3425Y-4.4551
X7.3425Y-4.5551
X7.4425Y-3.4551
X7.4425Y-3.5551
X7.4425Y-3.6551
X7.4425Y-3.7551
X7.4425Y-3.8551
X7.4425Y-3.9551
X7.4425Y-4.0551
X7.4425Y-4.1551
X7.4425Y-4.2551
X7.4425Y-4.3551
X7.4425Y-4.4551
X7.5425Y-3.4551
X7.5425Y-3.5551
X7.5425Y-3.6551
X7.5425Y-3.7551
X7.5425Y-3.8551
X7.5425Y-3.9551
X7.5425Y-4.0551
X7.5425Y-4.1551
X7.5425Y-4.2551
X7.5425Y-4.3551
X7.5425Y-4.4551
X7.6425Y-3.4551
X7.6425Y-3.5551
X7.6425Y-3.6551
X7.6425Y-3.7551
X7.6425Y-3.8551
X7.6425Y-3.9551
X7.6425Y-4.0551
X7.6425Y-4.1551
X7.6425Y-4.2551
X7.6425Y-4.3551
X7.6425Y-4.4551
T4
X6.539Y-4.8358
T5
X3.9606Y-3.1732
X3.9606Y-4.748
X7.5039Y-3.1732
X7.5039Y-4.748
T0
M30
