G04 #@! TF.FileFunction,Legend,Top*
%FSLAX46Y46*%
G04 Gerber Fmt 4.6, Leading zero omitted, Abs format (unit mm)*
G04 Created by KiCad (PCBNEW 4.0.6) date 07/11/17 13:45:29*
%MOMM*%
%LPD*%
G01*
G04 APERTURE LIST*
%ADD10C,0.100000*%
%ADD11C,0.300000*%
%ADD12C,0.250000*%
%ADD13C,0.200000*%
%ADD14C,0.150000*%
%ADD15C,0.120000*%
G04 APERTURE END LIST*
D10*
D11*
X168572858Y-122508571D02*
X169501429Y-122508571D01*
X169001429Y-123080000D01*
X169215715Y-123080000D01*
X169358572Y-123151429D01*
X169430001Y-123222857D01*
X169501429Y-123365714D01*
X169501429Y-123722857D01*
X169430001Y-123865714D01*
X169358572Y-123937143D01*
X169215715Y-124008571D01*
X168787143Y-124008571D01*
X168644286Y-123937143D01*
X168572858Y-123865714D01*
X169930000Y-122508571D02*
X170430000Y-124008571D01*
X170930000Y-122508571D01*
X171287143Y-122508571D02*
X172215714Y-122508571D01*
X171715714Y-123080000D01*
X171930000Y-123080000D01*
X172072857Y-123151429D01*
X172144286Y-123222857D01*
X172215714Y-123365714D01*
X172215714Y-123722857D01*
X172144286Y-123865714D01*
X172072857Y-123937143D01*
X171930000Y-124008571D01*
X171501428Y-124008571D01*
X171358571Y-123937143D01*
X171287143Y-123865714D01*
X168252857Y-108672143D02*
X168467143Y-108743571D01*
X168824286Y-108743571D01*
X168967143Y-108672143D01*
X169038572Y-108600714D01*
X169110000Y-108457857D01*
X169110000Y-108315000D01*
X169038572Y-108172143D01*
X168967143Y-108100714D01*
X168824286Y-108029286D01*
X168538572Y-107957857D01*
X168395714Y-107886429D01*
X168324286Y-107815000D01*
X168252857Y-107672143D01*
X168252857Y-107529286D01*
X168324286Y-107386429D01*
X168395714Y-107315000D01*
X168538572Y-107243571D01*
X168895714Y-107243571D01*
X169110000Y-107315000D01*
X170610000Y-108600714D02*
X170538571Y-108672143D01*
X170324285Y-108743571D01*
X170181428Y-108743571D01*
X169967143Y-108672143D01*
X169824285Y-108529286D01*
X169752857Y-108386429D01*
X169681428Y-108100714D01*
X169681428Y-107886429D01*
X169752857Y-107600714D01*
X169824285Y-107457857D01*
X169967143Y-107315000D01*
X170181428Y-107243571D01*
X170324285Y-107243571D01*
X170538571Y-107315000D01*
X170610000Y-107386429D01*
X171967143Y-108743571D02*
X171252857Y-108743571D01*
X171252857Y-107243571D01*
X168181429Y-111222143D02*
X168395715Y-111293571D01*
X168752858Y-111293571D01*
X168895715Y-111222143D01*
X168967144Y-111150714D01*
X169038572Y-111007857D01*
X169038572Y-110865000D01*
X168967144Y-110722143D01*
X168895715Y-110650714D01*
X168752858Y-110579286D01*
X168467144Y-110507857D01*
X168324286Y-110436429D01*
X168252858Y-110365000D01*
X168181429Y-110222143D01*
X168181429Y-110079286D01*
X168252858Y-109936429D01*
X168324286Y-109865000D01*
X168467144Y-109793571D01*
X168824286Y-109793571D01*
X169038572Y-109865000D01*
X169681429Y-111293571D02*
X169681429Y-109793571D01*
X170038572Y-109793571D01*
X170252857Y-109865000D01*
X170395715Y-110007857D01*
X170467143Y-110150714D01*
X170538572Y-110436429D01*
X170538572Y-110650714D01*
X170467143Y-110936429D01*
X170395715Y-111079286D01*
X170252857Y-111222143D01*
X170038572Y-111293571D01*
X169681429Y-111293571D01*
X171110000Y-110865000D02*
X171824286Y-110865000D01*
X170967143Y-111293571D02*
X171467143Y-109793571D01*
X171967143Y-111293571D01*
X167038571Y-113843571D02*
X167038571Y-112343571D01*
X167538571Y-113415000D01*
X168038571Y-112343571D01*
X168038571Y-113843571D01*
X169038571Y-112343571D02*
X169324285Y-112343571D01*
X169467143Y-112415000D01*
X169610000Y-112557857D01*
X169681428Y-112843571D01*
X169681428Y-113343571D01*
X169610000Y-113629286D01*
X169467143Y-113772143D01*
X169324285Y-113843571D01*
X169038571Y-113843571D01*
X168895714Y-113772143D01*
X168752857Y-113629286D01*
X168681428Y-113343571D01*
X168681428Y-112843571D01*
X168752857Y-112557857D01*
X168895714Y-112415000D01*
X169038571Y-112343571D01*
X170252857Y-113772143D02*
X170467143Y-113843571D01*
X170824286Y-113843571D01*
X170967143Y-113772143D01*
X171038572Y-113700714D01*
X171110000Y-113557857D01*
X171110000Y-113415000D01*
X171038572Y-113272143D01*
X170967143Y-113200714D01*
X170824286Y-113129286D01*
X170538572Y-113057857D01*
X170395714Y-112986429D01*
X170324286Y-112915000D01*
X170252857Y-112772143D01*
X170252857Y-112629286D01*
X170324286Y-112486429D01*
X170395714Y-112415000D01*
X170538572Y-112343571D01*
X170895714Y-112343571D01*
X171110000Y-112415000D01*
X171752857Y-113843571D02*
X171752857Y-112343571D01*
X167038571Y-116393571D02*
X167038571Y-114893571D01*
X167538571Y-115965000D01*
X168038571Y-114893571D01*
X168038571Y-116393571D01*
X168752857Y-116393571D02*
X168752857Y-114893571D01*
X169395714Y-116322143D02*
X169610000Y-116393571D01*
X169967143Y-116393571D01*
X170110000Y-116322143D01*
X170181429Y-116250714D01*
X170252857Y-116107857D01*
X170252857Y-115965000D01*
X170181429Y-115822143D01*
X170110000Y-115750714D01*
X169967143Y-115679286D01*
X169681429Y-115607857D01*
X169538571Y-115536429D01*
X169467143Y-115465000D01*
X169395714Y-115322143D01*
X169395714Y-115179286D01*
X169467143Y-115036429D01*
X169538571Y-114965000D01*
X169681429Y-114893571D01*
X170038571Y-114893571D01*
X170252857Y-114965000D01*
X171181428Y-114893571D02*
X171467142Y-114893571D01*
X171610000Y-114965000D01*
X171752857Y-115107857D01*
X171824285Y-115393571D01*
X171824285Y-115893571D01*
X171752857Y-116179286D01*
X171610000Y-116322143D01*
X171467142Y-116393571D01*
X171181428Y-116393571D01*
X171038571Y-116322143D01*
X170895714Y-116179286D01*
X170824285Y-115893571D01*
X170824285Y-115393571D01*
X170895714Y-115107857D01*
X171038571Y-114965000D01*
X171181428Y-114893571D01*
X167967143Y-118872143D02*
X168181429Y-118943571D01*
X168538572Y-118943571D01*
X168681429Y-118872143D01*
X168752858Y-118800714D01*
X168824286Y-118657857D01*
X168824286Y-118515000D01*
X168752858Y-118372143D01*
X168681429Y-118300714D01*
X168538572Y-118229286D01*
X168252858Y-118157857D01*
X168110000Y-118086429D01*
X168038572Y-118015000D01*
X167967143Y-117872143D01*
X167967143Y-117729286D01*
X168038572Y-117586429D01*
X168110000Y-117515000D01*
X168252858Y-117443571D01*
X168610000Y-117443571D01*
X168824286Y-117515000D01*
X170324286Y-118800714D02*
X170252857Y-118872143D01*
X170038571Y-118943571D01*
X169895714Y-118943571D01*
X169681429Y-118872143D01*
X169538571Y-118729286D01*
X169467143Y-118586429D01*
X169395714Y-118300714D01*
X169395714Y-118086429D01*
X169467143Y-117800714D01*
X169538571Y-117657857D01*
X169681429Y-117515000D01*
X169895714Y-117443571D01*
X170038571Y-117443571D01*
X170252857Y-117515000D01*
X170324286Y-117586429D01*
X170967143Y-118943571D02*
X170967143Y-117443571D01*
X171824286Y-118943571D02*
X171181429Y-118086429D01*
X171824286Y-117443571D02*
X170967143Y-118300714D01*
X168681428Y-120065000D02*
X168538571Y-119993571D01*
X168324285Y-119993571D01*
X168110000Y-120065000D01*
X167967142Y-120207857D01*
X167895714Y-120350714D01*
X167824285Y-120636429D01*
X167824285Y-120850714D01*
X167895714Y-121136429D01*
X167967142Y-121279286D01*
X168110000Y-121422143D01*
X168324285Y-121493571D01*
X168467142Y-121493571D01*
X168681428Y-121422143D01*
X168752857Y-121350714D01*
X168752857Y-120850714D01*
X168467142Y-120850714D01*
X169395714Y-121493571D02*
X169395714Y-119993571D01*
X170252857Y-121493571D01*
X170252857Y-119993571D01*
X170967143Y-121493571D02*
X170967143Y-119993571D01*
X171324286Y-119993571D01*
X171538571Y-120065000D01*
X171681429Y-120207857D01*
X171752857Y-120350714D01*
X171824286Y-120636429D01*
X171824286Y-120850714D01*
X171752857Y-121136429D01*
X171681429Y-121279286D01*
X171538571Y-121422143D01*
X171324286Y-121493571D01*
X170967143Y-121493571D01*
D12*
X110242857Y-77050000D02*
X110100000Y-76978571D01*
X109885714Y-76978571D01*
X109671429Y-77050000D01*
X109528571Y-77192857D01*
X109457143Y-77335714D01*
X109385714Y-77621429D01*
X109385714Y-77835714D01*
X109457143Y-78121429D01*
X109528571Y-78264286D01*
X109671429Y-78407143D01*
X109885714Y-78478571D01*
X110028571Y-78478571D01*
X110242857Y-78407143D01*
X110314286Y-78335714D01*
X110314286Y-77835714D01*
X110028571Y-77835714D01*
X110957143Y-78478571D02*
X110957143Y-76978571D01*
X111814286Y-78478571D01*
X111814286Y-76978571D01*
X112528572Y-78478571D02*
X112528572Y-76978571D01*
X112885715Y-76978571D01*
X113100000Y-77050000D01*
X113242858Y-77192857D01*
X113314286Y-77335714D01*
X113385715Y-77621429D01*
X113385715Y-77835714D01*
X113314286Y-78121429D01*
X113242858Y-78264286D01*
X113100000Y-78407143D01*
X112885715Y-78478571D01*
X112528572Y-78478571D01*
X109385714Y-80550000D02*
X110100000Y-80550000D01*
X109242857Y-80978571D02*
X109742857Y-79478571D01*
X110242857Y-80978571D01*
X110742857Y-80978571D02*
X110742857Y-79478571D01*
X111100000Y-79478571D01*
X111314285Y-79550000D01*
X111457143Y-79692857D01*
X111528571Y-79835714D01*
X111600000Y-80121429D01*
X111600000Y-80335714D01*
X111528571Y-80621429D01*
X111457143Y-80764286D01*
X111314285Y-80907143D01*
X111100000Y-80978571D01*
X110742857Y-80978571D01*
X112242857Y-80978571D02*
X112242857Y-79478571D01*
X112600000Y-79478571D01*
X112814285Y-79550000D01*
X112957143Y-79692857D01*
X113028571Y-79835714D01*
X113100000Y-80121429D01*
X113100000Y-80335714D01*
X113028571Y-80621429D01*
X112957143Y-80764286D01*
X112814285Y-80907143D01*
X112600000Y-80978571D01*
X112242857Y-80978571D01*
X109314286Y-81978571D02*
X110242857Y-81978571D01*
X109742857Y-82550000D01*
X109957143Y-82550000D01*
X110100000Y-82621429D01*
X110171429Y-82692857D01*
X110242857Y-82835714D01*
X110242857Y-83192857D01*
X110171429Y-83335714D01*
X110100000Y-83407143D01*
X109957143Y-83478571D01*
X109528571Y-83478571D01*
X109385714Y-83407143D01*
X109314286Y-83335714D01*
X110671428Y-81978571D02*
X111171428Y-83478571D01*
X111671428Y-81978571D01*
X112028571Y-81978571D02*
X112957142Y-81978571D01*
X112457142Y-82550000D01*
X112671428Y-82550000D01*
X112814285Y-82621429D01*
X112885714Y-82692857D01*
X112957142Y-82835714D01*
X112957142Y-83192857D01*
X112885714Y-83335714D01*
X112814285Y-83407143D01*
X112671428Y-83478571D01*
X112242856Y-83478571D01*
X112099999Y-83407143D01*
X112028571Y-83335714D01*
D11*
X115535715Y-124078571D02*
X114821429Y-124078571D01*
X114821429Y-122578571D01*
X116035715Y-124078571D02*
X116035715Y-122578571D01*
X116607143Y-122578571D01*
X116750001Y-122650000D01*
X116821429Y-122721429D01*
X116892858Y-122864286D01*
X116892858Y-123078571D01*
X116821429Y-123221429D01*
X116750001Y-123292857D01*
X116607143Y-123364286D01*
X116035715Y-123364286D01*
X117464286Y-124007143D02*
X117678572Y-124078571D01*
X118035715Y-124078571D01*
X118178572Y-124007143D01*
X118250001Y-123935714D01*
X118321429Y-123792857D01*
X118321429Y-123650000D01*
X118250001Y-123507143D01*
X118178572Y-123435714D01*
X118035715Y-123364286D01*
X117750001Y-123292857D01*
X117607143Y-123221429D01*
X117535715Y-123150000D01*
X117464286Y-123007143D01*
X117464286Y-122864286D01*
X117535715Y-122721429D01*
X117607143Y-122650000D01*
X117750001Y-122578571D01*
X118107143Y-122578571D01*
X118321429Y-122650000D01*
X118892857Y-122721429D02*
X118964286Y-122650000D01*
X119107143Y-122578571D01*
X119464286Y-122578571D01*
X119607143Y-122650000D01*
X119678572Y-122721429D01*
X119750000Y-122864286D01*
X119750000Y-123007143D01*
X119678572Y-123221429D01*
X118821429Y-124078571D01*
X119750000Y-124078571D01*
X121107143Y-122578571D02*
X120392857Y-122578571D01*
X120321428Y-123292857D01*
X120392857Y-123221429D01*
X120535714Y-123150000D01*
X120892857Y-123150000D01*
X121035714Y-123221429D01*
X121107143Y-123292857D01*
X121178571Y-123435714D01*
X121178571Y-123792857D01*
X121107143Y-123935714D01*
X121035714Y-124007143D01*
X120892857Y-124078571D01*
X120535714Y-124078571D01*
X120392857Y-124007143D01*
X120321428Y-123935714D01*
X121821428Y-124078571D02*
X121821428Y-122578571D01*
X121821428Y-123292857D02*
X122678571Y-123292857D01*
X122678571Y-124078571D02*
X122678571Y-122578571D01*
X123892857Y-123292857D02*
X124107143Y-123364286D01*
X124178571Y-123435714D01*
X124250000Y-123578571D01*
X124250000Y-123792857D01*
X124178571Y-123935714D01*
X124107143Y-124007143D01*
X123964285Y-124078571D01*
X123392857Y-124078571D01*
X123392857Y-122578571D01*
X123892857Y-122578571D01*
X124035714Y-122650000D01*
X124107143Y-122721429D01*
X124178571Y-122864286D01*
X124178571Y-123007143D01*
X124107143Y-123150000D01*
X124035714Y-123221429D01*
X123892857Y-123292857D01*
X123392857Y-123292857D01*
D12*
X110057143Y-117750000D02*
X109914286Y-117678571D01*
X109700000Y-117678571D01*
X109485715Y-117750000D01*
X109342857Y-117892857D01*
X109271429Y-118035714D01*
X109200000Y-118321429D01*
X109200000Y-118535714D01*
X109271429Y-118821429D01*
X109342857Y-118964286D01*
X109485715Y-119107143D01*
X109700000Y-119178571D01*
X109842857Y-119178571D01*
X110057143Y-119107143D01*
X110128572Y-119035714D01*
X110128572Y-118535714D01*
X109842857Y-118535714D01*
X110771429Y-119178571D02*
X110771429Y-117678571D01*
X111628572Y-119178571D01*
X111628572Y-117678571D01*
X112342858Y-119178571D02*
X112342858Y-117678571D01*
X112700001Y-117678571D01*
X112914286Y-117750000D01*
X113057144Y-117892857D01*
X113128572Y-118035714D01*
X113200001Y-118321429D01*
X113200001Y-118535714D01*
X113128572Y-118821429D01*
X113057144Y-118964286D01*
X112914286Y-119107143D01*
X112700001Y-119178571D01*
X112342858Y-119178571D01*
X109342857Y-121607143D02*
X109557143Y-121678571D01*
X109914286Y-121678571D01*
X110057143Y-121607143D01*
X110128572Y-121535714D01*
X110200000Y-121392857D01*
X110200000Y-121250000D01*
X110128572Y-121107143D01*
X110057143Y-121035714D01*
X109914286Y-120964286D01*
X109628572Y-120892857D01*
X109485714Y-120821429D01*
X109414286Y-120750000D01*
X109342857Y-120607143D01*
X109342857Y-120464286D01*
X109414286Y-120321429D01*
X109485714Y-120250000D01*
X109628572Y-120178571D01*
X109985714Y-120178571D01*
X110200000Y-120250000D01*
X110771428Y-121250000D02*
X111485714Y-121250000D01*
X110628571Y-121678571D02*
X111128571Y-120178571D01*
X111628571Y-121678571D01*
X112414285Y-120178571D02*
X112699999Y-120178571D01*
X112842857Y-120250000D01*
X112985714Y-120392857D01*
X113057142Y-120678571D01*
X113057142Y-121178571D01*
X112985714Y-121464286D01*
X112842857Y-121607143D01*
X112699999Y-121678571D01*
X112414285Y-121678571D01*
X112271428Y-121607143D01*
X112128571Y-121464286D01*
X112057142Y-121178571D01*
X112057142Y-120678571D01*
X112128571Y-120392857D01*
X112271428Y-120250000D01*
X112414285Y-120178571D01*
X109342858Y-122678571D02*
X110271429Y-122678571D01*
X109771429Y-123250000D01*
X109985715Y-123250000D01*
X110128572Y-123321429D01*
X110200001Y-123392857D01*
X110271429Y-123535714D01*
X110271429Y-123892857D01*
X110200001Y-124035714D01*
X110128572Y-124107143D01*
X109985715Y-124178571D01*
X109557143Y-124178571D01*
X109414286Y-124107143D01*
X109342858Y-124035714D01*
X110700000Y-122678571D02*
X111200000Y-124178571D01*
X111700000Y-122678571D01*
X112057143Y-122678571D02*
X112985714Y-122678571D01*
X112485714Y-123250000D01*
X112700000Y-123250000D01*
X112842857Y-123321429D01*
X112914286Y-123392857D01*
X112985714Y-123535714D01*
X112985714Y-123892857D01*
X112914286Y-124035714D01*
X112842857Y-124107143D01*
X112700000Y-124178571D01*
X112271428Y-124178571D01*
X112128571Y-124107143D01*
X112057143Y-124035714D01*
D11*
X123425000Y-83328572D02*
X123353571Y-83471429D01*
X123353571Y-83685715D01*
X123425000Y-83900000D01*
X123567857Y-84042858D01*
X123710714Y-84114286D01*
X123996429Y-84185715D01*
X124210714Y-84185715D01*
X124496429Y-84114286D01*
X124639286Y-84042858D01*
X124782143Y-83900000D01*
X124853571Y-83685715D01*
X124853571Y-83542858D01*
X124782143Y-83328572D01*
X124710714Y-83257143D01*
X124210714Y-83257143D01*
X124210714Y-83542858D01*
X124853571Y-82614286D02*
X123353571Y-82614286D01*
X124853571Y-81757143D01*
X123353571Y-81757143D01*
X124853571Y-81042857D02*
X123353571Y-81042857D01*
X123353571Y-80685714D01*
X123425000Y-80471429D01*
X123567857Y-80328571D01*
X123710714Y-80257143D01*
X123996429Y-80185714D01*
X124210714Y-80185714D01*
X124496429Y-80257143D01*
X124639286Y-80328571D01*
X124782143Y-80471429D01*
X124853571Y-80685714D01*
X124853571Y-81042857D01*
X125903571Y-81542856D02*
X125903571Y-82257142D01*
X126617857Y-82328571D01*
X126546429Y-82257142D01*
X126475000Y-82114285D01*
X126475000Y-81757142D01*
X126546429Y-81614285D01*
X126617857Y-81542856D01*
X126760714Y-81471428D01*
X127117857Y-81471428D01*
X127260714Y-81542856D01*
X127332143Y-81614285D01*
X127403571Y-81757142D01*
X127403571Y-82114285D01*
X127332143Y-82257142D01*
X127260714Y-82328571D01*
X125903571Y-81042857D02*
X127403571Y-80542857D01*
X125903571Y-80042857D01*
X129882143Y-83757143D02*
X129953571Y-83542857D01*
X129953571Y-83185714D01*
X129882143Y-83042857D01*
X129810714Y-82971428D01*
X129667857Y-82900000D01*
X129525000Y-82900000D01*
X129382143Y-82971428D01*
X129310714Y-83042857D01*
X129239286Y-83185714D01*
X129167857Y-83471428D01*
X129096429Y-83614286D01*
X129025000Y-83685714D01*
X128882143Y-83757143D01*
X128739286Y-83757143D01*
X128596429Y-83685714D01*
X128525000Y-83614286D01*
X128453571Y-83471428D01*
X128453571Y-83114286D01*
X128525000Y-82900000D01*
X129810714Y-81400000D02*
X129882143Y-81471429D01*
X129953571Y-81685715D01*
X129953571Y-81828572D01*
X129882143Y-82042857D01*
X129739286Y-82185715D01*
X129596429Y-82257143D01*
X129310714Y-82328572D01*
X129096429Y-82328572D01*
X128810714Y-82257143D01*
X128667857Y-82185715D01*
X128525000Y-82042857D01*
X128453571Y-81828572D01*
X128453571Y-81685715D01*
X128525000Y-81471429D01*
X128596429Y-81400000D01*
X129953571Y-80042857D02*
X129953571Y-80757143D01*
X128453571Y-80757143D01*
X132432143Y-83828571D02*
X132503571Y-83614285D01*
X132503571Y-83257142D01*
X132432143Y-83114285D01*
X132360714Y-83042856D01*
X132217857Y-82971428D01*
X132075000Y-82971428D01*
X131932143Y-83042856D01*
X131860714Y-83114285D01*
X131789286Y-83257142D01*
X131717857Y-83542856D01*
X131646429Y-83685714D01*
X131575000Y-83757142D01*
X131432143Y-83828571D01*
X131289286Y-83828571D01*
X131146429Y-83757142D01*
X131075000Y-83685714D01*
X131003571Y-83542856D01*
X131003571Y-83185714D01*
X131075000Y-82971428D01*
X132503571Y-82328571D02*
X131003571Y-82328571D01*
X131003571Y-81971428D01*
X131075000Y-81757143D01*
X131217857Y-81614285D01*
X131360714Y-81542857D01*
X131646429Y-81471428D01*
X131860714Y-81471428D01*
X132146429Y-81542857D01*
X132289286Y-81614285D01*
X132432143Y-81757143D01*
X132503571Y-81971428D01*
X132503571Y-82328571D01*
X132075000Y-80900000D02*
X132075000Y-80185714D01*
X132503571Y-81042857D02*
X131003571Y-80542857D01*
X132503571Y-80042857D01*
D13*
X175100000Y-119500000D02*
X175100000Y-81400000D01*
D11*
X129957145Y-101878571D02*
X129957145Y-100378571D01*
X130814288Y-101878571D02*
X130171431Y-101021429D01*
X130814288Y-100378571D02*
X129957145Y-101235714D01*
X131314288Y-100378571D02*
X132242859Y-100378571D01*
X131742859Y-100950000D01*
X131957145Y-100950000D01*
X132100002Y-101021429D01*
X132171431Y-101092857D01*
X132242859Y-101235714D01*
X132242859Y-101592857D01*
X132171431Y-101735714D01*
X132100002Y-101807143D01*
X131957145Y-101878571D01*
X131528573Y-101878571D01*
X131385716Y-101807143D01*
X131314288Y-101735714D01*
X133171430Y-100378571D02*
X133314287Y-100378571D01*
X133457144Y-100450000D01*
X133528573Y-100521429D01*
X133600002Y-100664286D01*
X133671430Y-100950000D01*
X133671430Y-101307143D01*
X133600002Y-101592857D01*
X133528573Y-101735714D01*
X133457144Y-101807143D01*
X133314287Y-101878571D01*
X133171430Y-101878571D01*
X133028573Y-101807143D01*
X132957144Y-101735714D01*
X132885716Y-101592857D01*
X132814287Y-101307143D01*
X132814287Y-100950000D01*
X132885716Y-100664286D01*
X132957144Y-100521429D01*
X133028573Y-100450000D01*
X133171430Y-100378571D01*
X136314287Y-101735714D02*
X136242858Y-101807143D01*
X136028572Y-101878571D01*
X135885715Y-101878571D01*
X135671430Y-101807143D01*
X135528572Y-101664286D01*
X135457144Y-101521429D01*
X135385715Y-101235714D01*
X135385715Y-101021429D01*
X135457144Y-100735714D01*
X135528572Y-100592857D01*
X135671430Y-100450000D01*
X135885715Y-100378571D01*
X136028572Y-100378571D01*
X136242858Y-100450000D01*
X136314287Y-100521429D01*
X137242858Y-100378571D02*
X137528572Y-100378571D01*
X137671430Y-100450000D01*
X137814287Y-100592857D01*
X137885715Y-100878571D01*
X137885715Y-101378571D01*
X137814287Y-101664286D01*
X137671430Y-101807143D01*
X137528572Y-101878571D01*
X137242858Y-101878571D01*
X137100001Y-101807143D01*
X136957144Y-101664286D01*
X136885715Y-101378571D01*
X136885715Y-100878571D01*
X136957144Y-100592857D01*
X137100001Y-100450000D01*
X137242858Y-100378571D01*
X138457144Y-100521429D02*
X138528573Y-100450000D01*
X138671430Y-100378571D01*
X139028573Y-100378571D01*
X139171430Y-100450000D01*
X139242859Y-100521429D01*
X139314287Y-100664286D01*
X139314287Y-100807143D01*
X139242859Y-101021429D01*
X138385716Y-101878571D01*
X139314287Y-101878571D01*
X141028572Y-101807143D02*
X141242858Y-101878571D01*
X141600001Y-101878571D01*
X141742858Y-101807143D01*
X141814287Y-101735714D01*
X141885715Y-101592857D01*
X141885715Y-101450000D01*
X141814287Y-101307143D01*
X141742858Y-101235714D01*
X141600001Y-101164286D01*
X141314287Y-101092857D01*
X141171429Y-101021429D01*
X141100001Y-100950000D01*
X141028572Y-100807143D01*
X141028572Y-100664286D01*
X141100001Y-100521429D01*
X141171429Y-100450000D01*
X141314287Y-100378571D01*
X141671429Y-100378571D01*
X141885715Y-100450000D01*
X143100000Y-101807143D02*
X142957143Y-101878571D01*
X142671429Y-101878571D01*
X142528572Y-101807143D01*
X142457143Y-101664286D01*
X142457143Y-101092857D01*
X142528572Y-100950000D01*
X142671429Y-100878571D01*
X142957143Y-100878571D01*
X143100000Y-100950000D01*
X143171429Y-101092857D01*
X143171429Y-101235714D01*
X142457143Y-101378571D01*
X143814286Y-100878571D02*
X143814286Y-101878571D01*
X143814286Y-101021429D02*
X143885714Y-100950000D01*
X144028572Y-100878571D01*
X144242857Y-100878571D01*
X144385714Y-100950000D01*
X144457143Y-101092857D01*
X144457143Y-101878571D01*
X145100000Y-101807143D02*
X145242857Y-101878571D01*
X145528572Y-101878571D01*
X145671429Y-101807143D01*
X145742857Y-101664286D01*
X145742857Y-101592857D01*
X145671429Y-101450000D01*
X145528572Y-101378571D01*
X145314286Y-101378571D01*
X145171429Y-101307143D01*
X145100000Y-101164286D01*
X145100000Y-101092857D01*
X145171429Y-100950000D01*
X145314286Y-100878571D01*
X145528572Y-100878571D01*
X145671429Y-100950000D01*
X146600001Y-101878571D02*
X146457143Y-101807143D01*
X146385715Y-101735714D01*
X146314286Y-101592857D01*
X146314286Y-101164286D01*
X146385715Y-101021429D01*
X146457143Y-100950000D01*
X146600001Y-100878571D01*
X146814286Y-100878571D01*
X146957143Y-100950000D01*
X147028572Y-101021429D01*
X147100001Y-101164286D01*
X147100001Y-101592857D01*
X147028572Y-101735714D01*
X146957143Y-101807143D01*
X146814286Y-101878571D01*
X146600001Y-101878571D01*
X147742858Y-101878571D02*
X147742858Y-100878571D01*
X147742858Y-101164286D02*
X147814286Y-101021429D01*
X147885715Y-100950000D01*
X148028572Y-100878571D01*
X148171429Y-100878571D01*
X150314286Y-101092857D02*
X150528572Y-101164286D01*
X150600000Y-101235714D01*
X150671429Y-101378571D01*
X150671429Y-101592857D01*
X150600000Y-101735714D01*
X150528572Y-101807143D01*
X150385714Y-101878571D01*
X149814286Y-101878571D01*
X149814286Y-100378571D01*
X150314286Y-100378571D01*
X150457143Y-100450000D01*
X150528572Y-100521429D01*
X150600000Y-100664286D01*
X150600000Y-100807143D01*
X150528572Y-100950000D01*
X150457143Y-101021429D01*
X150314286Y-101092857D01*
X149814286Y-101092857D01*
X151528572Y-101878571D02*
X151385714Y-101807143D01*
X151314286Y-101735714D01*
X151242857Y-101592857D01*
X151242857Y-101164286D01*
X151314286Y-101021429D01*
X151385714Y-100950000D01*
X151528572Y-100878571D01*
X151742857Y-100878571D01*
X151885714Y-100950000D01*
X151957143Y-101021429D01*
X152028572Y-101164286D01*
X152028572Y-101592857D01*
X151957143Y-101735714D01*
X151885714Y-101807143D01*
X151742857Y-101878571D01*
X151528572Y-101878571D01*
X153314286Y-101878571D02*
X153314286Y-101092857D01*
X153242857Y-100950000D01*
X153100000Y-100878571D01*
X152814286Y-100878571D01*
X152671429Y-100950000D01*
X153314286Y-101807143D02*
X153171429Y-101878571D01*
X152814286Y-101878571D01*
X152671429Y-101807143D01*
X152600000Y-101664286D01*
X152600000Y-101521429D01*
X152671429Y-101378571D01*
X152814286Y-101307143D01*
X153171429Y-101307143D01*
X153314286Y-101235714D01*
X154028572Y-101878571D02*
X154028572Y-100878571D01*
X154028572Y-101164286D02*
X154100000Y-101021429D01*
X154171429Y-100950000D01*
X154314286Y-100878571D01*
X154457143Y-100878571D01*
X155600000Y-101878571D02*
X155600000Y-100378571D01*
X155600000Y-101807143D02*
X155457143Y-101878571D01*
X155171429Y-101878571D01*
X155028571Y-101807143D01*
X154957143Y-101735714D01*
X154885714Y-101592857D01*
X154885714Y-101164286D01*
X154957143Y-101021429D01*
X155028571Y-100950000D01*
X155171429Y-100878571D01*
X155457143Y-100878571D01*
X155600000Y-100950000D01*
X158314286Y-101878571D02*
X157814286Y-101164286D01*
X157457143Y-101878571D02*
X157457143Y-100378571D01*
X158028571Y-100378571D01*
X158171429Y-100450000D01*
X158242857Y-100521429D01*
X158314286Y-100664286D01*
X158314286Y-100878571D01*
X158242857Y-101021429D01*
X158171429Y-101092857D01*
X158028571Y-101164286D01*
X157457143Y-101164286D01*
X159528571Y-101807143D02*
X159385714Y-101878571D01*
X159100000Y-101878571D01*
X158957143Y-101807143D01*
X158885714Y-101664286D01*
X158885714Y-101092857D01*
X158957143Y-100950000D01*
X159100000Y-100878571D01*
X159385714Y-100878571D01*
X159528571Y-100950000D01*
X159600000Y-101092857D01*
X159600000Y-101235714D01*
X158885714Y-101378571D01*
X160100000Y-100878571D02*
X160457143Y-101878571D01*
X160814285Y-100878571D01*
X163314285Y-101878571D02*
X162457142Y-101878571D01*
X162885714Y-101878571D02*
X162885714Y-100378571D01*
X162742857Y-100592857D01*
X162599999Y-100735714D01*
X162457142Y-100807143D01*
X170577144Y-76793571D02*
X169862858Y-76793571D01*
X169791429Y-77507857D01*
X169862858Y-77436429D01*
X170005715Y-77365000D01*
X170362858Y-77365000D01*
X170505715Y-77436429D01*
X170577144Y-77507857D01*
X170648572Y-77650714D01*
X170648572Y-78007857D01*
X170577144Y-78150714D01*
X170505715Y-78222143D01*
X170362858Y-78293571D01*
X170005715Y-78293571D01*
X169862858Y-78222143D01*
X169791429Y-78150714D01*
X171077143Y-76793571D02*
X171577143Y-78293571D01*
X172077143Y-76793571D01*
X168791428Y-79415000D02*
X168648571Y-79343571D01*
X168434285Y-79343571D01*
X168220000Y-79415000D01*
X168077142Y-79557857D01*
X168005714Y-79700714D01*
X167934285Y-79986429D01*
X167934285Y-80200714D01*
X168005714Y-80486429D01*
X168077142Y-80629286D01*
X168220000Y-80772143D01*
X168434285Y-80843571D01*
X168577142Y-80843571D01*
X168791428Y-80772143D01*
X168862857Y-80700714D01*
X168862857Y-80200714D01*
X168577142Y-80200714D01*
X169505714Y-80843571D02*
X169505714Y-79343571D01*
X170362857Y-80843571D01*
X170362857Y-79343571D01*
X171077143Y-80843571D02*
X171077143Y-79343571D01*
X171434286Y-79343571D01*
X171648571Y-79415000D01*
X171791429Y-79557857D01*
X171862857Y-79700714D01*
X171934286Y-79986429D01*
X171934286Y-80200714D01*
X171862857Y-80486429D01*
X171791429Y-80629286D01*
X171648571Y-80772143D01*
X171434286Y-80843571D01*
X171077143Y-80843571D01*
X169791429Y-82965000D02*
X170505715Y-82965000D01*
X169648572Y-83393571D02*
X170148572Y-81893571D01*
X170648572Y-83393571D01*
X171005715Y-81893571D02*
X171934286Y-81893571D01*
X171434286Y-82465000D01*
X171648572Y-82465000D01*
X171791429Y-82536429D01*
X171862858Y-82607857D01*
X171934286Y-82750714D01*
X171934286Y-83107857D01*
X171862858Y-83250714D01*
X171791429Y-83322143D01*
X171648572Y-83393571D01*
X171220000Y-83393571D01*
X171077143Y-83322143D01*
X171005715Y-83250714D01*
X169791429Y-85515000D02*
X170505715Y-85515000D01*
X169648572Y-85943571D02*
X170148572Y-84443571D01*
X170648572Y-85943571D01*
X171077143Y-84586429D02*
X171148572Y-84515000D01*
X171291429Y-84443571D01*
X171648572Y-84443571D01*
X171791429Y-84515000D01*
X171862858Y-84586429D01*
X171934286Y-84729286D01*
X171934286Y-84872143D01*
X171862858Y-85086429D01*
X171005715Y-85943571D01*
X171934286Y-85943571D01*
X169791429Y-88065000D02*
X170505715Y-88065000D01*
X169648572Y-88493571D02*
X170148572Y-86993571D01*
X170648572Y-88493571D01*
X171934286Y-88493571D02*
X171077143Y-88493571D01*
X171505715Y-88493571D02*
X171505715Y-86993571D01*
X171362858Y-87207857D01*
X171220000Y-87350714D01*
X171077143Y-87422143D01*
X169791429Y-90615000D02*
X170505715Y-90615000D01*
X169648572Y-91043571D02*
X170148572Y-89543571D01*
X170648572Y-91043571D01*
X171434286Y-89543571D02*
X171577143Y-89543571D01*
X171720000Y-89615000D01*
X171791429Y-89686429D01*
X171862858Y-89829286D01*
X171934286Y-90115000D01*
X171934286Y-90472143D01*
X171862858Y-90757857D01*
X171791429Y-90900714D01*
X171720000Y-90972143D01*
X171577143Y-91043571D01*
X171434286Y-91043571D01*
X171291429Y-90972143D01*
X171220000Y-90900714D01*
X171148572Y-90757857D01*
X171077143Y-90472143D01*
X171077143Y-90115000D01*
X171148572Y-89829286D01*
X171220000Y-89686429D01*
X171291429Y-89615000D01*
X171434286Y-89543571D01*
D13*
X185700000Y-119500000D02*
X172500000Y-119500000D01*
X185700000Y-81400000D02*
X172500000Y-81400000D01*
D11*
X112521430Y-87150000D02*
X113235716Y-87150000D01*
X112378573Y-87578571D02*
X112878573Y-86078571D01*
X113378573Y-87578571D01*
X113878573Y-87578571D02*
X113878573Y-86078571D01*
X114235716Y-86078571D01*
X114450001Y-86150000D01*
X114592859Y-86292857D01*
X114664287Y-86435714D01*
X114735716Y-86721429D01*
X114735716Y-86935714D01*
X114664287Y-87221429D01*
X114592859Y-87364286D01*
X114450001Y-87507143D01*
X114235716Y-87578571D01*
X113878573Y-87578571D01*
X115307144Y-87507143D02*
X115521430Y-87578571D01*
X115878573Y-87578571D01*
X116021430Y-87507143D01*
X116092859Y-87435714D01*
X116164287Y-87292857D01*
X116164287Y-87150000D01*
X116092859Y-87007143D01*
X116021430Y-86935714D01*
X115878573Y-86864286D01*
X115592859Y-86792857D01*
X115450001Y-86721429D01*
X115378573Y-86650000D01*
X115307144Y-86507143D01*
X115307144Y-86364286D01*
X115378573Y-86221429D01*
X115450001Y-86150000D01*
X115592859Y-86078571D01*
X115950001Y-86078571D01*
X116164287Y-86150000D01*
X117592858Y-87578571D02*
X116735715Y-87578571D01*
X117164287Y-87578571D02*
X117164287Y-86078571D01*
X117021430Y-86292857D01*
X116878572Y-86435714D01*
X116735715Y-86507143D01*
X118521429Y-86078571D02*
X118664286Y-86078571D01*
X118807143Y-86150000D01*
X118878572Y-86221429D01*
X118950001Y-86364286D01*
X119021429Y-86650000D01*
X119021429Y-87007143D01*
X118950001Y-87292857D01*
X118878572Y-87435714D01*
X118807143Y-87507143D01*
X118664286Y-87578571D01*
X118521429Y-87578571D01*
X118378572Y-87507143D01*
X118307143Y-87435714D01*
X118235715Y-87292857D01*
X118164286Y-87007143D01*
X118164286Y-86650000D01*
X118235715Y-86364286D01*
X118307143Y-86221429D01*
X118378572Y-86150000D01*
X118521429Y-86078571D01*
X120450000Y-87578571D02*
X119592857Y-87578571D01*
X120021429Y-87578571D02*
X120021429Y-86078571D01*
X119878572Y-86292857D01*
X119735714Y-86435714D01*
X119592857Y-86507143D01*
X121807143Y-86078571D02*
X121092857Y-86078571D01*
X121021428Y-86792857D01*
X121092857Y-86721429D01*
X121235714Y-86650000D01*
X121592857Y-86650000D01*
X121735714Y-86721429D01*
X121807143Y-86792857D01*
X121878571Y-86935714D01*
X121878571Y-87292857D01*
X121807143Y-87435714D01*
X121735714Y-87507143D01*
X121592857Y-87578571D01*
X121235714Y-87578571D01*
X121092857Y-87507143D01*
X121021428Y-87435714D01*
X103972857Y-84973810D02*
X104472857Y-86573810D01*
X104972857Y-84973810D01*
X105472857Y-86573810D02*
X105472857Y-84973810D01*
X106187143Y-86573810D02*
X106187143Y-84973810D01*
X107044286Y-86573810D01*
X107044286Y-84973810D01*
X104901429Y-87673810D02*
X104187143Y-87673810D01*
X104115714Y-88435714D01*
X104187143Y-88359524D01*
X104330000Y-88283333D01*
X104687143Y-88283333D01*
X104830000Y-88359524D01*
X104901429Y-88435714D01*
X104972857Y-88588095D01*
X104972857Y-88969048D01*
X104901429Y-89121429D01*
X104830000Y-89197619D01*
X104687143Y-89273810D01*
X104330000Y-89273810D01*
X104187143Y-89197619D01*
X104115714Y-89121429D01*
X105401428Y-87673810D02*
X105901428Y-89273810D01*
X106401428Y-87673810D01*
X104044286Y-90373810D02*
X104972857Y-90373810D01*
X104472857Y-90983333D01*
X104687143Y-90983333D01*
X104830000Y-91059524D01*
X104901429Y-91135714D01*
X104972857Y-91288095D01*
X104972857Y-91669048D01*
X104901429Y-91821429D01*
X104830000Y-91897619D01*
X104687143Y-91973810D01*
X104258571Y-91973810D01*
X104115714Y-91897619D01*
X104044286Y-91821429D01*
X105401428Y-90373810D02*
X105901428Y-91973810D01*
X106401428Y-90373810D01*
X106758571Y-90373810D02*
X107687142Y-90373810D01*
X107187142Y-90983333D01*
X107401428Y-90983333D01*
X107544285Y-91059524D01*
X107615714Y-91135714D01*
X107687142Y-91288095D01*
X107687142Y-91669048D01*
X107615714Y-91821429D01*
X107544285Y-91897619D01*
X107401428Y-91973810D01*
X106972856Y-91973810D01*
X106829999Y-91897619D01*
X106758571Y-91821429D01*
X104972857Y-93150000D02*
X104830000Y-93073810D01*
X104615714Y-93073810D01*
X104401429Y-93150000D01*
X104258571Y-93302381D01*
X104187143Y-93454762D01*
X104115714Y-93759524D01*
X104115714Y-93988095D01*
X104187143Y-94292857D01*
X104258571Y-94445238D01*
X104401429Y-94597619D01*
X104615714Y-94673810D01*
X104758571Y-94673810D01*
X104972857Y-94597619D01*
X105044286Y-94521429D01*
X105044286Y-93988095D01*
X104758571Y-93988095D01*
X105687143Y-94673810D02*
X105687143Y-93073810D01*
X106544286Y-94673810D01*
X106544286Y-93073810D01*
X107258572Y-94673810D02*
X107258572Y-93073810D01*
X107615715Y-93073810D01*
X107830000Y-93150000D01*
X107972858Y-93302381D01*
X108044286Y-93454762D01*
X108115715Y-93759524D01*
X108115715Y-93988095D01*
X108044286Y-94292857D01*
X107972858Y-94445238D01*
X107830000Y-94597619D01*
X107615715Y-94673810D01*
X107258572Y-94673810D01*
X104187143Y-97373810D02*
X104187143Y-95773810D01*
X105187143Y-95773810D02*
X105472857Y-95773810D01*
X105615715Y-95850000D01*
X105758572Y-96002381D01*
X105830000Y-96307143D01*
X105830000Y-96840476D01*
X105758572Y-97145238D01*
X105615715Y-97297619D01*
X105472857Y-97373810D01*
X105187143Y-97373810D01*
X105044286Y-97297619D01*
X104901429Y-97145238D01*
X104830000Y-96840476D01*
X104830000Y-96307143D01*
X104901429Y-96002381D01*
X105044286Y-95850000D01*
X105187143Y-95773810D01*
X106758572Y-95773810D02*
X106901429Y-95773810D01*
X107044286Y-95850000D01*
X107115715Y-95926190D01*
X107187144Y-96078571D01*
X107258572Y-96383333D01*
X107258572Y-96764286D01*
X107187144Y-97069048D01*
X107115715Y-97221429D01*
X107044286Y-97297619D01*
X106901429Y-97373810D01*
X106758572Y-97373810D01*
X106615715Y-97297619D01*
X106544286Y-97221429D01*
X106472858Y-97069048D01*
X106401429Y-96764286D01*
X106401429Y-96383333D01*
X106472858Y-96078571D01*
X106544286Y-95926190D01*
X106615715Y-95850000D01*
X106758572Y-95773810D01*
X104187143Y-100073810D02*
X104187143Y-98473810D01*
X105187143Y-98473810D02*
X105472857Y-98473810D01*
X105615715Y-98550000D01*
X105758572Y-98702381D01*
X105830000Y-99007143D01*
X105830000Y-99540476D01*
X105758572Y-99845238D01*
X105615715Y-99997619D01*
X105472857Y-100073810D01*
X105187143Y-100073810D01*
X105044286Y-99997619D01*
X104901429Y-99845238D01*
X104830000Y-99540476D01*
X104830000Y-99007143D01*
X104901429Y-98702381D01*
X105044286Y-98550000D01*
X105187143Y-98473810D01*
X107258572Y-100073810D02*
X106401429Y-100073810D01*
X106830001Y-100073810D02*
X106830001Y-98473810D01*
X106687144Y-98702381D01*
X106544286Y-98854762D01*
X106401429Y-98930952D01*
X104187143Y-102773810D02*
X104187143Y-101173810D01*
X105187143Y-101173810D02*
X105472857Y-101173810D01*
X105615715Y-101250000D01*
X105758572Y-101402381D01*
X105830000Y-101707143D01*
X105830000Y-102240476D01*
X105758572Y-102545238D01*
X105615715Y-102697619D01*
X105472857Y-102773810D01*
X105187143Y-102773810D01*
X105044286Y-102697619D01*
X104901429Y-102545238D01*
X104830000Y-102240476D01*
X104830000Y-101707143D01*
X104901429Y-101402381D01*
X105044286Y-101250000D01*
X105187143Y-101173810D01*
X106401429Y-101326190D02*
X106472858Y-101250000D01*
X106615715Y-101173810D01*
X106972858Y-101173810D01*
X107115715Y-101250000D01*
X107187144Y-101326190D01*
X107258572Y-101478571D01*
X107258572Y-101630952D01*
X107187144Y-101859524D01*
X106330001Y-102773810D01*
X107258572Y-102773810D01*
X104115714Y-105397619D02*
X104330000Y-105473810D01*
X104687143Y-105473810D01*
X104830000Y-105397619D01*
X104901429Y-105321429D01*
X104972857Y-105169048D01*
X104972857Y-105016667D01*
X104901429Y-104864286D01*
X104830000Y-104788095D01*
X104687143Y-104711905D01*
X104401429Y-104635714D01*
X104258571Y-104559524D01*
X104187143Y-104483333D01*
X104115714Y-104330952D01*
X104115714Y-104178571D01*
X104187143Y-104026190D01*
X104258571Y-103950000D01*
X104401429Y-103873810D01*
X104758571Y-103873810D01*
X104972857Y-103950000D01*
X106472857Y-105321429D02*
X106401428Y-105397619D01*
X106187142Y-105473810D01*
X106044285Y-105473810D01*
X105830000Y-105397619D01*
X105687142Y-105245238D01*
X105615714Y-105092857D01*
X105544285Y-104788095D01*
X105544285Y-104559524D01*
X105615714Y-104254762D01*
X105687142Y-104102381D01*
X105830000Y-103950000D01*
X106044285Y-103873810D01*
X106187142Y-103873810D01*
X106401428Y-103950000D01*
X106472857Y-104026190D01*
X107830000Y-105473810D02*
X107115714Y-105473810D01*
X107115714Y-103873810D01*
X104115714Y-108097619D02*
X104330000Y-108173810D01*
X104687143Y-108173810D01*
X104830000Y-108097619D01*
X104901429Y-108021429D01*
X104972857Y-107869048D01*
X104972857Y-107716667D01*
X104901429Y-107564286D01*
X104830000Y-107488095D01*
X104687143Y-107411905D01*
X104401429Y-107335714D01*
X104258571Y-107259524D01*
X104187143Y-107183333D01*
X104115714Y-107030952D01*
X104115714Y-106878571D01*
X104187143Y-106726190D01*
X104258571Y-106650000D01*
X104401429Y-106573810D01*
X104758571Y-106573810D01*
X104972857Y-106650000D01*
X105615714Y-108173810D02*
X105615714Y-106573810D01*
X105972857Y-106573810D01*
X106187142Y-106650000D01*
X106330000Y-106802381D01*
X106401428Y-106954762D01*
X106472857Y-107259524D01*
X106472857Y-107488095D01*
X106401428Y-107792857D01*
X106330000Y-107945238D01*
X106187142Y-108097619D01*
X105972857Y-108173810D01*
X105615714Y-108173810D01*
X107044285Y-107716667D02*
X107758571Y-107716667D01*
X106901428Y-108173810D02*
X107401428Y-106573810D01*
X107901428Y-108173810D01*
X104187143Y-110873810D02*
X104187143Y-109273810D01*
X104687143Y-110416667D01*
X105187143Y-109273810D01*
X105187143Y-110873810D01*
X106187143Y-109273810D02*
X106472857Y-109273810D01*
X106615715Y-109350000D01*
X106758572Y-109502381D01*
X106830000Y-109807143D01*
X106830000Y-110340476D01*
X106758572Y-110645238D01*
X106615715Y-110797619D01*
X106472857Y-110873810D01*
X106187143Y-110873810D01*
X106044286Y-110797619D01*
X105901429Y-110645238D01*
X105830000Y-110340476D01*
X105830000Y-109807143D01*
X105901429Y-109502381D01*
X106044286Y-109350000D01*
X106187143Y-109273810D01*
X107401429Y-110797619D02*
X107615715Y-110873810D01*
X107972858Y-110873810D01*
X108115715Y-110797619D01*
X108187144Y-110721429D01*
X108258572Y-110569048D01*
X108258572Y-110416667D01*
X108187144Y-110264286D01*
X108115715Y-110188095D01*
X107972858Y-110111905D01*
X107687144Y-110035714D01*
X107544286Y-109959524D01*
X107472858Y-109883333D01*
X107401429Y-109730952D01*
X107401429Y-109578571D01*
X107472858Y-109426190D01*
X107544286Y-109350000D01*
X107687144Y-109273810D01*
X108044286Y-109273810D01*
X108258572Y-109350000D01*
X108901429Y-110873810D02*
X108901429Y-109273810D01*
X104187143Y-113573810D02*
X104187143Y-111973810D01*
X104687143Y-113116667D01*
X105187143Y-111973810D01*
X105187143Y-113573810D01*
X105901429Y-113573810D02*
X105901429Y-111973810D01*
X106544286Y-113497619D02*
X106758572Y-113573810D01*
X107115715Y-113573810D01*
X107258572Y-113497619D01*
X107330001Y-113421429D01*
X107401429Y-113269048D01*
X107401429Y-113116667D01*
X107330001Y-112964286D01*
X107258572Y-112888095D01*
X107115715Y-112811905D01*
X106830001Y-112735714D01*
X106687143Y-112659524D01*
X106615715Y-112583333D01*
X106544286Y-112430952D01*
X106544286Y-112278571D01*
X106615715Y-112126190D01*
X106687143Y-112050000D01*
X106830001Y-111973810D01*
X107187143Y-111973810D01*
X107401429Y-112050000D01*
X108330000Y-111973810D02*
X108615714Y-111973810D01*
X108758572Y-112050000D01*
X108901429Y-112202381D01*
X108972857Y-112507143D01*
X108972857Y-113040476D01*
X108901429Y-113345238D01*
X108758572Y-113497619D01*
X108615714Y-113573810D01*
X108330000Y-113573810D01*
X108187143Y-113497619D01*
X108044286Y-113345238D01*
X107972857Y-113040476D01*
X107972857Y-112507143D01*
X108044286Y-112202381D01*
X108187143Y-112050000D01*
X108330000Y-111973810D01*
X104115714Y-116197619D02*
X104330000Y-116273810D01*
X104687143Y-116273810D01*
X104830000Y-116197619D01*
X104901429Y-116121429D01*
X104972857Y-115969048D01*
X104972857Y-115816667D01*
X104901429Y-115664286D01*
X104830000Y-115588095D01*
X104687143Y-115511905D01*
X104401429Y-115435714D01*
X104258571Y-115359524D01*
X104187143Y-115283333D01*
X104115714Y-115130952D01*
X104115714Y-114978571D01*
X104187143Y-114826190D01*
X104258571Y-114750000D01*
X104401429Y-114673810D01*
X104758571Y-114673810D01*
X104972857Y-114750000D01*
X106472857Y-116121429D02*
X106401428Y-116197619D01*
X106187142Y-116273810D01*
X106044285Y-116273810D01*
X105830000Y-116197619D01*
X105687142Y-116045238D01*
X105615714Y-115892857D01*
X105544285Y-115588095D01*
X105544285Y-115359524D01*
X105615714Y-115054762D01*
X105687142Y-114902381D01*
X105830000Y-114750000D01*
X106044285Y-114673810D01*
X106187142Y-114673810D01*
X106401428Y-114750000D01*
X106472857Y-114826190D01*
X107115714Y-116273810D02*
X107115714Y-114673810D01*
X107972857Y-116273810D02*
X107330000Y-115359524D01*
X107972857Y-114673810D02*
X107115714Y-115588095D01*
D14*
X120470711Y-120800000D02*
G75*
G03X120470711Y-120800000I-70711J0D01*
G01*
X119200000Y-121100000D02*
X117700000Y-121100000D01*
X117700000Y-121100000D02*
X117700000Y-118100000D01*
X117700000Y-118100000D02*
X120700000Y-118100000D01*
X120700000Y-118100000D02*
X120700000Y-121100000D01*
X120700000Y-121100000D02*
X119200000Y-121100000D01*
D15*
X114000000Y-79450000D02*
X114000000Y-78750000D01*
X115200000Y-78750000D02*
X115200000Y-79450000D01*
X116500000Y-79450000D02*
X116500000Y-78750000D01*
X117700000Y-78750000D02*
X117700000Y-79450000D01*
X122700000Y-119650000D02*
X122700000Y-118950000D01*
X123900000Y-118950000D02*
X123900000Y-119650000D01*
X103230000Y-87870000D02*
X103230000Y-115870000D01*
X103230000Y-115870000D02*
X98030000Y-115870000D01*
X98030000Y-115870000D02*
X98030000Y-85270000D01*
X98030000Y-85270000D02*
X100630000Y-85270000D01*
X100630000Y-85270000D02*
X100630000Y-87870000D01*
X100630000Y-87870000D02*
X103230000Y-87870000D01*
X103230000Y-86600000D02*
X103230000Y-85270000D01*
X103230000Y-85270000D02*
X101960000Y-85270000D01*
X108330000Y-81530000D02*
X108330000Y-76390000D01*
X108330000Y-76390000D02*
X105670000Y-76390000D01*
X105670000Y-76390000D02*
X105670000Y-81530000D01*
X105670000Y-81530000D02*
X108330000Y-81530000D01*
X108330000Y-82800000D02*
X108330000Y-84130000D01*
X108330000Y-84130000D02*
X107000000Y-84130000D01*
X122870000Y-79070000D02*
X133090000Y-79070000D01*
X133090000Y-79070000D02*
X133090000Y-76410000D01*
X133090000Y-76410000D02*
X122870000Y-76410000D01*
X122870000Y-76410000D02*
X122870000Y-79070000D01*
X121600000Y-79070000D02*
X120270000Y-79070000D01*
X120270000Y-79070000D02*
X120270000Y-77740000D01*
X105670000Y-119670000D02*
X105670000Y-124810000D01*
X105670000Y-124810000D02*
X108330000Y-124810000D01*
X108330000Y-124810000D02*
X108330000Y-119670000D01*
X108330000Y-119670000D02*
X105670000Y-119670000D01*
X105670000Y-118400000D02*
X105670000Y-117070000D01*
X105670000Y-117070000D02*
X107000000Y-117070000D01*
X115780000Y-119100000D02*
X115780000Y-120100000D01*
X114420000Y-120100000D02*
X114420000Y-119100000D01*
D14*
X115325000Y-81925000D02*
X115325000Y-82150000D01*
X118675000Y-81925000D02*
X118675000Y-82225000D01*
X118675000Y-85275000D02*
X118675000Y-84975000D01*
X115325000Y-85275000D02*
X115325000Y-84975000D01*
X115325000Y-81925000D02*
X118675000Y-81925000D01*
X115325000Y-85275000D02*
X118675000Y-85275000D01*
X115325000Y-82150000D02*
X114100000Y-82150000D01*
D15*
X111330000Y-89460000D02*
X112030000Y-89460000D01*
X112030000Y-90660000D02*
X111330000Y-90660000D01*
X115770000Y-100570000D02*
X115770000Y-99020000D01*
X115770000Y-95230000D02*
X115770000Y-96780000D01*
X110430000Y-95990000D02*
X110430000Y-96780000D01*
X110430000Y-99810000D02*
X110430000Y-99020000D01*
X115770000Y-95230000D02*
X111190000Y-95230000D01*
X111190000Y-95230000D02*
X110430000Y-95990000D01*
X110430000Y-99810000D02*
X111190000Y-100570000D01*
X111190000Y-100570000D02*
X115770000Y-100570000D01*
X111330000Y-92120000D02*
X112030000Y-92120000D01*
X112030000Y-93320000D02*
X111330000Y-93320000D01*
X115750000Y-107110000D02*
X115750000Y-105560000D01*
X115750000Y-101770000D02*
X115750000Y-103320000D01*
X110410000Y-102530000D02*
X110410000Y-103320000D01*
X110410000Y-106350000D02*
X110410000Y-105560000D01*
X115750000Y-101770000D02*
X111170000Y-101770000D01*
X111170000Y-101770000D02*
X110410000Y-102530000D01*
X110410000Y-106350000D02*
X111170000Y-107110000D01*
X111170000Y-107110000D02*
X115750000Y-107110000D01*
D14*
X117838095Y-116652381D02*
X117838095Y-117461905D01*
X117885714Y-117557143D01*
X117933333Y-117604762D01*
X118028571Y-117652381D01*
X118219048Y-117652381D01*
X118314286Y-117604762D01*
X118361905Y-117557143D01*
X118409524Y-117461905D01*
X118409524Y-116652381D01*
X118838095Y-116747619D02*
X118885714Y-116700000D01*
X118980952Y-116652381D01*
X119219048Y-116652381D01*
X119314286Y-116700000D01*
X119361905Y-116747619D01*
X119409524Y-116842857D01*
X119409524Y-116938095D01*
X119361905Y-117080952D01*
X118790476Y-117652381D01*
X119409524Y-117652381D01*
X114473334Y-76577143D02*
X114425715Y-76624762D01*
X114282858Y-76672381D01*
X114187620Y-76672381D01*
X114044762Y-76624762D01*
X113949524Y-76529524D01*
X113901905Y-76434286D01*
X113854286Y-76243810D01*
X113854286Y-76100952D01*
X113901905Y-75910476D01*
X113949524Y-75815238D01*
X114044762Y-75720000D01*
X114187620Y-75672381D01*
X114282858Y-75672381D01*
X114425715Y-75720000D01*
X114473334Y-75767619D01*
X115425715Y-76672381D02*
X114854286Y-76672381D01*
X115140000Y-76672381D02*
X115140000Y-75672381D01*
X115044762Y-75815238D01*
X114949524Y-75910476D01*
X114854286Y-75958095D01*
X116933334Y-76657143D02*
X116885715Y-76704762D01*
X116742858Y-76752381D01*
X116647620Y-76752381D01*
X116504762Y-76704762D01*
X116409524Y-76609524D01*
X116361905Y-76514286D01*
X116314286Y-76323810D01*
X116314286Y-76180952D01*
X116361905Y-75990476D01*
X116409524Y-75895238D01*
X116504762Y-75800000D01*
X116647620Y-75752381D01*
X116742858Y-75752381D01*
X116885715Y-75800000D01*
X116933334Y-75847619D01*
X117314286Y-75847619D02*
X117361905Y-75800000D01*
X117457143Y-75752381D01*
X117695239Y-75752381D01*
X117790477Y-75800000D01*
X117838096Y-75847619D01*
X117885715Y-75942857D01*
X117885715Y-76038095D01*
X117838096Y-76180952D01*
X117266667Y-76752381D01*
X117885715Y-76752381D01*
X125547143Y-119526666D02*
X125594762Y-119574285D01*
X125642381Y-119717142D01*
X125642381Y-119812380D01*
X125594762Y-119955238D01*
X125499524Y-120050476D01*
X125404286Y-120098095D01*
X125213810Y-120145714D01*
X125070952Y-120145714D01*
X124880476Y-120098095D01*
X124785238Y-120050476D01*
X124690000Y-119955238D01*
X124642381Y-119812380D01*
X124642381Y-119717142D01*
X124690000Y-119574285D01*
X124737619Y-119526666D01*
X124642381Y-119193333D02*
X124642381Y-118574285D01*
X125023333Y-118907619D01*
X125023333Y-118764761D01*
X125070952Y-118669523D01*
X125118571Y-118621904D01*
X125213810Y-118574285D01*
X125451905Y-118574285D01*
X125547143Y-118621904D01*
X125594762Y-118669523D01*
X125642381Y-118764761D01*
X125642381Y-119050476D01*
X125594762Y-119145714D01*
X125547143Y-119193333D01*
X96366667Y-100052381D02*
X96366667Y-100766667D01*
X96319047Y-100909524D01*
X96223809Y-101004762D01*
X96080952Y-101052381D01*
X95985714Y-101052381D01*
X97366667Y-101052381D02*
X96795238Y-101052381D01*
X97080952Y-101052381D02*
X97080952Y-100052381D01*
X96985714Y-100195238D01*
X96890476Y-100290476D01*
X96795238Y-100338095D01*
X103666667Y-75552381D02*
X103666667Y-76266667D01*
X103619047Y-76409524D01*
X103523809Y-76504762D01*
X103380952Y-76552381D01*
X103285714Y-76552381D01*
X104095238Y-75647619D02*
X104142857Y-75600000D01*
X104238095Y-75552381D01*
X104476191Y-75552381D01*
X104571429Y-75600000D01*
X104619048Y-75647619D01*
X104666667Y-75742857D01*
X104666667Y-75838095D01*
X104619048Y-75980952D01*
X104047619Y-76552381D01*
X104666667Y-76552381D01*
X134666667Y-77252381D02*
X134666667Y-77966667D01*
X134619047Y-78109524D01*
X134523809Y-78204762D01*
X134380952Y-78252381D01*
X134285714Y-78252381D01*
X135047619Y-77252381D02*
X135666667Y-77252381D01*
X135333333Y-77633333D01*
X135476191Y-77633333D01*
X135571429Y-77680952D01*
X135619048Y-77728571D01*
X135666667Y-77823810D01*
X135666667Y-78061905D01*
X135619048Y-78157143D01*
X135571429Y-78204762D01*
X135476191Y-78252381D01*
X135190476Y-78252381D01*
X135095238Y-78204762D01*
X135047619Y-78157143D01*
X103666667Y-123652381D02*
X103666667Y-124366667D01*
X103619047Y-124509524D01*
X103523809Y-124604762D01*
X103380952Y-124652381D01*
X103285714Y-124652381D01*
X104571429Y-123985714D02*
X104571429Y-124652381D01*
X104333333Y-123604762D02*
X104095238Y-124319048D01*
X104714286Y-124319048D01*
X114833334Y-117252381D02*
X114500000Y-116776190D01*
X114261905Y-117252381D02*
X114261905Y-116252381D01*
X114642858Y-116252381D01*
X114738096Y-116300000D01*
X114785715Y-116347619D01*
X114833334Y-116442857D01*
X114833334Y-116585714D01*
X114785715Y-116680952D01*
X114738096Y-116728571D01*
X114642858Y-116776190D01*
X114261905Y-116776190D01*
X115785715Y-117252381D02*
X115214286Y-117252381D01*
X115500000Y-117252381D02*
X115500000Y-116252381D01*
X115404762Y-116395238D01*
X115309524Y-116490476D01*
X115214286Y-116538095D01*
X120538095Y-83052381D02*
X120538095Y-83861905D01*
X120585714Y-83957143D01*
X120633333Y-84004762D01*
X120728571Y-84052381D01*
X120919048Y-84052381D01*
X121014286Y-84004762D01*
X121061905Y-83957143D01*
X121109524Y-83861905D01*
X121109524Y-83052381D01*
X122109524Y-84052381D02*
X121538095Y-84052381D01*
X121823809Y-84052381D02*
X121823809Y-83052381D01*
X121728571Y-83195238D01*
X121633333Y-83290476D01*
X121538095Y-83338095D01*
X111573334Y-89007143D02*
X111525715Y-89054762D01*
X111382858Y-89102381D01*
X111287620Y-89102381D01*
X111144762Y-89054762D01*
X111049524Y-88959524D01*
X111001905Y-88864286D01*
X110954286Y-88673810D01*
X110954286Y-88530952D01*
X111001905Y-88340476D01*
X111049524Y-88245238D01*
X111144762Y-88150000D01*
X111287620Y-88102381D01*
X111382858Y-88102381D01*
X111525715Y-88150000D01*
X111573334Y-88197619D01*
X112430477Y-88435714D02*
X112430477Y-89102381D01*
X112192381Y-88054762D02*
X111954286Y-88769048D01*
X112573334Y-88769048D01*
X116983334Y-96357143D02*
X116935715Y-96404762D01*
X116792858Y-96452381D01*
X116697620Y-96452381D01*
X116554762Y-96404762D01*
X116459524Y-96309524D01*
X116411905Y-96214286D01*
X116364286Y-96023810D01*
X116364286Y-95880952D01*
X116411905Y-95690476D01*
X116459524Y-95595238D01*
X116554762Y-95500000D01*
X116697620Y-95452381D01*
X116792858Y-95452381D01*
X116935715Y-95500000D01*
X116983334Y-95547619D01*
X117888096Y-95452381D02*
X117411905Y-95452381D01*
X117364286Y-95928571D01*
X117411905Y-95880952D01*
X117507143Y-95833333D01*
X117745239Y-95833333D01*
X117840477Y-95880952D01*
X117888096Y-95928571D01*
X117935715Y-96023810D01*
X117935715Y-96261905D01*
X117888096Y-96357143D01*
X117840477Y-96404762D01*
X117745239Y-96452381D01*
X117507143Y-96452381D01*
X117411905Y-96404762D01*
X117364286Y-96357143D01*
X109339048Y-100331429D02*
X110100953Y-100331429D01*
X109720001Y-100712381D02*
X109720001Y-99950476D01*
X111493334Y-94677143D02*
X111445715Y-94724762D01*
X111302858Y-94772381D01*
X111207620Y-94772381D01*
X111064762Y-94724762D01*
X110969524Y-94629524D01*
X110921905Y-94534286D01*
X110874286Y-94343810D01*
X110874286Y-94200952D01*
X110921905Y-94010476D01*
X110969524Y-93915238D01*
X111064762Y-93820000D01*
X111207620Y-93772381D01*
X111302858Y-93772381D01*
X111445715Y-93820000D01*
X111493334Y-93867619D01*
X112350477Y-93772381D02*
X112160000Y-93772381D01*
X112064762Y-93820000D01*
X112017143Y-93867619D01*
X111921905Y-94010476D01*
X111874286Y-94200952D01*
X111874286Y-94581905D01*
X111921905Y-94677143D01*
X111969524Y-94724762D01*
X112064762Y-94772381D01*
X112255239Y-94772381D01*
X112350477Y-94724762D01*
X112398096Y-94677143D01*
X112445715Y-94581905D01*
X112445715Y-94343810D01*
X112398096Y-94248571D01*
X112350477Y-94200952D01*
X112255239Y-94153333D01*
X112064762Y-94153333D01*
X111969524Y-94200952D01*
X111921905Y-94248571D01*
X111874286Y-94343810D01*
X116803334Y-102837143D02*
X116755715Y-102884762D01*
X116612858Y-102932381D01*
X116517620Y-102932381D01*
X116374762Y-102884762D01*
X116279524Y-102789524D01*
X116231905Y-102694286D01*
X116184286Y-102503810D01*
X116184286Y-102360952D01*
X116231905Y-102170476D01*
X116279524Y-102075238D01*
X116374762Y-101980000D01*
X116517620Y-101932381D01*
X116612858Y-101932381D01*
X116755715Y-101980000D01*
X116803334Y-102027619D01*
X117136667Y-101932381D02*
X117803334Y-101932381D01*
X117374762Y-102932381D01*
X109319048Y-106871429D02*
X110080953Y-106871429D01*
X109700001Y-107252381D02*
X109700001Y-106490476D01*
M02*
