G04 #@! TF.FileFunction,Copper,L1,Top,Signal*
%FSLAX46Y46*%
G04 Gerber Fmt 4.6, Leading zero omitted, Abs format (unit mm)*
G04 Created by KiCad (PCBNEW 4.0.6) date 07/11/17 13:45:28*
%MOMM*%
%LPD*%
G01*
G04 APERTURE LIST*
%ADD10C,0.100000*%
%ADD11C,4.000000*%
%ADD12R,0.400000X0.550000*%
%ADD13R,0.550000X0.400000*%
%ADD14C,2.000000*%
%ADD15R,0.750000X1.200000*%
%ADD16R,1.700000X1.700000*%
%ADD17O,1.700000X1.700000*%
%ADD18R,0.900000X1.200000*%
%ADD19R,1.400000X0.300000*%
%ADD20C,7.600000*%
%ADD21R,1.200000X0.750000*%
%ADD22R,3.000000X1.600000*%
%ADD23C,0.600000*%
%ADD24C,0.450000*%
%ADD25C,0.350000*%
%ADD26C,0.250000*%
%ADD27C,0.254000*%
G04 APERTURE END LIST*
D10*
D11*
X166050000Y-122830000D03*
D12*
X118600000Y-118680000D03*
X119200000Y-118680000D03*
X119800000Y-118680000D03*
X119800000Y-120520000D03*
X119200000Y-120520000D03*
X118600000Y-120520000D03*
D13*
X118280000Y-119300000D03*
X118280000Y-119900000D03*
X120120000Y-119900000D03*
X120120000Y-119300000D03*
D14*
X183960000Y-123320000D03*
X181420000Y-123320000D03*
X178880000Y-123320000D03*
X176340000Y-123320000D03*
X173800000Y-123320000D03*
X183960000Y-120780000D03*
X181420000Y-120780000D03*
X178880000Y-120780000D03*
X176340000Y-120780000D03*
X173800000Y-120780000D03*
X183960000Y-118240000D03*
X181420000Y-118240000D03*
X178880000Y-118240000D03*
X176340000Y-118240000D03*
X173800000Y-118240000D03*
X186500000Y-115700000D03*
X183960000Y-115700000D03*
X181420000Y-115700000D03*
X178880000Y-115700000D03*
X176340000Y-115700000D03*
X173800000Y-115700000D03*
X194120000Y-113160000D03*
X191580000Y-113160000D03*
X189040000Y-113160000D03*
X186500000Y-113160000D03*
X183960000Y-113160000D03*
X181420000Y-113160000D03*
X178880000Y-113160000D03*
X176340000Y-113160000D03*
X173800000Y-113160000D03*
X194120000Y-110620000D03*
X191580000Y-110620000D03*
X189040000Y-110620000D03*
X186500000Y-110620000D03*
X183960000Y-110620000D03*
X181420000Y-110620000D03*
X178880000Y-110620000D03*
X176340000Y-110620000D03*
X173800000Y-110620000D03*
X194120000Y-108080000D03*
X191580000Y-108080000D03*
X189040000Y-108080000D03*
X186500000Y-108080000D03*
X183960000Y-108080000D03*
X181420000Y-108080000D03*
X178880000Y-108080000D03*
X176340000Y-108080000D03*
X173800000Y-108080000D03*
X194120000Y-105540000D03*
X191580000Y-105540000D03*
X189040000Y-105540000D03*
X186500000Y-105540000D03*
X183960000Y-105540000D03*
X181420000Y-105540000D03*
X178880000Y-105540000D03*
X176340000Y-105540000D03*
X173800000Y-105540000D03*
X194120000Y-103000000D03*
X191580000Y-103000000D03*
X189040000Y-103000000D03*
X186500000Y-103000000D03*
X183960000Y-103000000D03*
X181420000Y-103000000D03*
X178880000Y-103000000D03*
X176340000Y-103000000D03*
X173800000Y-103000000D03*
X194120000Y-100460000D03*
X191580000Y-100460000D03*
X189040000Y-100460000D03*
X186500000Y-100460000D03*
X183960000Y-100460000D03*
X181420000Y-100460000D03*
X178880000Y-100460000D03*
X176340000Y-100460000D03*
X173800000Y-100460000D03*
X194120000Y-97920000D03*
X191580000Y-97920000D03*
X189040000Y-97920000D03*
X186500000Y-97920000D03*
X183960000Y-97920000D03*
X181420000Y-97920000D03*
X178880000Y-97920000D03*
X176340000Y-97920000D03*
X173800000Y-97920000D03*
X194120000Y-95380000D03*
X191580000Y-95380000D03*
X189040000Y-95380000D03*
X186500000Y-95380000D03*
X183960000Y-95380000D03*
X181420000Y-95380000D03*
X178880000Y-95380000D03*
X176340000Y-95380000D03*
X173800000Y-95380000D03*
X194120000Y-92840000D03*
X191580000Y-92840000D03*
X189040000Y-92840000D03*
X186500000Y-92840000D03*
X183960000Y-92840000D03*
X181420000Y-92840000D03*
X178880000Y-92840000D03*
X176340000Y-92840000D03*
X173800000Y-92840000D03*
X194120000Y-90300000D03*
X191580000Y-90300000D03*
X189040000Y-90300000D03*
X186500000Y-90300000D03*
X183960000Y-90300000D03*
X181420000Y-90300000D03*
X178880000Y-90300000D03*
X176340000Y-90300000D03*
X173800000Y-90300000D03*
X194120000Y-87760000D03*
X191580000Y-87760000D03*
X189040000Y-87760000D03*
X186500000Y-87760000D03*
X183960000Y-87760000D03*
X181420000Y-87760000D03*
X178880000Y-87760000D03*
X176340000Y-87760000D03*
X173800000Y-87760000D03*
X186500000Y-85220000D03*
X183960000Y-85220000D03*
X181420000Y-85220000D03*
X178880000Y-85220000D03*
X176340000Y-85220000D03*
X173800000Y-85220000D03*
X183960000Y-82680000D03*
X181420000Y-82680000D03*
X178880000Y-82680000D03*
X176340000Y-82680000D03*
X173800000Y-82680000D03*
X183960000Y-80140000D03*
X181420000Y-80140000D03*
X178880000Y-80140000D03*
X176340000Y-80140000D03*
X173800000Y-80140000D03*
X183960000Y-77600000D03*
X181420000Y-77600000D03*
X178880000Y-77600000D03*
X176340000Y-77600000D03*
D15*
X114600000Y-80050000D03*
X114600000Y-78150000D03*
X117100000Y-80050000D03*
X117100000Y-78150000D03*
X123300000Y-120250000D03*
X123300000Y-118350000D03*
D16*
X101900000Y-86600000D03*
D17*
X99360000Y-86600000D03*
X101900000Y-89140000D03*
X99360000Y-89140000D03*
X101900000Y-91680000D03*
X99360000Y-91680000D03*
X101900000Y-94220000D03*
X99360000Y-94220000D03*
X101900000Y-96760000D03*
X99360000Y-96760000D03*
X101900000Y-99300000D03*
X99360000Y-99300000D03*
X101900000Y-101840000D03*
X99360000Y-101840000D03*
X101900000Y-104380000D03*
X99360000Y-104380000D03*
X101900000Y-106920000D03*
X99360000Y-106920000D03*
X101900000Y-109460000D03*
X99360000Y-109460000D03*
X101900000Y-112000000D03*
X99360000Y-112000000D03*
X101900000Y-114540000D03*
X99360000Y-114540000D03*
D16*
X107000000Y-82800000D03*
D17*
X107000000Y-80260000D03*
X107000000Y-77720000D03*
D16*
X121600000Y-77740000D03*
D17*
X124140000Y-77740000D03*
X126680000Y-77740000D03*
X129220000Y-77740000D03*
X131760000Y-77740000D03*
D16*
X107000000Y-118400000D03*
D17*
X107000000Y-120940000D03*
X107000000Y-123480000D03*
D18*
X115100000Y-120700000D03*
X115100000Y-118500000D03*
D19*
X114800000Y-82600000D03*
X114800000Y-83100000D03*
X114800000Y-83600000D03*
X114800000Y-84100000D03*
X114800000Y-84600000D03*
X119200000Y-84600000D03*
X119200000Y-84100000D03*
X119200000Y-83600000D03*
X119200000Y-83100000D03*
X119200000Y-82600000D03*
D20*
X190600000Y-80600000D03*
X190600000Y-120600000D03*
X100600000Y-120600000D03*
X100600000Y-80600000D03*
D14*
X173800000Y-77600000D03*
D21*
X110730000Y-90060000D03*
X112630000Y-90060000D03*
D22*
X110900000Y-97900000D03*
X115300000Y-97900000D03*
D21*
X110730000Y-92720000D03*
X112630000Y-92720000D03*
D22*
X110880000Y-104440000D03*
X115280000Y-104440000D03*
D23*
X115140000Y-92670000D03*
X115150000Y-90040000D03*
X118690000Y-102230000D03*
X118690000Y-97900000D03*
X111300000Y-84900000D03*
X120200000Y-116700000D03*
X123300000Y-116100000D03*
X116800000Y-120500000D03*
X118800000Y-78100000D03*
X122870000Y-106970000D03*
X122910000Y-104420000D03*
D24*
X173800000Y-123320000D02*
X171070000Y-123320000D01*
X123870000Y-123220000D02*
X123830000Y-123180000D01*
X160850000Y-123220000D02*
X123870000Y-123220000D01*
X163900000Y-120170000D02*
X160850000Y-123220000D01*
X167920000Y-120170000D02*
X163900000Y-120170000D01*
X171070000Y-123320000D02*
X167920000Y-120170000D01*
D25*
X119200000Y-83600000D02*
X117600000Y-83600000D01*
D24*
X119800000Y-120520000D02*
X119800000Y-121500000D01*
X120120000Y-119900000D02*
X121300000Y-119900000D01*
X183960000Y-123320000D02*
X181420000Y-123320000D01*
X181420000Y-123320000D02*
X178880000Y-123320000D01*
X178880000Y-123320000D02*
X176340000Y-123320000D01*
X176340000Y-123320000D02*
X173800000Y-123320000D01*
X99360000Y-91680000D02*
X101900000Y-91680000D01*
X110730000Y-90060000D02*
X105200000Y-90060000D01*
X105200000Y-90060000D02*
X104280000Y-89140000D01*
X101900000Y-89140000D02*
X104280000Y-89140000D01*
X108140000Y-97900000D02*
X110900000Y-97900000D01*
X106820000Y-96580000D02*
X108140000Y-97900000D01*
X106820000Y-91680000D02*
X106820000Y-96580000D01*
X104280000Y-89140000D02*
X106820000Y-91680000D01*
X101900000Y-89140000D02*
X102040000Y-89140000D01*
X101900000Y-89140000D02*
X101930000Y-89140000D01*
X173800000Y-77600000D02*
X176340000Y-77600000D01*
X176340000Y-77600000D02*
X178880000Y-77600000D01*
X178880000Y-77600000D02*
X181420000Y-77600000D01*
X181420000Y-77600000D02*
X183960000Y-77600000D01*
X99360000Y-89140000D02*
X101900000Y-89140000D01*
X121400000Y-80100000D02*
X117150000Y-80100000D01*
X117150000Y-80100000D02*
X117100000Y-80050000D01*
X121400000Y-80100000D02*
X124320000Y-80100000D01*
X124320000Y-80100000D02*
X126680000Y-77740000D01*
X117150000Y-80100000D02*
X117100000Y-80050000D01*
X126680000Y-77740000D02*
X126680000Y-77520000D01*
X126680000Y-77520000D02*
X128100000Y-76100000D01*
X134600000Y-77600000D02*
X173800000Y-77600000D01*
X133100000Y-76100000D02*
X134600000Y-77600000D01*
X128100000Y-76100000D02*
X133100000Y-76100000D01*
X112630000Y-92720000D02*
X115090000Y-92720000D01*
X115090000Y-92720000D02*
X115140000Y-92670000D01*
X112630000Y-90060000D02*
X115130000Y-90060000D01*
X115130000Y-90060000D02*
X115150000Y-90040000D01*
X115280000Y-104440000D02*
X116480000Y-104440000D01*
X116480000Y-104440000D02*
X118690000Y-102230000D01*
X115300000Y-97900000D02*
X118690000Y-97900000D01*
D26*
X114800000Y-83600000D02*
X112600000Y-83600000D01*
D24*
X112600000Y-83600000D02*
X111300000Y-84900000D01*
X114600000Y-78150000D02*
X117100000Y-78150000D01*
X119800000Y-118680000D02*
X119800000Y-117900000D01*
X120200000Y-117500000D02*
X120200000Y-116700000D01*
X119800000Y-117900000D02*
X120200000Y-117500000D01*
X123300000Y-118350000D02*
X123300000Y-116100000D01*
X119200000Y-120520000D02*
X118600000Y-120520000D01*
X118600000Y-120520000D02*
X118580000Y-120500000D01*
X118580000Y-120500000D02*
X116800000Y-120500000D01*
X173800000Y-120780000D02*
X176340000Y-120780000D01*
X176340000Y-120780000D02*
X178880000Y-120780000D01*
X178880000Y-120780000D02*
X181420000Y-120780000D01*
X181420000Y-120780000D02*
X183960000Y-120780000D01*
X173800000Y-80140000D02*
X176340000Y-80140000D01*
X176340000Y-80140000D02*
X178880000Y-80140000D01*
X178880000Y-80140000D02*
X181420000Y-80140000D01*
X181420000Y-80140000D02*
X183960000Y-80140000D01*
X99360000Y-94220000D02*
X101900000Y-94220000D01*
X117100000Y-78150000D02*
X118750000Y-78150000D01*
X118750000Y-78150000D02*
X118800000Y-78100000D01*
X124100000Y-77780000D02*
X124140000Y-77740000D01*
X124100000Y-77780000D02*
X124140000Y-77740000D01*
D26*
X99360000Y-86600000D02*
X101900000Y-86600000D01*
X99360000Y-96760000D02*
X101900000Y-96760000D01*
X99360000Y-99300000D02*
X101900000Y-99300000D01*
X99360000Y-101840000D02*
X101900000Y-101840000D01*
X122840000Y-107000000D02*
X122810000Y-107000000D01*
X122870000Y-106970000D02*
X122840000Y-107000000D01*
X120120000Y-119300000D02*
X120190000Y-119300000D01*
X120190000Y-119300000D02*
X121310000Y-118180000D01*
X121310000Y-108500000D02*
X122810000Y-107000000D01*
X121310000Y-118180000D02*
X121310000Y-108500000D01*
X99360000Y-106920000D02*
X101900000Y-106920000D01*
X130000000Y-107000000D02*
X151300000Y-107000000D01*
X122810000Y-107000000D02*
X130000000Y-107000000D01*
X151300000Y-107000000D02*
X154920000Y-110620000D01*
X154920000Y-110620000D02*
X173800000Y-110620000D01*
X118700000Y-83100000D02*
X128100000Y-83100000D01*
X128100000Y-83100000D02*
X131760000Y-79440000D01*
X131760000Y-79440000D02*
X131760000Y-77740000D01*
X122840000Y-104490000D02*
X122840000Y-104500000D01*
X122910000Y-104420000D02*
X122840000Y-104490000D01*
X119200000Y-118680000D02*
X119200000Y-116370000D01*
X119200000Y-116370000D02*
X120030000Y-115540000D01*
X120030000Y-115540000D02*
X120030000Y-107310000D01*
X120030000Y-107310000D02*
X122840000Y-104500000D01*
X128900000Y-104500000D02*
X152700000Y-104500000D01*
X156280000Y-108080000D02*
X173800000Y-108080000D01*
X152700000Y-104500000D02*
X156280000Y-108080000D01*
X122840000Y-104500000D02*
X128900000Y-104500000D01*
X99360000Y-104380000D02*
X101900000Y-104380000D01*
X118700000Y-82600000D02*
X126600000Y-82600000D01*
X129220000Y-79980000D02*
X129220000Y-77740000D01*
X126600000Y-82600000D02*
X129220000Y-79980000D01*
X99360000Y-109460000D02*
X101900000Y-109460000D01*
X99360000Y-112000000D02*
X101900000Y-112000000D01*
X99360000Y-114540000D02*
X101900000Y-114540000D01*
X114600000Y-82600000D02*
X112600000Y-82600000D01*
X110260000Y-80260000D02*
X107000000Y-80260000D01*
X112600000Y-82600000D02*
X110260000Y-80260000D01*
X107000000Y-120940000D02*
X109560000Y-120940000D01*
X116720000Y-116800000D02*
X118600000Y-118680000D01*
X113700000Y-116800000D02*
X116720000Y-116800000D01*
X109560000Y-120940000D02*
X113700000Y-116800000D01*
X118280000Y-119300000D02*
X117200000Y-119300000D01*
X116400000Y-118500000D02*
X115100000Y-118500000D01*
X117200000Y-119300000D02*
X116400000Y-118500000D01*
X173800000Y-90300000D02*
X167500000Y-90300000D01*
X113200000Y-84100000D02*
X114800000Y-84100000D01*
X112800000Y-84500000D02*
X113200000Y-84100000D01*
X112800000Y-85100000D02*
X112800000Y-84500000D01*
X113300000Y-85600000D02*
X112800000Y-85100000D01*
X162800000Y-85600000D02*
X113300000Y-85600000D01*
X167500000Y-90300000D02*
X162800000Y-85600000D01*
X114800000Y-84600000D02*
X116600000Y-84600000D01*
X165760000Y-87760000D02*
X173800000Y-87760000D01*
X163100000Y-85100000D02*
X165760000Y-87760000D01*
X117100000Y-85100000D02*
X163100000Y-85100000D01*
X116600000Y-84600000D02*
X117100000Y-85100000D01*
X118700000Y-84600000D02*
X163600000Y-84600000D01*
X164220000Y-85220000D02*
X173800000Y-85220000D01*
X163600000Y-84600000D02*
X164220000Y-85220000D01*
X118700000Y-84100000D02*
X163600000Y-84100000D01*
X165020000Y-82680000D02*
X173800000Y-82680000D01*
X163600000Y-84100000D02*
X165020000Y-82680000D01*
D27*
G36*
X125273000Y-76783649D02*
X125193713Y-76686433D01*
X124970401Y-76501694D01*
X124715461Y-76363848D01*
X124438601Y-76278146D01*
X124150367Y-76247851D01*
X123861739Y-76274118D01*
X123583709Y-76355947D01*
X123326869Y-76490220D01*
X123101000Y-76671823D01*
X123059189Y-76721651D01*
X123026894Y-76617366D01*
X122928100Y-76467441D01*
X122791450Y-76350975D01*
X122627763Y-76277190D01*
X122450000Y-76251928D01*
X120750000Y-76251928D01*
X120648879Y-76259992D01*
X120477366Y-76313106D01*
X120327441Y-76411900D01*
X120210975Y-76548550D01*
X120137190Y-76712237D01*
X120111928Y-76890000D01*
X120111928Y-78590000D01*
X120119992Y-78691121D01*
X120173106Y-78862634D01*
X120271900Y-79012559D01*
X120408550Y-79129025D01*
X120572237Y-79202810D01*
X120750000Y-79228072D01*
X122450000Y-79228072D01*
X122551121Y-79220008D01*
X122722634Y-79166894D01*
X122872559Y-79068100D01*
X122989025Y-78931450D01*
X123062810Y-78767763D01*
X123063171Y-78765224D01*
X123086287Y-78793567D01*
X123309599Y-78978306D01*
X123564539Y-79116152D01*
X123841399Y-79201854D01*
X123986655Y-79217121D01*
X123963776Y-79240000D01*
X118071290Y-79240000D01*
X118051894Y-79177366D01*
X118003453Y-79103854D01*
X118014025Y-79091450D01*
X118050740Y-79010000D01*
X118584535Y-79010000D01*
X118688757Y-79032915D01*
X118872079Y-79036755D01*
X119052657Y-79004914D01*
X119223610Y-78938606D01*
X119378429Y-78840355D01*
X119511215Y-78713904D01*
X119616911Y-78564070D01*
X119691492Y-78396560D01*
X119732116Y-78217754D01*
X119735040Y-78008319D01*
X119699425Y-77828448D01*
X119629550Y-77658920D01*
X119528079Y-77506193D01*
X119398875Y-77376084D01*
X119246860Y-77273549D01*
X119077825Y-77202493D01*
X118898207Y-77165623D01*
X118714849Y-77164343D01*
X118534733Y-77198701D01*
X118364722Y-77267390D01*
X118330170Y-77290000D01*
X118055806Y-77290000D01*
X118051894Y-77277366D01*
X117953100Y-77127441D01*
X117816450Y-77010975D01*
X117652763Y-76937190D01*
X117475000Y-76911928D01*
X116725000Y-76911928D01*
X116623879Y-76919992D01*
X116452366Y-76973106D01*
X116302441Y-77071900D01*
X116185975Y-77208550D01*
X116149260Y-77290000D01*
X115555806Y-77290000D01*
X115551894Y-77277366D01*
X115453100Y-77127441D01*
X115316450Y-77010975D01*
X115152763Y-76937190D01*
X114975000Y-76911928D01*
X114225000Y-76911928D01*
X114123879Y-76919992D01*
X113952366Y-76973106D01*
X113802441Y-77071900D01*
X113685975Y-77208550D01*
X113612190Y-77372237D01*
X113586928Y-77550000D01*
X113586928Y-78750000D01*
X113594992Y-78851121D01*
X113648106Y-79022634D01*
X113697134Y-79097037D01*
X113662270Y-79149215D01*
X113614403Y-79264777D01*
X113590000Y-79387458D01*
X113590000Y-79764250D01*
X113748750Y-79923000D01*
X114473000Y-79923000D01*
X114473000Y-79903000D01*
X114727000Y-79903000D01*
X114727000Y-79923000D01*
X115451250Y-79923000D01*
X115610000Y-79764250D01*
X115610000Y-79387458D01*
X115585597Y-79264777D01*
X115537730Y-79149215D01*
X115505677Y-79101244D01*
X115514025Y-79091450D01*
X115550740Y-79010000D01*
X116144194Y-79010000D01*
X116148106Y-79022634D01*
X116196547Y-79096146D01*
X116185975Y-79108550D01*
X116112190Y-79272237D01*
X116086928Y-79450000D01*
X116086928Y-80650000D01*
X116094992Y-80751121D01*
X116148106Y-80922634D01*
X116246900Y-81072559D01*
X116383550Y-81189025D01*
X116547237Y-81262810D01*
X116725000Y-81288072D01*
X117475000Y-81288072D01*
X117576121Y-81280008D01*
X117747634Y-81226894D01*
X117897559Y-81128100D01*
X118014025Y-80991450D01*
X118028202Y-80960000D01*
X124320000Y-80960000D01*
X124399008Y-80952253D01*
X124478198Y-80945325D01*
X124482546Y-80944062D01*
X124487042Y-80943621D01*
X124563073Y-80920666D01*
X124639376Y-80898498D01*
X124643389Y-80896418D01*
X124647721Y-80895110D01*
X124717862Y-80857815D01*
X124788390Y-80821257D01*
X124791927Y-80818434D01*
X124795917Y-80816312D01*
X124857457Y-80766121D01*
X124919562Y-80716543D01*
X124925858Y-80710334D01*
X124925985Y-80710231D01*
X124926082Y-80710114D01*
X124928112Y-80708112D01*
X125273000Y-80363224D01*
X125273000Y-81840000D01*
X120083997Y-81840000D01*
X120077763Y-81837190D01*
X119900000Y-81811928D01*
X118500000Y-81811928D01*
X118398879Y-81819992D01*
X118227366Y-81873106D01*
X118077441Y-81971900D01*
X117960975Y-82108550D01*
X117887190Y-82272237D01*
X117861928Y-82450000D01*
X117861928Y-82750000D01*
X117869992Y-82851121D01*
X117874096Y-82864374D01*
X117861928Y-82950000D01*
X117861928Y-83250000D01*
X117869992Y-83351121D01*
X117871353Y-83355517D01*
X117868519Y-83369769D01*
X117879018Y-83380268D01*
X117923106Y-83522634D01*
X117971547Y-83596146D01*
X117960975Y-83608550D01*
X117887190Y-83772237D01*
X117880676Y-83818074D01*
X117868519Y-83830231D01*
X117874602Y-83860815D01*
X117861928Y-83950000D01*
X117861928Y-84250000D01*
X117869105Y-84340000D01*
X117414802Y-84340000D01*
X117137401Y-84062599D01*
X117083145Y-84018032D01*
X117029375Y-83972914D01*
X117025874Y-83970989D01*
X117022785Y-83968452D01*
X116960933Y-83935287D01*
X116899396Y-83901457D01*
X116895584Y-83900248D01*
X116892065Y-83898361D01*
X116824969Y-83877848D01*
X116758013Y-83856608D01*
X116754041Y-83856162D01*
X116750219Y-83854994D01*
X116680351Y-83847897D01*
X116610611Y-83840074D01*
X116602806Y-83840020D01*
X116602653Y-83840004D01*
X116602510Y-83840018D01*
X116600000Y-83840000D01*
X116127258Y-83840000D01*
X116125904Y-83835626D01*
X116126170Y-83833750D01*
X117865000Y-83833750D01*
X117868519Y-83830231D01*
X117865000Y-83812542D01*
X117865000Y-83833750D01*
X116126170Y-83833750D01*
X116138072Y-83750000D01*
X116138072Y-83450000D01*
X116133085Y-83387458D01*
X117865000Y-83387458D01*
X117868519Y-83369769D01*
X117865000Y-83366250D01*
X117865000Y-83387458D01*
X116133085Y-83387458D01*
X116130008Y-83348879D01*
X116125904Y-83335626D01*
X116138072Y-83250000D01*
X116138072Y-82950000D01*
X116130008Y-82848879D01*
X116125904Y-82835626D01*
X116138072Y-82750000D01*
X116138072Y-82450000D01*
X116130008Y-82348879D01*
X116076894Y-82177366D01*
X115978100Y-82027441D01*
X115841450Y-81910975D01*
X115677763Y-81837190D01*
X115500000Y-81811928D01*
X114100000Y-81811928D01*
X113998879Y-81819992D01*
X113934270Y-81840000D01*
X112914802Y-81840000D01*
X111410552Y-80335750D01*
X113590000Y-80335750D01*
X113590000Y-80712542D01*
X113614403Y-80835223D01*
X113662270Y-80950785D01*
X113731763Y-81054789D01*
X113820211Y-81143237D01*
X113924215Y-81212730D01*
X114039777Y-81260597D01*
X114162458Y-81285000D01*
X114314250Y-81285000D01*
X114473000Y-81126250D01*
X114473000Y-80177000D01*
X114727000Y-80177000D01*
X114727000Y-81126250D01*
X114885750Y-81285000D01*
X115037542Y-81285000D01*
X115160223Y-81260597D01*
X115275785Y-81212730D01*
X115379789Y-81143237D01*
X115468237Y-81054789D01*
X115537730Y-80950785D01*
X115585597Y-80835223D01*
X115610000Y-80712542D01*
X115610000Y-80335750D01*
X115451250Y-80177000D01*
X114727000Y-80177000D01*
X114473000Y-80177000D01*
X113748750Y-80177000D01*
X113590000Y-80335750D01*
X111410552Y-80335750D01*
X110797401Y-79722599D01*
X110743145Y-79678032D01*
X110689375Y-79632914D01*
X110685874Y-79630989D01*
X110682785Y-79628452D01*
X110620933Y-79595287D01*
X110559396Y-79561457D01*
X110555584Y-79560248D01*
X110552065Y-79558361D01*
X110484969Y-79537848D01*
X110418013Y-79516608D01*
X110414041Y-79516162D01*
X110410219Y-79514994D01*
X110340351Y-79507897D01*
X110270611Y-79500074D01*
X110262806Y-79500020D01*
X110262653Y-79500004D01*
X110262510Y-79500018D01*
X110260000Y-79500000D01*
X108277556Y-79500000D01*
X108249780Y-79446869D01*
X108068177Y-79221000D01*
X107846161Y-79034706D01*
X107765753Y-78990502D01*
X107828971Y-78956888D01*
X108053567Y-78773713D01*
X108238306Y-78550401D01*
X108376152Y-78295461D01*
X108461854Y-78018601D01*
X108492149Y-77730367D01*
X108465882Y-77441739D01*
X108384053Y-77163709D01*
X108249780Y-76906869D01*
X108068177Y-76681000D01*
X107846161Y-76494706D01*
X107592189Y-76355084D01*
X107315934Y-76267451D01*
X107027919Y-76235145D01*
X107007185Y-76235000D01*
X106992815Y-76235000D01*
X106704377Y-76263282D01*
X106426925Y-76347049D01*
X106171029Y-76483112D01*
X105946433Y-76666287D01*
X105761694Y-76889599D01*
X105623848Y-77144539D01*
X105538146Y-77421399D01*
X105507851Y-77709633D01*
X105534118Y-77998261D01*
X105615947Y-78276291D01*
X105750220Y-78533131D01*
X105931823Y-78759000D01*
X106153839Y-78945294D01*
X106234247Y-78989498D01*
X106171029Y-79023112D01*
X105946433Y-79206287D01*
X105761694Y-79429599D01*
X105623848Y-79684539D01*
X105538146Y-79961399D01*
X105507851Y-80249633D01*
X105534118Y-80538261D01*
X105615947Y-80816291D01*
X105750220Y-81073131D01*
X105931823Y-81299000D01*
X105977061Y-81336959D01*
X105964777Y-81339403D01*
X105849215Y-81387270D01*
X105745211Y-81456763D01*
X105656763Y-81545211D01*
X105587270Y-81649215D01*
X105539403Y-81764777D01*
X105515000Y-81887458D01*
X105515000Y-82514250D01*
X105673750Y-82673000D01*
X106873000Y-82673000D01*
X106873000Y-82653000D01*
X107127000Y-82653000D01*
X107127000Y-82673000D01*
X108326250Y-82673000D01*
X108485000Y-82514250D01*
X108485000Y-81887458D01*
X108460597Y-81764777D01*
X108412730Y-81649215D01*
X108343237Y-81545211D01*
X108254789Y-81456763D01*
X108150785Y-81387270D01*
X108035223Y-81339403D01*
X108024647Y-81337299D01*
X108053567Y-81313713D01*
X108238306Y-81090401D01*
X108276372Y-81020000D01*
X109945198Y-81020000D01*
X111954487Y-83029289D01*
X110951410Y-84032366D01*
X110864722Y-84067390D01*
X110711291Y-84167793D01*
X110580283Y-84296086D01*
X110476689Y-84447381D01*
X110404454Y-84615916D01*
X110366331Y-84795272D01*
X110363771Y-84978617D01*
X110396872Y-85158968D01*
X110464372Y-85329454D01*
X110563701Y-85483583D01*
X110691076Y-85615484D01*
X110841644Y-85720131D01*
X111009671Y-85793540D01*
X111188757Y-85832915D01*
X111372079Y-85836755D01*
X111552657Y-85804914D01*
X111723610Y-85738606D01*
X111878429Y-85640355D01*
X112011215Y-85513904D01*
X112098010Y-85390864D01*
X112130299Y-85451591D01*
X112162610Y-85513925D01*
X112165103Y-85517048D01*
X112166980Y-85520578D01*
X112211355Y-85574987D01*
X112255148Y-85629846D01*
X112260631Y-85635406D01*
X112260726Y-85635522D01*
X112260834Y-85635611D01*
X112262599Y-85637401D01*
X112762599Y-86137401D01*
X112816855Y-86181968D01*
X112870625Y-86227086D01*
X112874126Y-86229011D01*
X112877215Y-86231548D01*
X112939102Y-86264732D01*
X113000604Y-86298543D01*
X113004412Y-86299751D01*
X113007935Y-86301640D01*
X113075077Y-86322167D01*
X113141987Y-86343392D01*
X113145959Y-86343838D01*
X113149781Y-86345006D01*
X113219649Y-86352103D01*
X113289389Y-86359926D01*
X113297194Y-86359980D01*
X113297347Y-86359996D01*
X113297490Y-86359982D01*
X113300000Y-86360000D01*
X125273000Y-86360000D01*
X125273000Y-103740000D01*
X123552486Y-103740000D01*
X123508875Y-103696084D01*
X123356860Y-103593549D01*
X123187825Y-103522493D01*
X123008207Y-103485623D01*
X122824849Y-103484343D01*
X122644733Y-103518701D01*
X122474722Y-103587390D01*
X122321291Y-103687793D01*
X122190283Y-103816086D01*
X122086689Y-103967381D01*
X122014454Y-104135916D01*
X121983458Y-104281740D01*
X119492599Y-106772599D01*
X119448032Y-106826855D01*
X119402914Y-106880625D01*
X119400989Y-106884126D01*
X119398452Y-106887215D01*
X119365287Y-106949067D01*
X119331457Y-107010604D01*
X119330248Y-107014416D01*
X119328361Y-107017935D01*
X119307848Y-107085031D01*
X119286608Y-107151987D01*
X119286162Y-107155959D01*
X119284994Y-107159781D01*
X119277897Y-107229649D01*
X119270074Y-107299389D01*
X119270020Y-107307194D01*
X119270004Y-107307347D01*
X119270018Y-107307490D01*
X119270000Y-107310000D01*
X119270000Y-115225198D01*
X118662599Y-115832599D01*
X118618032Y-115886855D01*
X118572914Y-115940625D01*
X118570989Y-115944126D01*
X118568452Y-115947215D01*
X118535287Y-116009067D01*
X118501457Y-116070604D01*
X118500248Y-116074416D01*
X118498361Y-116077935D01*
X118477848Y-116145031D01*
X118456608Y-116211987D01*
X118456162Y-116215959D01*
X118454994Y-116219781D01*
X118447897Y-116289649D01*
X118440074Y-116359389D01*
X118440020Y-116367194D01*
X118440004Y-116367347D01*
X118440018Y-116367490D01*
X118440000Y-116370000D01*
X118440000Y-117445197D01*
X117257401Y-116262599D01*
X117203145Y-116218032D01*
X117149375Y-116172914D01*
X117145874Y-116170989D01*
X117142785Y-116168452D01*
X117080933Y-116135287D01*
X117019396Y-116101457D01*
X117015584Y-116100248D01*
X117012065Y-116098361D01*
X116944969Y-116077848D01*
X116878013Y-116056608D01*
X116874041Y-116056162D01*
X116870219Y-116054994D01*
X116800351Y-116047897D01*
X116730611Y-116040074D01*
X116722806Y-116040020D01*
X116722653Y-116040004D01*
X116722510Y-116040018D01*
X116720000Y-116040000D01*
X113700000Y-116040000D01*
X113630123Y-116046851D01*
X113560197Y-116052969D01*
X113556359Y-116054084D01*
X113552382Y-116054474D01*
X113485179Y-116074764D01*
X113417760Y-116094351D01*
X113414212Y-116096190D01*
X113410387Y-116097345D01*
X113348390Y-116130309D01*
X113286074Y-116162611D01*
X113282953Y-116165103D01*
X113279422Y-116166980D01*
X113225007Y-116211359D01*
X113170154Y-116255148D01*
X113164594Y-116260631D01*
X113164478Y-116260726D01*
X113164389Y-116260834D01*
X113162599Y-116262599D01*
X109245198Y-120180000D01*
X108277556Y-120180000D01*
X108249780Y-120126869D01*
X108068177Y-119901000D01*
X108018349Y-119859189D01*
X108122634Y-119826894D01*
X108272559Y-119728100D01*
X108389025Y-119591450D01*
X108462810Y-119427763D01*
X108488072Y-119250000D01*
X108488072Y-117550000D01*
X108480008Y-117448879D01*
X108426894Y-117277366D01*
X108328100Y-117127441D01*
X108191450Y-117010975D01*
X108027763Y-116937190D01*
X107850000Y-116911928D01*
X106150000Y-116911928D01*
X106048879Y-116919992D01*
X105877366Y-116973106D01*
X105727441Y-117071900D01*
X105610975Y-117208550D01*
X105537190Y-117372237D01*
X105511928Y-117550000D01*
X105511928Y-119250000D01*
X105519992Y-119351121D01*
X105573106Y-119522634D01*
X105671900Y-119672559D01*
X105808550Y-119789025D01*
X105972237Y-119862810D01*
X105974776Y-119863171D01*
X105946433Y-119886287D01*
X105761694Y-120109599D01*
X105623848Y-120364539D01*
X105538146Y-120641399D01*
X105507851Y-120929633D01*
X105534118Y-121218261D01*
X105615947Y-121496291D01*
X105750220Y-121753131D01*
X105931823Y-121979000D01*
X106153839Y-122165294D01*
X106239889Y-122212600D01*
X106118645Y-122284822D01*
X105902412Y-122479731D01*
X105728359Y-122713080D01*
X105603175Y-122975901D01*
X105558524Y-123123110D01*
X105679845Y-123353000D01*
X106873000Y-123353000D01*
X106873000Y-123333000D01*
X107127000Y-123333000D01*
X107127000Y-123353000D01*
X108320155Y-123353000D01*
X108441476Y-123123110D01*
X108396825Y-122975901D01*
X108271641Y-122713080D01*
X108097588Y-122479731D01*
X107881355Y-122284822D01*
X107760910Y-122213077D01*
X107828971Y-122176888D01*
X108053567Y-121993713D01*
X108238306Y-121770401D01*
X108276372Y-121700000D01*
X109560000Y-121700000D01*
X109629877Y-121693149D01*
X109699803Y-121687031D01*
X109703641Y-121685916D01*
X109707618Y-121685526D01*
X109774821Y-121665236D01*
X109842240Y-121645649D01*
X109845788Y-121643810D01*
X109849613Y-121642655D01*
X109911591Y-121609701D01*
X109973925Y-121577390D01*
X109977048Y-121574897D01*
X109980578Y-121573020D01*
X110034987Y-121528645D01*
X110089846Y-121484852D01*
X110095406Y-121479369D01*
X110095522Y-121479274D01*
X110095611Y-121479166D01*
X110097401Y-121477401D01*
X110589052Y-120985750D01*
X114015000Y-120985750D01*
X114015000Y-121362542D01*
X114039403Y-121485223D01*
X114087270Y-121600785D01*
X114156763Y-121704789D01*
X114245211Y-121793237D01*
X114349215Y-121862730D01*
X114464777Y-121910597D01*
X114587458Y-121935000D01*
X114814250Y-121935000D01*
X114973000Y-121776250D01*
X114973000Y-120827000D01*
X114173750Y-120827000D01*
X114015000Y-120985750D01*
X110589052Y-120985750D01*
X114014802Y-117560000D01*
X114110321Y-117560000D01*
X114037190Y-117722237D01*
X114011928Y-117900000D01*
X114011928Y-119100000D01*
X114019992Y-119201121D01*
X114073106Y-119372634D01*
X114171900Y-119522559D01*
X114259497Y-119597217D01*
X114245211Y-119606763D01*
X114156763Y-119695211D01*
X114087270Y-119799215D01*
X114039403Y-119914777D01*
X114015000Y-120037458D01*
X114015000Y-120414250D01*
X114173750Y-120573000D01*
X114973000Y-120573000D01*
X114973000Y-120553000D01*
X115227000Y-120553000D01*
X115227000Y-120573000D01*
X115247000Y-120573000D01*
X115247000Y-120827000D01*
X115227000Y-120827000D01*
X115227000Y-121776250D01*
X115385750Y-121935000D01*
X115612542Y-121935000D01*
X115735223Y-121910597D01*
X115850785Y-121862730D01*
X115954789Y-121793237D01*
X116043237Y-121704789D01*
X116112730Y-121600785D01*
X116160597Y-121485223D01*
X116185000Y-121362542D01*
X116185000Y-121209192D01*
X116191076Y-121215484D01*
X116341644Y-121320131D01*
X116509671Y-121393540D01*
X116688757Y-121432915D01*
X116872079Y-121436755D01*
X117052657Y-121404914D01*
X117168453Y-121360000D01*
X118116174Y-121360000D01*
X118222237Y-121407810D01*
X118400000Y-121433072D01*
X118800000Y-121433072D01*
X118901121Y-121425008D01*
X118914374Y-121420904D01*
X119000000Y-121433072D01*
X119400000Y-121433072D01*
X119501121Y-121425008D01*
X119505517Y-121423647D01*
X119537458Y-121430000D01*
X119541250Y-121430000D01*
X119566483Y-121404767D01*
X119672634Y-121371894D01*
X119822559Y-121273100D01*
X119900000Y-121182238D01*
X119900000Y-121271250D01*
X120058750Y-121430000D01*
X120062542Y-121430000D01*
X120185223Y-121405597D01*
X120300785Y-121357730D01*
X120404789Y-121288237D01*
X120493237Y-121199789D01*
X120562730Y-121095785D01*
X120610597Y-120980223D01*
X120635000Y-120857542D01*
X120635000Y-120805750D01*
X120546546Y-120717296D01*
X120580223Y-120710597D01*
X120695785Y-120662730D01*
X120799789Y-120593237D01*
X120857276Y-120535750D01*
X122290000Y-120535750D01*
X122290000Y-120912542D01*
X122314403Y-121035223D01*
X122362270Y-121150785D01*
X122431763Y-121254789D01*
X122520211Y-121343237D01*
X122624215Y-121412730D01*
X122739777Y-121460597D01*
X122862458Y-121485000D01*
X123014250Y-121485000D01*
X123173000Y-121326250D01*
X123173000Y-120377000D01*
X123427000Y-120377000D01*
X123427000Y-121326250D01*
X123585750Y-121485000D01*
X123737542Y-121485000D01*
X123860223Y-121460597D01*
X123975785Y-121412730D01*
X124079789Y-121343237D01*
X124168237Y-121254789D01*
X124237730Y-121150785D01*
X124285597Y-121035223D01*
X124310000Y-120912542D01*
X124310000Y-120535750D01*
X124151250Y-120377000D01*
X123427000Y-120377000D01*
X123173000Y-120377000D01*
X122448750Y-120377000D01*
X122290000Y-120535750D01*
X120857276Y-120535750D01*
X120888237Y-120504789D01*
X120957730Y-120400785D01*
X121005597Y-120285223D01*
X121030000Y-120162542D01*
X121030000Y-120158750D01*
X120871250Y-120000000D01*
X120784325Y-120000000D01*
X120817559Y-119978100D01*
X120934025Y-119841450D01*
X121007810Y-119677763D01*
X121010183Y-119661067D01*
X121030000Y-119641250D01*
X121030000Y-119637458D01*
X121020398Y-119589185D01*
X121027816Y-119536986D01*
X121847401Y-118717401D01*
X121891968Y-118663145D01*
X121937086Y-118609375D01*
X121939011Y-118605874D01*
X121941548Y-118602785D01*
X121974713Y-118540933D01*
X122008543Y-118479396D01*
X122009752Y-118475584D01*
X122011639Y-118472065D01*
X122032152Y-118404969D01*
X122053392Y-118338013D01*
X122053838Y-118334041D01*
X122055006Y-118330219D01*
X122062098Y-118260395D01*
X122069926Y-118190611D01*
X122069981Y-118182796D01*
X122069995Y-118182653D01*
X122069982Y-118182520D01*
X122070000Y-118180000D01*
X122070000Y-117750000D01*
X122286928Y-117750000D01*
X122286928Y-118950000D01*
X122294992Y-119051121D01*
X122348106Y-119222634D01*
X122397134Y-119297037D01*
X122362270Y-119349215D01*
X122314403Y-119464777D01*
X122290000Y-119587458D01*
X122290000Y-119964250D01*
X122448750Y-120123000D01*
X123173000Y-120123000D01*
X123173000Y-120103000D01*
X123427000Y-120103000D01*
X123427000Y-120123000D01*
X124151250Y-120123000D01*
X124310000Y-119964250D01*
X124310000Y-119587458D01*
X124285597Y-119464777D01*
X124237730Y-119349215D01*
X124205677Y-119301244D01*
X124214025Y-119291450D01*
X124287810Y-119127763D01*
X124313072Y-118950000D01*
X124313072Y-117750000D01*
X124305008Y-117648879D01*
X124251894Y-117477366D01*
X124160000Y-117337912D01*
X124160000Y-116467291D01*
X124191492Y-116396560D01*
X124232116Y-116217754D01*
X124235040Y-116008319D01*
X124199425Y-115828448D01*
X124129550Y-115658920D01*
X124028079Y-115506193D01*
X123898875Y-115376084D01*
X123746860Y-115273549D01*
X123577825Y-115202493D01*
X123398207Y-115165623D01*
X123214849Y-115164343D01*
X123034733Y-115198701D01*
X122864722Y-115267390D01*
X122711291Y-115367793D01*
X122580283Y-115496086D01*
X122476689Y-115647381D01*
X122404454Y-115815916D01*
X122366331Y-115995272D01*
X122363771Y-116178617D01*
X122396872Y-116358968D01*
X122440000Y-116467897D01*
X122440000Y-117345162D01*
X122385975Y-117408550D01*
X122312190Y-117572237D01*
X122286928Y-117750000D01*
X122070000Y-117750000D01*
X122070000Y-108814802D01*
X122985747Y-107899055D01*
X123122657Y-107874914D01*
X123293610Y-107808606D01*
X123370201Y-107760000D01*
X125273000Y-107760000D01*
X125273000Y-124973000D01*
X101340726Y-124973000D01*
X101798430Y-124892294D01*
X102609317Y-124577772D01*
X103343670Y-124111738D01*
X103632288Y-123836890D01*
X105558524Y-123836890D01*
X105603175Y-123984099D01*
X105728359Y-124246920D01*
X105902412Y-124480269D01*
X106118645Y-124675178D01*
X106368748Y-124824157D01*
X106643109Y-124921481D01*
X106873000Y-124800814D01*
X106873000Y-123607000D01*
X107127000Y-123607000D01*
X107127000Y-124800814D01*
X107356891Y-124921481D01*
X107631252Y-124824157D01*
X107881355Y-124675178D01*
X108097588Y-124480269D01*
X108271641Y-124246920D01*
X108396825Y-123984099D01*
X108441476Y-123836890D01*
X108320155Y-123607000D01*
X107127000Y-123607000D01*
X106873000Y-123607000D01*
X105679845Y-123607000D01*
X105558524Y-123836890D01*
X103632288Y-123836890D01*
X103973517Y-123511942D01*
X104474869Y-122801232D01*
X104828627Y-122006677D01*
X105021318Y-121158542D01*
X105035190Y-120165126D01*
X104866255Y-119311942D01*
X104534820Y-118507819D01*
X104053508Y-117783387D01*
X103440654Y-117166239D01*
X102719600Y-116679882D01*
X101917811Y-116342841D01*
X101065827Y-116167954D01*
X100196100Y-116161882D01*
X99341757Y-116324857D01*
X98535340Y-116650670D01*
X97807566Y-117126912D01*
X97186154Y-117735443D01*
X96727000Y-118406022D01*
X96727000Y-94209633D01*
X97867851Y-94209633D01*
X97894118Y-94498261D01*
X97975947Y-94776291D01*
X98110220Y-95033131D01*
X98291823Y-95259000D01*
X98513839Y-95445294D01*
X98594247Y-95489498D01*
X98531029Y-95523112D01*
X98306433Y-95706287D01*
X98121694Y-95929599D01*
X97983848Y-96184539D01*
X97898146Y-96461399D01*
X97867851Y-96749633D01*
X97894118Y-97038261D01*
X97975947Y-97316291D01*
X98110220Y-97573131D01*
X98291823Y-97799000D01*
X98513839Y-97985294D01*
X98594247Y-98029498D01*
X98531029Y-98063112D01*
X98306433Y-98246287D01*
X98121694Y-98469599D01*
X97983848Y-98724539D01*
X97898146Y-99001399D01*
X97867851Y-99289633D01*
X97894118Y-99578261D01*
X97975947Y-99856291D01*
X98110220Y-100113131D01*
X98291823Y-100339000D01*
X98513839Y-100525294D01*
X98594247Y-100569498D01*
X98531029Y-100603112D01*
X98306433Y-100786287D01*
X98121694Y-101009599D01*
X97983848Y-101264539D01*
X97898146Y-101541399D01*
X97867851Y-101829633D01*
X97894118Y-102118261D01*
X97975947Y-102396291D01*
X98110220Y-102653131D01*
X98291823Y-102879000D01*
X98513839Y-103065294D01*
X98594247Y-103109498D01*
X98531029Y-103143112D01*
X98306433Y-103326287D01*
X98121694Y-103549599D01*
X97983848Y-103804539D01*
X97898146Y-104081399D01*
X97867851Y-104369633D01*
X97894118Y-104658261D01*
X97975947Y-104936291D01*
X98110220Y-105193131D01*
X98291823Y-105419000D01*
X98513839Y-105605294D01*
X98594247Y-105649498D01*
X98531029Y-105683112D01*
X98306433Y-105866287D01*
X98121694Y-106089599D01*
X97983848Y-106344539D01*
X97898146Y-106621399D01*
X97867851Y-106909633D01*
X97894118Y-107198261D01*
X97975947Y-107476291D01*
X98110220Y-107733131D01*
X98291823Y-107959000D01*
X98513839Y-108145294D01*
X98594247Y-108189498D01*
X98531029Y-108223112D01*
X98306433Y-108406287D01*
X98121694Y-108629599D01*
X97983848Y-108884539D01*
X97898146Y-109161399D01*
X97867851Y-109449633D01*
X97894118Y-109738261D01*
X97975947Y-110016291D01*
X98110220Y-110273131D01*
X98291823Y-110499000D01*
X98513839Y-110685294D01*
X98594247Y-110729498D01*
X98531029Y-110763112D01*
X98306433Y-110946287D01*
X98121694Y-111169599D01*
X97983848Y-111424539D01*
X97898146Y-111701399D01*
X97867851Y-111989633D01*
X97894118Y-112278261D01*
X97975947Y-112556291D01*
X98110220Y-112813131D01*
X98291823Y-113039000D01*
X98513839Y-113225294D01*
X98594247Y-113269498D01*
X98531029Y-113303112D01*
X98306433Y-113486287D01*
X98121694Y-113709599D01*
X97983848Y-113964539D01*
X97898146Y-114241399D01*
X97867851Y-114529633D01*
X97894118Y-114818261D01*
X97975947Y-115096291D01*
X98110220Y-115353131D01*
X98291823Y-115579000D01*
X98513839Y-115765294D01*
X98767811Y-115904916D01*
X99044066Y-115992549D01*
X99332081Y-116024855D01*
X99352815Y-116025000D01*
X99367185Y-116025000D01*
X99655623Y-115996718D01*
X99933075Y-115912951D01*
X100188971Y-115776888D01*
X100413567Y-115593713D01*
X100598306Y-115370401D01*
X100629290Y-115313097D01*
X100650220Y-115353131D01*
X100831823Y-115579000D01*
X101053839Y-115765294D01*
X101307811Y-115904916D01*
X101584066Y-115992549D01*
X101872081Y-116024855D01*
X101892815Y-116025000D01*
X101907185Y-116025000D01*
X102195623Y-115996718D01*
X102473075Y-115912951D01*
X102728971Y-115776888D01*
X102953567Y-115593713D01*
X103138306Y-115370401D01*
X103276152Y-115115461D01*
X103361854Y-114838601D01*
X103392149Y-114550367D01*
X103365882Y-114261739D01*
X103284053Y-113983709D01*
X103149780Y-113726869D01*
X102968177Y-113501000D01*
X102746161Y-113314706D01*
X102665753Y-113270502D01*
X102728971Y-113236888D01*
X102953567Y-113053713D01*
X103138306Y-112830401D01*
X103276152Y-112575461D01*
X103361854Y-112298601D01*
X103392149Y-112010367D01*
X103365882Y-111721739D01*
X103284053Y-111443709D01*
X103149780Y-111186869D01*
X102968177Y-110961000D01*
X102746161Y-110774706D01*
X102665753Y-110730502D01*
X102728971Y-110696888D01*
X102953567Y-110513713D01*
X103138306Y-110290401D01*
X103276152Y-110035461D01*
X103361854Y-109758601D01*
X103392149Y-109470367D01*
X103365882Y-109181739D01*
X103284053Y-108903709D01*
X103149780Y-108646869D01*
X102968177Y-108421000D01*
X102746161Y-108234706D01*
X102665753Y-108190502D01*
X102728971Y-108156888D01*
X102953567Y-107973713D01*
X103138306Y-107750401D01*
X103276152Y-107495461D01*
X103361854Y-107218601D01*
X103392149Y-106930367D01*
X103365882Y-106641739D01*
X103284053Y-106363709D01*
X103149780Y-106106869D01*
X102968177Y-105881000D01*
X102746161Y-105694706D01*
X102665753Y-105650502D01*
X102728971Y-105616888D01*
X102953567Y-105433713D01*
X103138306Y-105210401D01*
X103276152Y-104955461D01*
X103347259Y-104725750D01*
X108745000Y-104725750D01*
X108745000Y-105302542D01*
X108769403Y-105425223D01*
X108817270Y-105540785D01*
X108886763Y-105644789D01*
X108975211Y-105733237D01*
X109079215Y-105802730D01*
X109194777Y-105850597D01*
X109317458Y-105875000D01*
X110594250Y-105875000D01*
X110753000Y-105716250D01*
X110753000Y-104567000D01*
X111007000Y-104567000D01*
X111007000Y-105716250D01*
X111165750Y-105875000D01*
X112442542Y-105875000D01*
X112565223Y-105850597D01*
X112680785Y-105802730D01*
X112784789Y-105733237D01*
X112873237Y-105644789D01*
X112942730Y-105540785D01*
X112990597Y-105425223D01*
X113015000Y-105302542D01*
X113015000Y-104725750D01*
X112856250Y-104567000D01*
X111007000Y-104567000D01*
X110753000Y-104567000D01*
X108903750Y-104567000D01*
X108745000Y-104725750D01*
X103347259Y-104725750D01*
X103361854Y-104678601D01*
X103392149Y-104390367D01*
X103365882Y-104101739D01*
X103284053Y-103823709D01*
X103155316Y-103577458D01*
X108745000Y-103577458D01*
X108745000Y-104154250D01*
X108903750Y-104313000D01*
X110753000Y-104313000D01*
X110753000Y-103163750D01*
X111007000Y-103163750D01*
X111007000Y-104313000D01*
X112856250Y-104313000D01*
X113015000Y-104154250D01*
X113015000Y-103640000D01*
X113141928Y-103640000D01*
X113141928Y-105240000D01*
X113149992Y-105341121D01*
X113203106Y-105512634D01*
X113301900Y-105662559D01*
X113438550Y-105779025D01*
X113602237Y-105852810D01*
X113780000Y-105878072D01*
X116780000Y-105878072D01*
X116881121Y-105870008D01*
X117052634Y-105816894D01*
X117202559Y-105718100D01*
X117319025Y-105581450D01*
X117392810Y-105417763D01*
X117418072Y-105240000D01*
X117418072Y-104718152D01*
X119038475Y-103097749D01*
X119113610Y-103068606D01*
X119268429Y-102970355D01*
X119401215Y-102843904D01*
X119506911Y-102694070D01*
X119581492Y-102526560D01*
X119622116Y-102347754D01*
X119625040Y-102138319D01*
X119589425Y-101958448D01*
X119519550Y-101788920D01*
X119418079Y-101636193D01*
X119288875Y-101506084D01*
X119136860Y-101403549D01*
X118967825Y-101332493D01*
X118788207Y-101295623D01*
X118604849Y-101294343D01*
X118424733Y-101328701D01*
X118254722Y-101397390D01*
X118101291Y-101497793D01*
X117970283Y-101626086D01*
X117866689Y-101777381D01*
X117821903Y-101881873D01*
X116701848Y-103001928D01*
X113780000Y-103001928D01*
X113678879Y-103009992D01*
X113507366Y-103063106D01*
X113357441Y-103161900D01*
X113240975Y-103298550D01*
X113167190Y-103462237D01*
X113141928Y-103640000D01*
X113015000Y-103640000D01*
X113015000Y-103577458D01*
X112990597Y-103454777D01*
X112942730Y-103339215D01*
X112873237Y-103235211D01*
X112784789Y-103146763D01*
X112680785Y-103077270D01*
X112565223Y-103029403D01*
X112442542Y-103005000D01*
X111165750Y-103005000D01*
X111007000Y-103163750D01*
X110753000Y-103163750D01*
X110594250Y-103005000D01*
X109317458Y-103005000D01*
X109194777Y-103029403D01*
X109079215Y-103077270D01*
X108975211Y-103146763D01*
X108886763Y-103235211D01*
X108817270Y-103339215D01*
X108769403Y-103454777D01*
X108745000Y-103577458D01*
X103155316Y-103577458D01*
X103149780Y-103566869D01*
X102968177Y-103341000D01*
X102746161Y-103154706D01*
X102665753Y-103110502D01*
X102728971Y-103076888D01*
X102953567Y-102893713D01*
X103138306Y-102670401D01*
X103276152Y-102415461D01*
X103361854Y-102138601D01*
X103392149Y-101850367D01*
X103365882Y-101561739D01*
X103284053Y-101283709D01*
X103149780Y-101026869D01*
X102968177Y-100801000D01*
X102746161Y-100614706D01*
X102665753Y-100570502D01*
X102728971Y-100536888D01*
X102953567Y-100353713D01*
X103138306Y-100130401D01*
X103276152Y-99875461D01*
X103361854Y-99598601D01*
X103392149Y-99310367D01*
X103365882Y-99021739D01*
X103284053Y-98743709D01*
X103149780Y-98486869D01*
X102968177Y-98261000D01*
X102746161Y-98074706D01*
X102665753Y-98030502D01*
X102728971Y-97996888D01*
X102953567Y-97813713D01*
X103138306Y-97590401D01*
X103276152Y-97335461D01*
X103361854Y-97058601D01*
X103392149Y-96770367D01*
X103365882Y-96481739D01*
X103284053Y-96203709D01*
X103149780Y-95946869D01*
X102968177Y-95721000D01*
X102746161Y-95534706D01*
X102665753Y-95490502D01*
X102728971Y-95456888D01*
X102953567Y-95273713D01*
X103138306Y-95050401D01*
X103276152Y-94795461D01*
X103361854Y-94518601D01*
X103392149Y-94230367D01*
X103365882Y-93941739D01*
X103284053Y-93663709D01*
X103149780Y-93406869D01*
X102968177Y-93181000D01*
X102746161Y-92994706D01*
X102660111Y-92947400D01*
X102781355Y-92875178D01*
X102997588Y-92680269D01*
X103171641Y-92446920D01*
X103296825Y-92184099D01*
X103341476Y-92036890D01*
X103220155Y-91807000D01*
X102027000Y-91807000D01*
X102027000Y-91827000D01*
X101773000Y-91827000D01*
X101773000Y-91807000D01*
X99487000Y-91807000D01*
X99487000Y-91827000D01*
X99233000Y-91827000D01*
X99233000Y-91807000D01*
X98039845Y-91807000D01*
X97918524Y-92036890D01*
X97963175Y-92184099D01*
X98088359Y-92446920D01*
X98262412Y-92680269D01*
X98478645Y-92875178D01*
X98599090Y-92946923D01*
X98531029Y-92983112D01*
X98306433Y-93166287D01*
X98121694Y-93389599D01*
X97983848Y-93644539D01*
X97898146Y-93921399D01*
X97867851Y-94209633D01*
X96727000Y-94209633D01*
X96727000Y-86589633D01*
X97867851Y-86589633D01*
X97894118Y-86878261D01*
X97975947Y-87156291D01*
X98110220Y-87413131D01*
X98291823Y-87639000D01*
X98513839Y-87825294D01*
X98594247Y-87869498D01*
X98531029Y-87903112D01*
X98306433Y-88086287D01*
X98121694Y-88309599D01*
X97983848Y-88564539D01*
X97898146Y-88841399D01*
X97867851Y-89129633D01*
X97894118Y-89418261D01*
X97975947Y-89696291D01*
X98110220Y-89953131D01*
X98291823Y-90179000D01*
X98513839Y-90365294D01*
X98599889Y-90412600D01*
X98478645Y-90484822D01*
X98262412Y-90679731D01*
X98088359Y-90913080D01*
X97963175Y-91175901D01*
X97918524Y-91323110D01*
X98039845Y-91553000D01*
X99233000Y-91553000D01*
X99233000Y-91533000D01*
X99487000Y-91533000D01*
X99487000Y-91553000D01*
X101773000Y-91553000D01*
X101773000Y-91533000D01*
X102027000Y-91533000D01*
X102027000Y-91553000D01*
X103220155Y-91553000D01*
X103341476Y-91323110D01*
X103296825Y-91175901D01*
X103171641Y-90913080D01*
X102997588Y-90679731D01*
X102781355Y-90484822D01*
X102660910Y-90413077D01*
X102728971Y-90376888D01*
X102953567Y-90193713D01*
X103113820Y-90000000D01*
X103923776Y-90000000D01*
X105960000Y-92036224D01*
X105960000Y-96580000D01*
X105967747Y-96659008D01*
X105974675Y-96738198D01*
X105975938Y-96742546D01*
X105976379Y-96747042D01*
X105999334Y-96823073D01*
X106021502Y-96899376D01*
X106023582Y-96903389D01*
X106024890Y-96907721D01*
X106062185Y-96977862D01*
X106098743Y-97048390D01*
X106101566Y-97051927D01*
X106103688Y-97055917D01*
X106153879Y-97117457D01*
X106203457Y-97179562D01*
X106209666Y-97185858D01*
X106209769Y-97185985D01*
X106209886Y-97186082D01*
X106211888Y-97188112D01*
X107531888Y-98508112D01*
X107593268Y-98558530D01*
X107654128Y-98609598D01*
X107658093Y-98611778D01*
X107661586Y-98614647D01*
X107731608Y-98652193D01*
X107801210Y-98690456D01*
X107805518Y-98691822D01*
X107809506Y-98693961D01*
X107885487Y-98717190D01*
X107961196Y-98741207D01*
X107965692Y-98741711D01*
X107970015Y-98743033D01*
X108049055Y-98751062D01*
X108127993Y-98759916D01*
X108136829Y-98759978D01*
X108136998Y-98759995D01*
X108137156Y-98759980D01*
X108140000Y-98760000D01*
X108766713Y-98760000D01*
X108769992Y-98801121D01*
X108823106Y-98972634D01*
X108921900Y-99122559D01*
X109058550Y-99239025D01*
X109222237Y-99312810D01*
X109400000Y-99338072D01*
X112400000Y-99338072D01*
X112501121Y-99330008D01*
X112672634Y-99276894D01*
X112822559Y-99178100D01*
X112939025Y-99041450D01*
X113012810Y-98877763D01*
X113038072Y-98700000D01*
X113038072Y-97100000D01*
X113161928Y-97100000D01*
X113161928Y-98700000D01*
X113169992Y-98801121D01*
X113223106Y-98972634D01*
X113321900Y-99122559D01*
X113458550Y-99239025D01*
X113622237Y-99312810D01*
X113800000Y-99338072D01*
X116800000Y-99338072D01*
X116901121Y-99330008D01*
X117072634Y-99276894D01*
X117222559Y-99178100D01*
X117339025Y-99041450D01*
X117412810Y-98877763D01*
X117429545Y-98760000D01*
X118322901Y-98760000D01*
X118399671Y-98793540D01*
X118578757Y-98832915D01*
X118762079Y-98836755D01*
X118942657Y-98804914D01*
X119113610Y-98738606D01*
X119268429Y-98640355D01*
X119401215Y-98513904D01*
X119506911Y-98364070D01*
X119581492Y-98196560D01*
X119622116Y-98017754D01*
X119625040Y-97808319D01*
X119589425Y-97628448D01*
X119519550Y-97458920D01*
X119418079Y-97306193D01*
X119288875Y-97176084D01*
X119136860Y-97073549D01*
X118967825Y-97002493D01*
X118788207Y-96965623D01*
X118604849Y-96964343D01*
X118424733Y-96998701D01*
X118322515Y-97040000D01*
X117433287Y-97040000D01*
X117430008Y-96998879D01*
X117376894Y-96827366D01*
X117278100Y-96677441D01*
X117141450Y-96560975D01*
X116977763Y-96487190D01*
X116800000Y-96461928D01*
X113800000Y-96461928D01*
X113698879Y-96469992D01*
X113527366Y-96523106D01*
X113377441Y-96621900D01*
X113260975Y-96758550D01*
X113187190Y-96922237D01*
X113161928Y-97100000D01*
X113038072Y-97100000D01*
X113030008Y-96998879D01*
X112976894Y-96827366D01*
X112878100Y-96677441D01*
X112741450Y-96560975D01*
X112577763Y-96487190D01*
X112400000Y-96461928D01*
X109400000Y-96461928D01*
X109298879Y-96469992D01*
X109127366Y-96523106D01*
X108977441Y-96621900D01*
X108860975Y-96758550D01*
X108787190Y-96922237D01*
X108770455Y-97040000D01*
X108496224Y-97040000D01*
X107680000Y-96223776D01*
X107680000Y-93005750D01*
X109495000Y-93005750D01*
X109495000Y-93157542D01*
X109519403Y-93280223D01*
X109567270Y-93395785D01*
X109636763Y-93499789D01*
X109725211Y-93588237D01*
X109829215Y-93657730D01*
X109944777Y-93705597D01*
X110067458Y-93730000D01*
X110444250Y-93730000D01*
X110603000Y-93571250D01*
X110603000Y-92847000D01*
X109653750Y-92847000D01*
X109495000Y-93005750D01*
X107680000Y-93005750D01*
X107680000Y-92282458D01*
X109495000Y-92282458D01*
X109495000Y-92434250D01*
X109653750Y-92593000D01*
X110603000Y-92593000D01*
X110603000Y-91868750D01*
X110857000Y-91868750D01*
X110857000Y-92593000D01*
X110877000Y-92593000D01*
X110877000Y-92847000D01*
X110857000Y-92847000D01*
X110857000Y-93571250D01*
X111015750Y-93730000D01*
X111392542Y-93730000D01*
X111515223Y-93705597D01*
X111630785Y-93657730D01*
X111678756Y-93625677D01*
X111688550Y-93634025D01*
X111852237Y-93707810D01*
X112030000Y-93733072D01*
X113230000Y-93733072D01*
X113331121Y-93725008D01*
X113502634Y-93671894D01*
X113642088Y-93580000D01*
X114924535Y-93580000D01*
X115028757Y-93602915D01*
X115212079Y-93606755D01*
X115392657Y-93574914D01*
X115563610Y-93508606D01*
X115718429Y-93410355D01*
X115851215Y-93283904D01*
X115956911Y-93134070D01*
X116031492Y-92966560D01*
X116072116Y-92787754D01*
X116075040Y-92578319D01*
X116039425Y-92398448D01*
X115969550Y-92228920D01*
X115868079Y-92076193D01*
X115738875Y-91946084D01*
X115586860Y-91843549D01*
X115417825Y-91772493D01*
X115238207Y-91735623D01*
X115054849Y-91734343D01*
X114874733Y-91768701D01*
X114704722Y-91837390D01*
X114670170Y-91860000D01*
X113634838Y-91860000D01*
X113571450Y-91805975D01*
X113407763Y-91732190D01*
X113230000Y-91706928D01*
X112030000Y-91706928D01*
X111928879Y-91714992D01*
X111757366Y-91768106D01*
X111682963Y-91817134D01*
X111630785Y-91782270D01*
X111515223Y-91734403D01*
X111392542Y-91710000D01*
X111015750Y-91710000D01*
X110857000Y-91868750D01*
X110603000Y-91868750D01*
X110444250Y-91710000D01*
X110067458Y-91710000D01*
X109944777Y-91734403D01*
X109829215Y-91782270D01*
X109725211Y-91851763D01*
X109636763Y-91940211D01*
X109567270Y-92044215D01*
X109519403Y-92159777D01*
X109495000Y-92282458D01*
X107680000Y-92282458D01*
X107680000Y-91680000D01*
X107672253Y-91600992D01*
X107665325Y-91521802D01*
X107664062Y-91517455D01*
X107663621Y-91512958D01*
X107640652Y-91436881D01*
X107618497Y-91360624D01*
X107616419Y-91356616D01*
X107615110Y-91352279D01*
X107577775Y-91282063D01*
X107541256Y-91211610D01*
X107538436Y-91208077D01*
X107536312Y-91204083D01*
X107486093Y-91142509D01*
X107436542Y-91080437D01*
X107430334Y-91074142D01*
X107430231Y-91074015D01*
X107430114Y-91073918D01*
X107428112Y-91071888D01*
X107276224Y-90920000D01*
X109725162Y-90920000D01*
X109788550Y-90974025D01*
X109952237Y-91047810D01*
X110130000Y-91073072D01*
X111330000Y-91073072D01*
X111431121Y-91065008D01*
X111602634Y-91011894D01*
X111676146Y-90963453D01*
X111688550Y-90974025D01*
X111852237Y-91047810D01*
X112030000Y-91073072D01*
X113230000Y-91073072D01*
X113331121Y-91065008D01*
X113502634Y-91011894D01*
X113642088Y-90920000D01*
X114828679Y-90920000D01*
X114859671Y-90933540D01*
X115038757Y-90972915D01*
X115222079Y-90976755D01*
X115402657Y-90944914D01*
X115573610Y-90878606D01*
X115728429Y-90780355D01*
X115861215Y-90653904D01*
X115966911Y-90504070D01*
X116041492Y-90336560D01*
X116082116Y-90157754D01*
X116085040Y-89948319D01*
X116049425Y-89768448D01*
X115979550Y-89598920D01*
X115878079Y-89446193D01*
X115748875Y-89316084D01*
X115596860Y-89213549D01*
X115427825Y-89142493D01*
X115248207Y-89105623D01*
X115064849Y-89104343D01*
X114884733Y-89138701D01*
X114733013Y-89200000D01*
X113634838Y-89200000D01*
X113571450Y-89145975D01*
X113407763Y-89072190D01*
X113230000Y-89046928D01*
X112030000Y-89046928D01*
X111928879Y-89054992D01*
X111757366Y-89108106D01*
X111683854Y-89156547D01*
X111671450Y-89145975D01*
X111507763Y-89072190D01*
X111330000Y-89046928D01*
X110130000Y-89046928D01*
X110028879Y-89054992D01*
X109857366Y-89108106D01*
X109717912Y-89200000D01*
X105556224Y-89200000D01*
X104888112Y-88531888D01*
X104826732Y-88481470D01*
X104765872Y-88430402D01*
X104761907Y-88428222D01*
X104758414Y-88425353D01*
X104688392Y-88387807D01*
X104618790Y-88349544D01*
X104614482Y-88348178D01*
X104610494Y-88346039D01*
X104534513Y-88322810D01*
X104458804Y-88298793D01*
X104454308Y-88298289D01*
X104449985Y-88296967D01*
X104370945Y-88288938D01*
X104292007Y-88280084D01*
X104283171Y-88280022D01*
X104283002Y-88280005D01*
X104282844Y-88280020D01*
X104280000Y-88280000D01*
X103112096Y-88280000D01*
X102968177Y-88101000D01*
X102918349Y-88059189D01*
X103022634Y-88026894D01*
X103172559Y-87928100D01*
X103289025Y-87791450D01*
X103362810Y-87627763D01*
X103388072Y-87450000D01*
X103388072Y-85750000D01*
X103380008Y-85648879D01*
X103326894Y-85477366D01*
X103228100Y-85327441D01*
X103091450Y-85210975D01*
X102927763Y-85137190D01*
X102750000Y-85111928D01*
X101050000Y-85111928D01*
X100948879Y-85119992D01*
X100777366Y-85173106D01*
X100627441Y-85271900D01*
X100510975Y-85408550D01*
X100437198Y-85572220D01*
X100428177Y-85561000D01*
X100206161Y-85374706D01*
X99952189Y-85235084D01*
X99675934Y-85147451D01*
X99387919Y-85115145D01*
X99367185Y-85115000D01*
X99352815Y-85115000D01*
X99064377Y-85143282D01*
X98786925Y-85227049D01*
X98531029Y-85363112D01*
X98306433Y-85546287D01*
X98121694Y-85769599D01*
X97983848Y-86024539D01*
X97898146Y-86301399D01*
X97867851Y-86589633D01*
X96727000Y-86589633D01*
X96727000Y-82777696D01*
X97107502Y-83368120D01*
X97711680Y-83993764D01*
X98425873Y-84490141D01*
X99222878Y-84838344D01*
X100072338Y-85025110D01*
X100941895Y-85043325D01*
X101798430Y-84892294D01*
X102609317Y-84577772D01*
X103343670Y-84111738D01*
X103973517Y-83511942D01*
X104274163Y-83085750D01*
X105515000Y-83085750D01*
X105515000Y-83712542D01*
X105539403Y-83835223D01*
X105587270Y-83950785D01*
X105656763Y-84054789D01*
X105745211Y-84143237D01*
X105849215Y-84212730D01*
X105964777Y-84260597D01*
X106087458Y-84285000D01*
X106714250Y-84285000D01*
X106873000Y-84126250D01*
X106873000Y-82927000D01*
X107127000Y-82927000D01*
X107127000Y-84126250D01*
X107285750Y-84285000D01*
X107912542Y-84285000D01*
X108035223Y-84260597D01*
X108150785Y-84212730D01*
X108254789Y-84143237D01*
X108343237Y-84054789D01*
X108412730Y-83950785D01*
X108460597Y-83835223D01*
X108485000Y-83712542D01*
X108485000Y-83085750D01*
X108326250Y-82927000D01*
X107127000Y-82927000D01*
X106873000Y-82927000D01*
X105673750Y-82927000D01*
X105515000Y-83085750D01*
X104274163Y-83085750D01*
X104474869Y-82801232D01*
X104828627Y-82006677D01*
X105021318Y-81158542D01*
X105035190Y-80165126D01*
X104866255Y-79311942D01*
X104534820Y-78507819D01*
X104053508Y-77783387D01*
X103440654Y-77166239D01*
X102719600Y-76679882D01*
X101917811Y-76342841D01*
X101353477Y-76227000D01*
X125273000Y-76227000D01*
X125273000Y-76783649D01*
X125273000Y-76783649D01*
G37*
X125273000Y-76783649D02*
X125193713Y-76686433D01*
X124970401Y-76501694D01*
X124715461Y-76363848D01*
X124438601Y-76278146D01*
X124150367Y-76247851D01*
X123861739Y-76274118D01*
X123583709Y-76355947D01*
X123326869Y-76490220D01*
X123101000Y-76671823D01*
X123059189Y-76721651D01*
X123026894Y-76617366D01*
X122928100Y-76467441D01*
X122791450Y-76350975D01*
X122627763Y-76277190D01*
X122450000Y-76251928D01*
X120750000Y-76251928D01*
X120648879Y-76259992D01*
X120477366Y-76313106D01*
X120327441Y-76411900D01*
X120210975Y-76548550D01*
X120137190Y-76712237D01*
X120111928Y-76890000D01*
X120111928Y-78590000D01*
X120119992Y-78691121D01*
X120173106Y-78862634D01*
X120271900Y-79012559D01*
X120408550Y-79129025D01*
X120572237Y-79202810D01*
X120750000Y-79228072D01*
X122450000Y-79228072D01*
X122551121Y-79220008D01*
X122722634Y-79166894D01*
X122872559Y-79068100D01*
X122989025Y-78931450D01*
X123062810Y-78767763D01*
X123063171Y-78765224D01*
X123086287Y-78793567D01*
X123309599Y-78978306D01*
X123564539Y-79116152D01*
X123841399Y-79201854D01*
X123986655Y-79217121D01*
X123963776Y-79240000D01*
X118071290Y-79240000D01*
X118051894Y-79177366D01*
X118003453Y-79103854D01*
X118014025Y-79091450D01*
X118050740Y-79010000D01*
X118584535Y-79010000D01*
X118688757Y-79032915D01*
X118872079Y-79036755D01*
X119052657Y-79004914D01*
X119223610Y-78938606D01*
X119378429Y-78840355D01*
X119511215Y-78713904D01*
X119616911Y-78564070D01*
X119691492Y-78396560D01*
X119732116Y-78217754D01*
X119735040Y-78008319D01*
X119699425Y-77828448D01*
X119629550Y-77658920D01*
X119528079Y-77506193D01*
X119398875Y-77376084D01*
X119246860Y-77273549D01*
X119077825Y-77202493D01*
X118898207Y-77165623D01*
X118714849Y-77164343D01*
X118534733Y-77198701D01*
X118364722Y-77267390D01*
X118330170Y-77290000D01*
X118055806Y-77290000D01*
X118051894Y-77277366D01*
X117953100Y-77127441D01*
X117816450Y-77010975D01*
X117652763Y-76937190D01*
X117475000Y-76911928D01*
X116725000Y-76911928D01*
X116623879Y-76919992D01*
X116452366Y-76973106D01*
X116302441Y-77071900D01*
X116185975Y-77208550D01*
X116149260Y-77290000D01*
X115555806Y-77290000D01*
X115551894Y-77277366D01*
X115453100Y-77127441D01*
X115316450Y-77010975D01*
X115152763Y-76937190D01*
X114975000Y-76911928D01*
X114225000Y-76911928D01*
X114123879Y-76919992D01*
X113952366Y-76973106D01*
X113802441Y-77071900D01*
X113685975Y-77208550D01*
X113612190Y-77372237D01*
X113586928Y-77550000D01*
X113586928Y-78750000D01*
X113594992Y-78851121D01*
X113648106Y-79022634D01*
X113697134Y-79097037D01*
X113662270Y-79149215D01*
X113614403Y-79264777D01*
X113590000Y-79387458D01*
X113590000Y-79764250D01*
X113748750Y-79923000D01*
X114473000Y-79923000D01*
X114473000Y-79903000D01*
X114727000Y-79903000D01*
X114727000Y-79923000D01*
X115451250Y-79923000D01*
X115610000Y-79764250D01*
X115610000Y-79387458D01*
X115585597Y-79264777D01*
X115537730Y-79149215D01*
X115505677Y-79101244D01*
X115514025Y-79091450D01*
X115550740Y-79010000D01*
X116144194Y-79010000D01*
X116148106Y-79022634D01*
X116196547Y-79096146D01*
X116185975Y-79108550D01*
X116112190Y-79272237D01*
X116086928Y-79450000D01*
X116086928Y-80650000D01*
X116094992Y-80751121D01*
X116148106Y-80922634D01*
X116246900Y-81072559D01*
X116383550Y-81189025D01*
X116547237Y-81262810D01*
X116725000Y-81288072D01*
X117475000Y-81288072D01*
X117576121Y-81280008D01*
X117747634Y-81226894D01*
X117897559Y-81128100D01*
X118014025Y-80991450D01*
X118028202Y-80960000D01*
X124320000Y-80960000D01*
X124399008Y-80952253D01*
X124478198Y-80945325D01*
X124482546Y-80944062D01*
X124487042Y-80943621D01*
X124563073Y-80920666D01*
X124639376Y-80898498D01*
X124643389Y-80896418D01*
X124647721Y-80895110D01*
X124717862Y-80857815D01*
X124788390Y-80821257D01*
X124791927Y-80818434D01*
X124795917Y-80816312D01*
X124857457Y-80766121D01*
X124919562Y-80716543D01*
X124925858Y-80710334D01*
X124925985Y-80710231D01*
X124926082Y-80710114D01*
X124928112Y-80708112D01*
X125273000Y-80363224D01*
X125273000Y-81840000D01*
X120083997Y-81840000D01*
X120077763Y-81837190D01*
X119900000Y-81811928D01*
X118500000Y-81811928D01*
X118398879Y-81819992D01*
X118227366Y-81873106D01*
X118077441Y-81971900D01*
X117960975Y-82108550D01*
X117887190Y-82272237D01*
X117861928Y-82450000D01*
X117861928Y-82750000D01*
X117869992Y-82851121D01*
X117874096Y-82864374D01*
X117861928Y-82950000D01*
X117861928Y-83250000D01*
X117869992Y-83351121D01*
X117871353Y-83355517D01*
X117868519Y-83369769D01*
X117879018Y-83380268D01*
X117923106Y-83522634D01*
X117971547Y-83596146D01*
X117960975Y-83608550D01*
X117887190Y-83772237D01*
X117880676Y-83818074D01*
X117868519Y-83830231D01*
X117874602Y-83860815D01*
X117861928Y-83950000D01*
X117861928Y-84250000D01*
X117869105Y-84340000D01*
X117414802Y-84340000D01*
X117137401Y-84062599D01*
X117083145Y-84018032D01*
X117029375Y-83972914D01*
X117025874Y-83970989D01*
X117022785Y-83968452D01*
X116960933Y-83935287D01*
X116899396Y-83901457D01*
X116895584Y-83900248D01*
X116892065Y-83898361D01*
X116824969Y-83877848D01*
X116758013Y-83856608D01*
X116754041Y-83856162D01*
X116750219Y-83854994D01*
X116680351Y-83847897D01*
X116610611Y-83840074D01*
X116602806Y-83840020D01*
X116602653Y-83840004D01*
X116602510Y-83840018D01*
X116600000Y-83840000D01*
X116127258Y-83840000D01*
X116125904Y-83835626D01*
X116126170Y-83833750D01*
X117865000Y-83833750D01*
X117868519Y-83830231D01*
X117865000Y-83812542D01*
X117865000Y-83833750D01*
X116126170Y-83833750D01*
X116138072Y-83750000D01*
X116138072Y-83450000D01*
X116133085Y-83387458D01*
X117865000Y-83387458D01*
X117868519Y-83369769D01*
X117865000Y-83366250D01*
X117865000Y-83387458D01*
X116133085Y-83387458D01*
X116130008Y-83348879D01*
X116125904Y-83335626D01*
X116138072Y-83250000D01*
X116138072Y-82950000D01*
X116130008Y-82848879D01*
X116125904Y-82835626D01*
X116138072Y-82750000D01*
X116138072Y-82450000D01*
X116130008Y-82348879D01*
X116076894Y-82177366D01*
X115978100Y-82027441D01*
X115841450Y-81910975D01*
X115677763Y-81837190D01*
X115500000Y-81811928D01*
X114100000Y-81811928D01*
X113998879Y-81819992D01*
X113934270Y-81840000D01*
X112914802Y-81840000D01*
X111410552Y-80335750D01*
X113590000Y-80335750D01*
X113590000Y-80712542D01*
X113614403Y-80835223D01*
X113662270Y-80950785D01*
X113731763Y-81054789D01*
X113820211Y-81143237D01*
X113924215Y-81212730D01*
X114039777Y-81260597D01*
X114162458Y-81285000D01*
X114314250Y-81285000D01*
X114473000Y-81126250D01*
X114473000Y-80177000D01*
X114727000Y-80177000D01*
X114727000Y-81126250D01*
X114885750Y-81285000D01*
X115037542Y-81285000D01*
X115160223Y-81260597D01*
X115275785Y-81212730D01*
X115379789Y-81143237D01*
X115468237Y-81054789D01*
X115537730Y-80950785D01*
X115585597Y-80835223D01*
X115610000Y-80712542D01*
X115610000Y-80335750D01*
X115451250Y-80177000D01*
X114727000Y-80177000D01*
X114473000Y-80177000D01*
X113748750Y-80177000D01*
X113590000Y-80335750D01*
X111410552Y-80335750D01*
X110797401Y-79722599D01*
X110743145Y-79678032D01*
X110689375Y-79632914D01*
X110685874Y-79630989D01*
X110682785Y-79628452D01*
X110620933Y-79595287D01*
X110559396Y-79561457D01*
X110555584Y-79560248D01*
X110552065Y-79558361D01*
X110484969Y-79537848D01*
X110418013Y-79516608D01*
X110414041Y-79516162D01*
X110410219Y-79514994D01*
X110340351Y-79507897D01*
X110270611Y-79500074D01*
X110262806Y-79500020D01*
X110262653Y-79500004D01*
X110262510Y-79500018D01*
X110260000Y-79500000D01*
X108277556Y-79500000D01*
X108249780Y-79446869D01*
X108068177Y-79221000D01*
X107846161Y-79034706D01*
X107765753Y-78990502D01*
X107828971Y-78956888D01*
X108053567Y-78773713D01*
X108238306Y-78550401D01*
X108376152Y-78295461D01*
X108461854Y-78018601D01*
X108492149Y-77730367D01*
X108465882Y-77441739D01*
X108384053Y-77163709D01*
X108249780Y-76906869D01*
X108068177Y-76681000D01*
X107846161Y-76494706D01*
X107592189Y-76355084D01*
X107315934Y-76267451D01*
X107027919Y-76235145D01*
X107007185Y-76235000D01*
X106992815Y-76235000D01*
X106704377Y-76263282D01*
X106426925Y-76347049D01*
X106171029Y-76483112D01*
X105946433Y-76666287D01*
X105761694Y-76889599D01*
X105623848Y-77144539D01*
X105538146Y-77421399D01*
X105507851Y-77709633D01*
X105534118Y-77998261D01*
X105615947Y-78276291D01*
X105750220Y-78533131D01*
X105931823Y-78759000D01*
X106153839Y-78945294D01*
X106234247Y-78989498D01*
X106171029Y-79023112D01*
X105946433Y-79206287D01*
X105761694Y-79429599D01*
X105623848Y-79684539D01*
X105538146Y-79961399D01*
X105507851Y-80249633D01*
X105534118Y-80538261D01*
X105615947Y-80816291D01*
X105750220Y-81073131D01*
X105931823Y-81299000D01*
X105977061Y-81336959D01*
X105964777Y-81339403D01*
X105849215Y-81387270D01*
X105745211Y-81456763D01*
X105656763Y-81545211D01*
X105587270Y-81649215D01*
X105539403Y-81764777D01*
X105515000Y-81887458D01*
X105515000Y-82514250D01*
X105673750Y-82673000D01*
X106873000Y-82673000D01*
X106873000Y-82653000D01*
X107127000Y-82653000D01*
X107127000Y-82673000D01*
X108326250Y-82673000D01*
X108485000Y-82514250D01*
X108485000Y-81887458D01*
X108460597Y-81764777D01*
X108412730Y-81649215D01*
X108343237Y-81545211D01*
X108254789Y-81456763D01*
X108150785Y-81387270D01*
X108035223Y-81339403D01*
X108024647Y-81337299D01*
X108053567Y-81313713D01*
X108238306Y-81090401D01*
X108276372Y-81020000D01*
X109945198Y-81020000D01*
X111954487Y-83029289D01*
X110951410Y-84032366D01*
X110864722Y-84067390D01*
X110711291Y-84167793D01*
X110580283Y-84296086D01*
X110476689Y-84447381D01*
X110404454Y-84615916D01*
X110366331Y-84795272D01*
X110363771Y-84978617D01*
X110396872Y-85158968D01*
X110464372Y-85329454D01*
X110563701Y-85483583D01*
X110691076Y-85615484D01*
X110841644Y-85720131D01*
X111009671Y-85793540D01*
X111188757Y-85832915D01*
X111372079Y-85836755D01*
X111552657Y-85804914D01*
X111723610Y-85738606D01*
X111878429Y-85640355D01*
X112011215Y-85513904D01*
X112098010Y-85390864D01*
X112130299Y-85451591D01*
X112162610Y-85513925D01*
X112165103Y-85517048D01*
X112166980Y-85520578D01*
X112211355Y-85574987D01*
X112255148Y-85629846D01*
X112260631Y-85635406D01*
X112260726Y-85635522D01*
X112260834Y-85635611D01*
X112262599Y-85637401D01*
X112762599Y-86137401D01*
X112816855Y-86181968D01*
X112870625Y-86227086D01*
X112874126Y-86229011D01*
X112877215Y-86231548D01*
X112939102Y-86264732D01*
X113000604Y-86298543D01*
X113004412Y-86299751D01*
X113007935Y-86301640D01*
X113075077Y-86322167D01*
X113141987Y-86343392D01*
X113145959Y-86343838D01*
X113149781Y-86345006D01*
X113219649Y-86352103D01*
X113289389Y-86359926D01*
X113297194Y-86359980D01*
X113297347Y-86359996D01*
X113297490Y-86359982D01*
X113300000Y-86360000D01*
X125273000Y-86360000D01*
X125273000Y-103740000D01*
X123552486Y-103740000D01*
X123508875Y-103696084D01*
X123356860Y-103593549D01*
X123187825Y-103522493D01*
X123008207Y-103485623D01*
X122824849Y-103484343D01*
X122644733Y-103518701D01*
X122474722Y-103587390D01*
X122321291Y-103687793D01*
X122190283Y-103816086D01*
X122086689Y-103967381D01*
X122014454Y-104135916D01*
X121983458Y-104281740D01*
X119492599Y-106772599D01*
X119448032Y-106826855D01*
X119402914Y-106880625D01*
X119400989Y-106884126D01*
X119398452Y-106887215D01*
X119365287Y-106949067D01*
X119331457Y-107010604D01*
X119330248Y-107014416D01*
X119328361Y-107017935D01*
X119307848Y-107085031D01*
X119286608Y-107151987D01*
X119286162Y-107155959D01*
X119284994Y-107159781D01*
X119277897Y-107229649D01*
X119270074Y-107299389D01*
X119270020Y-107307194D01*
X119270004Y-107307347D01*
X119270018Y-107307490D01*
X119270000Y-107310000D01*
X119270000Y-115225198D01*
X118662599Y-115832599D01*
X118618032Y-115886855D01*
X118572914Y-115940625D01*
X118570989Y-115944126D01*
X118568452Y-115947215D01*
X118535287Y-116009067D01*
X118501457Y-116070604D01*
X118500248Y-116074416D01*
X118498361Y-116077935D01*
X118477848Y-116145031D01*
X118456608Y-116211987D01*
X118456162Y-116215959D01*
X118454994Y-116219781D01*
X118447897Y-116289649D01*
X118440074Y-116359389D01*
X118440020Y-116367194D01*
X118440004Y-116367347D01*
X118440018Y-116367490D01*
X118440000Y-116370000D01*
X118440000Y-117445197D01*
X117257401Y-116262599D01*
X117203145Y-116218032D01*
X117149375Y-116172914D01*
X117145874Y-116170989D01*
X117142785Y-116168452D01*
X117080933Y-116135287D01*
X117019396Y-116101457D01*
X117015584Y-116100248D01*
X117012065Y-116098361D01*
X116944969Y-116077848D01*
X116878013Y-116056608D01*
X116874041Y-116056162D01*
X116870219Y-116054994D01*
X116800351Y-116047897D01*
X116730611Y-116040074D01*
X116722806Y-116040020D01*
X116722653Y-116040004D01*
X116722510Y-116040018D01*
X116720000Y-116040000D01*
X113700000Y-116040000D01*
X113630123Y-116046851D01*
X113560197Y-116052969D01*
X113556359Y-116054084D01*
X113552382Y-116054474D01*
X113485179Y-116074764D01*
X113417760Y-116094351D01*
X113414212Y-116096190D01*
X113410387Y-116097345D01*
X113348390Y-116130309D01*
X113286074Y-116162611D01*
X113282953Y-116165103D01*
X113279422Y-116166980D01*
X113225007Y-116211359D01*
X113170154Y-116255148D01*
X113164594Y-116260631D01*
X113164478Y-116260726D01*
X113164389Y-116260834D01*
X113162599Y-116262599D01*
X109245198Y-120180000D01*
X108277556Y-120180000D01*
X108249780Y-120126869D01*
X108068177Y-119901000D01*
X108018349Y-119859189D01*
X108122634Y-119826894D01*
X108272559Y-119728100D01*
X108389025Y-119591450D01*
X108462810Y-119427763D01*
X108488072Y-119250000D01*
X108488072Y-117550000D01*
X108480008Y-117448879D01*
X108426894Y-117277366D01*
X108328100Y-117127441D01*
X108191450Y-117010975D01*
X108027763Y-116937190D01*
X107850000Y-116911928D01*
X106150000Y-116911928D01*
X106048879Y-116919992D01*
X105877366Y-116973106D01*
X105727441Y-117071900D01*
X105610975Y-117208550D01*
X105537190Y-117372237D01*
X105511928Y-117550000D01*
X105511928Y-119250000D01*
X105519992Y-119351121D01*
X105573106Y-119522634D01*
X105671900Y-119672559D01*
X105808550Y-119789025D01*
X105972237Y-119862810D01*
X105974776Y-119863171D01*
X105946433Y-119886287D01*
X105761694Y-120109599D01*
X105623848Y-120364539D01*
X105538146Y-120641399D01*
X105507851Y-120929633D01*
X105534118Y-121218261D01*
X105615947Y-121496291D01*
X105750220Y-121753131D01*
X105931823Y-121979000D01*
X106153839Y-122165294D01*
X106239889Y-122212600D01*
X106118645Y-122284822D01*
X105902412Y-122479731D01*
X105728359Y-122713080D01*
X105603175Y-122975901D01*
X105558524Y-123123110D01*
X105679845Y-123353000D01*
X106873000Y-123353000D01*
X106873000Y-123333000D01*
X107127000Y-123333000D01*
X107127000Y-123353000D01*
X108320155Y-123353000D01*
X108441476Y-123123110D01*
X108396825Y-122975901D01*
X108271641Y-122713080D01*
X108097588Y-122479731D01*
X107881355Y-122284822D01*
X107760910Y-122213077D01*
X107828971Y-122176888D01*
X108053567Y-121993713D01*
X108238306Y-121770401D01*
X108276372Y-121700000D01*
X109560000Y-121700000D01*
X109629877Y-121693149D01*
X109699803Y-121687031D01*
X109703641Y-121685916D01*
X109707618Y-121685526D01*
X109774821Y-121665236D01*
X109842240Y-121645649D01*
X109845788Y-121643810D01*
X109849613Y-121642655D01*
X109911591Y-121609701D01*
X109973925Y-121577390D01*
X109977048Y-121574897D01*
X109980578Y-121573020D01*
X110034987Y-121528645D01*
X110089846Y-121484852D01*
X110095406Y-121479369D01*
X110095522Y-121479274D01*
X110095611Y-121479166D01*
X110097401Y-121477401D01*
X110589052Y-120985750D01*
X114015000Y-120985750D01*
X114015000Y-121362542D01*
X114039403Y-121485223D01*
X114087270Y-121600785D01*
X114156763Y-121704789D01*
X114245211Y-121793237D01*
X114349215Y-121862730D01*
X114464777Y-121910597D01*
X114587458Y-121935000D01*
X114814250Y-121935000D01*
X114973000Y-121776250D01*
X114973000Y-120827000D01*
X114173750Y-120827000D01*
X114015000Y-120985750D01*
X110589052Y-120985750D01*
X114014802Y-117560000D01*
X114110321Y-117560000D01*
X114037190Y-117722237D01*
X114011928Y-117900000D01*
X114011928Y-119100000D01*
X114019992Y-119201121D01*
X114073106Y-119372634D01*
X114171900Y-119522559D01*
X114259497Y-119597217D01*
X114245211Y-119606763D01*
X114156763Y-119695211D01*
X114087270Y-119799215D01*
X114039403Y-119914777D01*
X114015000Y-120037458D01*
X114015000Y-120414250D01*
X114173750Y-120573000D01*
X114973000Y-120573000D01*
X114973000Y-120553000D01*
X115227000Y-120553000D01*
X115227000Y-120573000D01*
X115247000Y-120573000D01*
X115247000Y-120827000D01*
X115227000Y-120827000D01*
X115227000Y-121776250D01*
X115385750Y-121935000D01*
X115612542Y-121935000D01*
X115735223Y-121910597D01*
X115850785Y-121862730D01*
X115954789Y-121793237D01*
X116043237Y-121704789D01*
X116112730Y-121600785D01*
X116160597Y-121485223D01*
X116185000Y-121362542D01*
X116185000Y-121209192D01*
X116191076Y-121215484D01*
X116341644Y-121320131D01*
X116509671Y-121393540D01*
X116688757Y-121432915D01*
X116872079Y-121436755D01*
X117052657Y-121404914D01*
X117168453Y-121360000D01*
X118116174Y-121360000D01*
X118222237Y-121407810D01*
X118400000Y-121433072D01*
X118800000Y-121433072D01*
X118901121Y-121425008D01*
X118914374Y-121420904D01*
X119000000Y-121433072D01*
X119400000Y-121433072D01*
X119501121Y-121425008D01*
X119505517Y-121423647D01*
X119537458Y-121430000D01*
X119541250Y-121430000D01*
X119566483Y-121404767D01*
X119672634Y-121371894D01*
X119822559Y-121273100D01*
X119900000Y-121182238D01*
X119900000Y-121271250D01*
X120058750Y-121430000D01*
X120062542Y-121430000D01*
X120185223Y-121405597D01*
X120300785Y-121357730D01*
X120404789Y-121288237D01*
X120493237Y-121199789D01*
X120562730Y-121095785D01*
X120610597Y-120980223D01*
X120635000Y-120857542D01*
X120635000Y-120805750D01*
X120546546Y-120717296D01*
X120580223Y-120710597D01*
X120695785Y-120662730D01*
X120799789Y-120593237D01*
X120857276Y-120535750D01*
X122290000Y-120535750D01*
X122290000Y-120912542D01*
X122314403Y-121035223D01*
X122362270Y-121150785D01*
X122431763Y-121254789D01*
X122520211Y-121343237D01*
X122624215Y-121412730D01*
X122739777Y-121460597D01*
X122862458Y-121485000D01*
X123014250Y-121485000D01*
X123173000Y-121326250D01*
X123173000Y-120377000D01*
X123427000Y-120377000D01*
X123427000Y-121326250D01*
X123585750Y-121485000D01*
X123737542Y-121485000D01*
X123860223Y-121460597D01*
X123975785Y-121412730D01*
X124079789Y-121343237D01*
X124168237Y-121254789D01*
X124237730Y-121150785D01*
X124285597Y-121035223D01*
X124310000Y-120912542D01*
X124310000Y-120535750D01*
X124151250Y-120377000D01*
X123427000Y-120377000D01*
X123173000Y-120377000D01*
X122448750Y-120377000D01*
X122290000Y-120535750D01*
X120857276Y-120535750D01*
X120888237Y-120504789D01*
X120957730Y-120400785D01*
X121005597Y-120285223D01*
X121030000Y-120162542D01*
X121030000Y-120158750D01*
X120871250Y-120000000D01*
X120784325Y-120000000D01*
X120817559Y-119978100D01*
X120934025Y-119841450D01*
X121007810Y-119677763D01*
X121010183Y-119661067D01*
X121030000Y-119641250D01*
X121030000Y-119637458D01*
X121020398Y-119589185D01*
X121027816Y-119536986D01*
X121847401Y-118717401D01*
X121891968Y-118663145D01*
X121937086Y-118609375D01*
X121939011Y-118605874D01*
X121941548Y-118602785D01*
X121974713Y-118540933D01*
X122008543Y-118479396D01*
X122009752Y-118475584D01*
X122011639Y-118472065D01*
X122032152Y-118404969D01*
X122053392Y-118338013D01*
X122053838Y-118334041D01*
X122055006Y-118330219D01*
X122062098Y-118260395D01*
X122069926Y-118190611D01*
X122069981Y-118182796D01*
X122069995Y-118182653D01*
X122069982Y-118182520D01*
X122070000Y-118180000D01*
X122070000Y-117750000D01*
X122286928Y-117750000D01*
X122286928Y-118950000D01*
X122294992Y-119051121D01*
X122348106Y-119222634D01*
X122397134Y-119297037D01*
X122362270Y-119349215D01*
X122314403Y-119464777D01*
X122290000Y-119587458D01*
X122290000Y-119964250D01*
X122448750Y-120123000D01*
X123173000Y-120123000D01*
X123173000Y-120103000D01*
X123427000Y-120103000D01*
X123427000Y-120123000D01*
X124151250Y-120123000D01*
X124310000Y-119964250D01*
X124310000Y-119587458D01*
X124285597Y-119464777D01*
X124237730Y-119349215D01*
X124205677Y-119301244D01*
X124214025Y-119291450D01*
X124287810Y-119127763D01*
X124313072Y-118950000D01*
X124313072Y-117750000D01*
X124305008Y-117648879D01*
X124251894Y-117477366D01*
X124160000Y-117337912D01*
X124160000Y-116467291D01*
X124191492Y-116396560D01*
X124232116Y-116217754D01*
X124235040Y-116008319D01*
X124199425Y-115828448D01*
X124129550Y-115658920D01*
X124028079Y-115506193D01*
X123898875Y-115376084D01*
X123746860Y-115273549D01*
X123577825Y-115202493D01*
X123398207Y-115165623D01*
X123214849Y-115164343D01*
X123034733Y-115198701D01*
X122864722Y-115267390D01*
X122711291Y-115367793D01*
X122580283Y-115496086D01*
X122476689Y-115647381D01*
X122404454Y-115815916D01*
X122366331Y-115995272D01*
X122363771Y-116178617D01*
X122396872Y-116358968D01*
X122440000Y-116467897D01*
X122440000Y-117345162D01*
X122385975Y-117408550D01*
X122312190Y-117572237D01*
X122286928Y-117750000D01*
X122070000Y-117750000D01*
X122070000Y-108814802D01*
X122985747Y-107899055D01*
X123122657Y-107874914D01*
X123293610Y-107808606D01*
X123370201Y-107760000D01*
X125273000Y-107760000D01*
X125273000Y-124973000D01*
X101340726Y-124973000D01*
X101798430Y-124892294D01*
X102609317Y-124577772D01*
X103343670Y-124111738D01*
X103632288Y-123836890D01*
X105558524Y-123836890D01*
X105603175Y-123984099D01*
X105728359Y-124246920D01*
X105902412Y-124480269D01*
X106118645Y-124675178D01*
X106368748Y-124824157D01*
X106643109Y-124921481D01*
X106873000Y-124800814D01*
X106873000Y-123607000D01*
X107127000Y-123607000D01*
X107127000Y-124800814D01*
X107356891Y-124921481D01*
X107631252Y-124824157D01*
X107881355Y-124675178D01*
X108097588Y-124480269D01*
X108271641Y-124246920D01*
X108396825Y-123984099D01*
X108441476Y-123836890D01*
X108320155Y-123607000D01*
X107127000Y-123607000D01*
X106873000Y-123607000D01*
X105679845Y-123607000D01*
X105558524Y-123836890D01*
X103632288Y-123836890D01*
X103973517Y-123511942D01*
X104474869Y-122801232D01*
X104828627Y-122006677D01*
X105021318Y-121158542D01*
X105035190Y-120165126D01*
X104866255Y-119311942D01*
X104534820Y-118507819D01*
X104053508Y-117783387D01*
X103440654Y-117166239D01*
X102719600Y-116679882D01*
X101917811Y-116342841D01*
X101065827Y-116167954D01*
X100196100Y-116161882D01*
X99341757Y-116324857D01*
X98535340Y-116650670D01*
X97807566Y-117126912D01*
X97186154Y-117735443D01*
X96727000Y-118406022D01*
X96727000Y-94209633D01*
X97867851Y-94209633D01*
X97894118Y-94498261D01*
X97975947Y-94776291D01*
X98110220Y-95033131D01*
X98291823Y-95259000D01*
X98513839Y-95445294D01*
X98594247Y-95489498D01*
X98531029Y-95523112D01*
X98306433Y-95706287D01*
X98121694Y-95929599D01*
X97983848Y-96184539D01*
X97898146Y-96461399D01*
X97867851Y-96749633D01*
X97894118Y-97038261D01*
X97975947Y-97316291D01*
X98110220Y-97573131D01*
X98291823Y-97799000D01*
X98513839Y-97985294D01*
X98594247Y-98029498D01*
X98531029Y-98063112D01*
X98306433Y-98246287D01*
X98121694Y-98469599D01*
X97983848Y-98724539D01*
X97898146Y-99001399D01*
X97867851Y-99289633D01*
X97894118Y-99578261D01*
X97975947Y-99856291D01*
X98110220Y-100113131D01*
X98291823Y-100339000D01*
X98513839Y-100525294D01*
X98594247Y-100569498D01*
X98531029Y-100603112D01*
X98306433Y-100786287D01*
X98121694Y-101009599D01*
X97983848Y-101264539D01*
X97898146Y-101541399D01*
X97867851Y-101829633D01*
X97894118Y-102118261D01*
X97975947Y-102396291D01*
X98110220Y-102653131D01*
X98291823Y-102879000D01*
X98513839Y-103065294D01*
X98594247Y-103109498D01*
X98531029Y-103143112D01*
X98306433Y-103326287D01*
X98121694Y-103549599D01*
X97983848Y-103804539D01*
X97898146Y-104081399D01*
X97867851Y-104369633D01*
X97894118Y-104658261D01*
X97975947Y-104936291D01*
X98110220Y-105193131D01*
X98291823Y-105419000D01*
X98513839Y-105605294D01*
X98594247Y-105649498D01*
X98531029Y-105683112D01*
X98306433Y-105866287D01*
X98121694Y-106089599D01*
X97983848Y-106344539D01*
X97898146Y-106621399D01*
X97867851Y-106909633D01*
X97894118Y-107198261D01*
X97975947Y-107476291D01*
X98110220Y-107733131D01*
X98291823Y-107959000D01*
X98513839Y-108145294D01*
X98594247Y-108189498D01*
X98531029Y-108223112D01*
X98306433Y-108406287D01*
X98121694Y-108629599D01*
X97983848Y-108884539D01*
X97898146Y-109161399D01*
X97867851Y-109449633D01*
X97894118Y-109738261D01*
X97975947Y-110016291D01*
X98110220Y-110273131D01*
X98291823Y-110499000D01*
X98513839Y-110685294D01*
X98594247Y-110729498D01*
X98531029Y-110763112D01*
X98306433Y-110946287D01*
X98121694Y-111169599D01*
X97983848Y-111424539D01*
X97898146Y-111701399D01*
X97867851Y-111989633D01*
X97894118Y-112278261D01*
X97975947Y-112556291D01*
X98110220Y-112813131D01*
X98291823Y-113039000D01*
X98513839Y-113225294D01*
X98594247Y-113269498D01*
X98531029Y-113303112D01*
X98306433Y-113486287D01*
X98121694Y-113709599D01*
X97983848Y-113964539D01*
X97898146Y-114241399D01*
X97867851Y-114529633D01*
X97894118Y-114818261D01*
X97975947Y-115096291D01*
X98110220Y-115353131D01*
X98291823Y-115579000D01*
X98513839Y-115765294D01*
X98767811Y-115904916D01*
X99044066Y-115992549D01*
X99332081Y-116024855D01*
X99352815Y-116025000D01*
X99367185Y-116025000D01*
X99655623Y-115996718D01*
X99933075Y-115912951D01*
X100188971Y-115776888D01*
X100413567Y-115593713D01*
X100598306Y-115370401D01*
X100629290Y-115313097D01*
X100650220Y-115353131D01*
X100831823Y-115579000D01*
X101053839Y-115765294D01*
X101307811Y-115904916D01*
X101584066Y-115992549D01*
X101872081Y-116024855D01*
X101892815Y-116025000D01*
X101907185Y-116025000D01*
X102195623Y-115996718D01*
X102473075Y-115912951D01*
X102728971Y-115776888D01*
X102953567Y-115593713D01*
X103138306Y-115370401D01*
X103276152Y-115115461D01*
X103361854Y-114838601D01*
X103392149Y-114550367D01*
X103365882Y-114261739D01*
X103284053Y-113983709D01*
X103149780Y-113726869D01*
X102968177Y-113501000D01*
X102746161Y-113314706D01*
X102665753Y-113270502D01*
X102728971Y-113236888D01*
X102953567Y-113053713D01*
X103138306Y-112830401D01*
X103276152Y-112575461D01*
X103361854Y-112298601D01*
X103392149Y-112010367D01*
X103365882Y-111721739D01*
X103284053Y-111443709D01*
X103149780Y-111186869D01*
X102968177Y-110961000D01*
X102746161Y-110774706D01*
X102665753Y-110730502D01*
X102728971Y-110696888D01*
X102953567Y-110513713D01*
X103138306Y-110290401D01*
X103276152Y-110035461D01*
X103361854Y-109758601D01*
X103392149Y-109470367D01*
X103365882Y-109181739D01*
X103284053Y-108903709D01*
X103149780Y-108646869D01*
X102968177Y-108421000D01*
X102746161Y-108234706D01*
X102665753Y-108190502D01*
X102728971Y-108156888D01*
X102953567Y-107973713D01*
X103138306Y-107750401D01*
X103276152Y-107495461D01*
X103361854Y-107218601D01*
X103392149Y-106930367D01*
X103365882Y-106641739D01*
X103284053Y-106363709D01*
X103149780Y-106106869D01*
X102968177Y-105881000D01*
X102746161Y-105694706D01*
X102665753Y-105650502D01*
X102728971Y-105616888D01*
X102953567Y-105433713D01*
X103138306Y-105210401D01*
X103276152Y-104955461D01*
X103347259Y-104725750D01*
X108745000Y-104725750D01*
X108745000Y-105302542D01*
X108769403Y-105425223D01*
X108817270Y-105540785D01*
X108886763Y-105644789D01*
X108975211Y-105733237D01*
X109079215Y-105802730D01*
X109194777Y-105850597D01*
X109317458Y-105875000D01*
X110594250Y-105875000D01*
X110753000Y-105716250D01*
X110753000Y-104567000D01*
X111007000Y-104567000D01*
X111007000Y-105716250D01*
X111165750Y-105875000D01*
X112442542Y-105875000D01*
X112565223Y-105850597D01*
X112680785Y-105802730D01*
X112784789Y-105733237D01*
X112873237Y-105644789D01*
X112942730Y-105540785D01*
X112990597Y-105425223D01*
X113015000Y-105302542D01*
X113015000Y-104725750D01*
X112856250Y-104567000D01*
X111007000Y-104567000D01*
X110753000Y-104567000D01*
X108903750Y-104567000D01*
X108745000Y-104725750D01*
X103347259Y-104725750D01*
X103361854Y-104678601D01*
X103392149Y-104390367D01*
X103365882Y-104101739D01*
X103284053Y-103823709D01*
X103155316Y-103577458D01*
X108745000Y-103577458D01*
X108745000Y-104154250D01*
X108903750Y-104313000D01*
X110753000Y-104313000D01*
X110753000Y-103163750D01*
X111007000Y-103163750D01*
X111007000Y-104313000D01*
X112856250Y-104313000D01*
X113015000Y-104154250D01*
X113015000Y-103640000D01*
X113141928Y-103640000D01*
X113141928Y-105240000D01*
X113149992Y-105341121D01*
X113203106Y-105512634D01*
X113301900Y-105662559D01*
X113438550Y-105779025D01*
X113602237Y-105852810D01*
X113780000Y-105878072D01*
X116780000Y-105878072D01*
X116881121Y-105870008D01*
X117052634Y-105816894D01*
X117202559Y-105718100D01*
X117319025Y-105581450D01*
X117392810Y-105417763D01*
X117418072Y-105240000D01*
X117418072Y-104718152D01*
X119038475Y-103097749D01*
X119113610Y-103068606D01*
X119268429Y-102970355D01*
X119401215Y-102843904D01*
X119506911Y-102694070D01*
X119581492Y-102526560D01*
X119622116Y-102347754D01*
X119625040Y-102138319D01*
X119589425Y-101958448D01*
X119519550Y-101788920D01*
X119418079Y-101636193D01*
X119288875Y-101506084D01*
X119136860Y-101403549D01*
X118967825Y-101332493D01*
X118788207Y-101295623D01*
X118604849Y-101294343D01*
X118424733Y-101328701D01*
X118254722Y-101397390D01*
X118101291Y-101497793D01*
X117970283Y-101626086D01*
X117866689Y-101777381D01*
X117821903Y-101881873D01*
X116701848Y-103001928D01*
X113780000Y-103001928D01*
X113678879Y-103009992D01*
X113507366Y-103063106D01*
X113357441Y-103161900D01*
X113240975Y-103298550D01*
X113167190Y-103462237D01*
X113141928Y-103640000D01*
X113015000Y-103640000D01*
X113015000Y-103577458D01*
X112990597Y-103454777D01*
X112942730Y-103339215D01*
X112873237Y-103235211D01*
X112784789Y-103146763D01*
X112680785Y-103077270D01*
X112565223Y-103029403D01*
X112442542Y-103005000D01*
X111165750Y-103005000D01*
X111007000Y-103163750D01*
X110753000Y-103163750D01*
X110594250Y-103005000D01*
X109317458Y-103005000D01*
X109194777Y-103029403D01*
X109079215Y-103077270D01*
X108975211Y-103146763D01*
X108886763Y-103235211D01*
X108817270Y-103339215D01*
X108769403Y-103454777D01*
X108745000Y-103577458D01*
X103155316Y-103577458D01*
X103149780Y-103566869D01*
X102968177Y-103341000D01*
X102746161Y-103154706D01*
X102665753Y-103110502D01*
X102728971Y-103076888D01*
X102953567Y-102893713D01*
X103138306Y-102670401D01*
X103276152Y-102415461D01*
X103361854Y-102138601D01*
X103392149Y-101850367D01*
X103365882Y-101561739D01*
X103284053Y-101283709D01*
X103149780Y-101026869D01*
X102968177Y-100801000D01*
X102746161Y-100614706D01*
X102665753Y-100570502D01*
X102728971Y-100536888D01*
X102953567Y-100353713D01*
X103138306Y-100130401D01*
X103276152Y-99875461D01*
X103361854Y-99598601D01*
X103392149Y-99310367D01*
X103365882Y-99021739D01*
X103284053Y-98743709D01*
X103149780Y-98486869D01*
X102968177Y-98261000D01*
X102746161Y-98074706D01*
X102665753Y-98030502D01*
X102728971Y-97996888D01*
X102953567Y-97813713D01*
X103138306Y-97590401D01*
X103276152Y-97335461D01*
X103361854Y-97058601D01*
X103392149Y-96770367D01*
X103365882Y-96481739D01*
X103284053Y-96203709D01*
X103149780Y-95946869D01*
X102968177Y-95721000D01*
X102746161Y-95534706D01*
X102665753Y-95490502D01*
X102728971Y-95456888D01*
X102953567Y-95273713D01*
X103138306Y-95050401D01*
X103276152Y-94795461D01*
X103361854Y-94518601D01*
X103392149Y-94230367D01*
X103365882Y-93941739D01*
X103284053Y-93663709D01*
X103149780Y-93406869D01*
X102968177Y-93181000D01*
X102746161Y-92994706D01*
X102660111Y-92947400D01*
X102781355Y-92875178D01*
X102997588Y-92680269D01*
X103171641Y-92446920D01*
X103296825Y-92184099D01*
X103341476Y-92036890D01*
X103220155Y-91807000D01*
X102027000Y-91807000D01*
X102027000Y-91827000D01*
X101773000Y-91827000D01*
X101773000Y-91807000D01*
X99487000Y-91807000D01*
X99487000Y-91827000D01*
X99233000Y-91827000D01*
X99233000Y-91807000D01*
X98039845Y-91807000D01*
X97918524Y-92036890D01*
X97963175Y-92184099D01*
X98088359Y-92446920D01*
X98262412Y-92680269D01*
X98478645Y-92875178D01*
X98599090Y-92946923D01*
X98531029Y-92983112D01*
X98306433Y-93166287D01*
X98121694Y-93389599D01*
X97983848Y-93644539D01*
X97898146Y-93921399D01*
X97867851Y-94209633D01*
X96727000Y-94209633D01*
X96727000Y-86589633D01*
X97867851Y-86589633D01*
X97894118Y-86878261D01*
X97975947Y-87156291D01*
X98110220Y-87413131D01*
X98291823Y-87639000D01*
X98513839Y-87825294D01*
X98594247Y-87869498D01*
X98531029Y-87903112D01*
X98306433Y-88086287D01*
X98121694Y-88309599D01*
X97983848Y-88564539D01*
X97898146Y-88841399D01*
X97867851Y-89129633D01*
X97894118Y-89418261D01*
X97975947Y-89696291D01*
X98110220Y-89953131D01*
X98291823Y-90179000D01*
X98513839Y-90365294D01*
X98599889Y-90412600D01*
X98478645Y-90484822D01*
X98262412Y-90679731D01*
X98088359Y-90913080D01*
X97963175Y-91175901D01*
X97918524Y-91323110D01*
X98039845Y-91553000D01*
X99233000Y-91553000D01*
X99233000Y-91533000D01*
X99487000Y-91533000D01*
X99487000Y-91553000D01*
X101773000Y-91553000D01*
X101773000Y-91533000D01*
X102027000Y-91533000D01*
X102027000Y-91553000D01*
X103220155Y-91553000D01*
X103341476Y-91323110D01*
X103296825Y-91175901D01*
X103171641Y-90913080D01*
X102997588Y-90679731D01*
X102781355Y-90484822D01*
X102660910Y-90413077D01*
X102728971Y-90376888D01*
X102953567Y-90193713D01*
X103113820Y-90000000D01*
X103923776Y-90000000D01*
X105960000Y-92036224D01*
X105960000Y-96580000D01*
X105967747Y-96659008D01*
X105974675Y-96738198D01*
X105975938Y-96742546D01*
X105976379Y-96747042D01*
X105999334Y-96823073D01*
X106021502Y-96899376D01*
X106023582Y-96903389D01*
X106024890Y-96907721D01*
X106062185Y-96977862D01*
X106098743Y-97048390D01*
X106101566Y-97051927D01*
X106103688Y-97055917D01*
X106153879Y-97117457D01*
X106203457Y-97179562D01*
X106209666Y-97185858D01*
X106209769Y-97185985D01*
X106209886Y-97186082D01*
X106211888Y-97188112D01*
X107531888Y-98508112D01*
X107593268Y-98558530D01*
X107654128Y-98609598D01*
X107658093Y-98611778D01*
X107661586Y-98614647D01*
X107731608Y-98652193D01*
X107801210Y-98690456D01*
X107805518Y-98691822D01*
X107809506Y-98693961D01*
X107885487Y-98717190D01*
X107961196Y-98741207D01*
X107965692Y-98741711D01*
X107970015Y-98743033D01*
X108049055Y-98751062D01*
X108127993Y-98759916D01*
X108136829Y-98759978D01*
X108136998Y-98759995D01*
X108137156Y-98759980D01*
X108140000Y-98760000D01*
X108766713Y-98760000D01*
X108769992Y-98801121D01*
X108823106Y-98972634D01*
X108921900Y-99122559D01*
X109058550Y-99239025D01*
X109222237Y-99312810D01*
X109400000Y-99338072D01*
X112400000Y-99338072D01*
X112501121Y-99330008D01*
X112672634Y-99276894D01*
X112822559Y-99178100D01*
X112939025Y-99041450D01*
X113012810Y-98877763D01*
X113038072Y-98700000D01*
X113038072Y-97100000D01*
X113161928Y-97100000D01*
X113161928Y-98700000D01*
X113169992Y-98801121D01*
X113223106Y-98972634D01*
X113321900Y-99122559D01*
X113458550Y-99239025D01*
X113622237Y-99312810D01*
X113800000Y-99338072D01*
X116800000Y-99338072D01*
X116901121Y-99330008D01*
X117072634Y-99276894D01*
X117222559Y-99178100D01*
X117339025Y-99041450D01*
X117412810Y-98877763D01*
X117429545Y-98760000D01*
X118322901Y-98760000D01*
X118399671Y-98793540D01*
X118578757Y-98832915D01*
X118762079Y-98836755D01*
X118942657Y-98804914D01*
X119113610Y-98738606D01*
X119268429Y-98640355D01*
X119401215Y-98513904D01*
X119506911Y-98364070D01*
X119581492Y-98196560D01*
X119622116Y-98017754D01*
X119625040Y-97808319D01*
X119589425Y-97628448D01*
X119519550Y-97458920D01*
X119418079Y-97306193D01*
X119288875Y-97176084D01*
X119136860Y-97073549D01*
X118967825Y-97002493D01*
X118788207Y-96965623D01*
X118604849Y-96964343D01*
X118424733Y-96998701D01*
X118322515Y-97040000D01*
X117433287Y-97040000D01*
X117430008Y-96998879D01*
X117376894Y-96827366D01*
X117278100Y-96677441D01*
X117141450Y-96560975D01*
X116977763Y-96487190D01*
X116800000Y-96461928D01*
X113800000Y-96461928D01*
X113698879Y-96469992D01*
X113527366Y-96523106D01*
X113377441Y-96621900D01*
X113260975Y-96758550D01*
X113187190Y-96922237D01*
X113161928Y-97100000D01*
X113038072Y-97100000D01*
X113030008Y-96998879D01*
X112976894Y-96827366D01*
X112878100Y-96677441D01*
X112741450Y-96560975D01*
X112577763Y-96487190D01*
X112400000Y-96461928D01*
X109400000Y-96461928D01*
X109298879Y-96469992D01*
X109127366Y-96523106D01*
X108977441Y-96621900D01*
X108860975Y-96758550D01*
X108787190Y-96922237D01*
X108770455Y-97040000D01*
X108496224Y-97040000D01*
X107680000Y-96223776D01*
X107680000Y-93005750D01*
X109495000Y-93005750D01*
X109495000Y-93157542D01*
X109519403Y-93280223D01*
X109567270Y-93395785D01*
X109636763Y-93499789D01*
X109725211Y-93588237D01*
X109829215Y-93657730D01*
X109944777Y-93705597D01*
X110067458Y-93730000D01*
X110444250Y-93730000D01*
X110603000Y-93571250D01*
X110603000Y-92847000D01*
X109653750Y-92847000D01*
X109495000Y-93005750D01*
X107680000Y-93005750D01*
X107680000Y-92282458D01*
X109495000Y-92282458D01*
X109495000Y-92434250D01*
X109653750Y-92593000D01*
X110603000Y-92593000D01*
X110603000Y-91868750D01*
X110857000Y-91868750D01*
X110857000Y-92593000D01*
X110877000Y-92593000D01*
X110877000Y-92847000D01*
X110857000Y-92847000D01*
X110857000Y-93571250D01*
X111015750Y-93730000D01*
X111392542Y-93730000D01*
X111515223Y-93705597D01*
X111630785Y-93657730D01*
X111678756Y-93625677D01*
X111688550Y-93634025D01*
X111852237Y-93707810D01*
X112030000Y-93733072D01*
X113230000Y-93733072D01*
X113331121Y-93725008D01*
X113502634Y-93671894D01*
X113642088Y-93580000D01*
X114924535Y-93580000D01*
X115028757Y-93602915D01*
X115212079Y-93606755D01*
X115392657Y-93574914D01*
X115563610Y-93508606D01*
X115718429Y-93410355D01*
X115851215Y-93283904D01*
X115956911Y-93134070D01*
X116031492Y-92966560D01*
X116072116Y-92787754D01*
X116075040Y-92578319D01*
X116039425Y-92398448D01*
X115969550Y-92228920D01*
X115868079Y-92076193D01*
X115738875Y-91946084D01*
X115586860Y-91843549D01*
X115417825Y-91772493D01*
X115238207Y-91735623D01*
X115054849Y-91734343D01*
X114874733Y-91768701D01*
X114704722Y-91837390D01*
X114670170Y-91860000D01*
X113634838Y-91860000D01*
X113571450Y-91805975D01*
X113407763Y-91732190D01*
X113230000Y-91706928D01*
X112030000Y-91706928D01*
X111928879Y-91714992D01*
X111757366Y-91768106D01*
X111682963Y-91817134D01*
X111630785Y-91782270D01*
X111515223Y-91734403D01*
X111392542Y-91710000D01*
X111015750Y-91710000D01*
X110857000Y-91868750D01*
X110603000Y-91868750D01*
X110444250Y-91710000D01*
X110067458Y-91710000D01*
X109944777Y-91734403D01*
X109829215Y-91782270D01*
X109725211Y-91851763D01*
X109636763Y-91940211D01*
X109567270Y-92044215D01*
X109519403Y-92159777D01*
X109495000Y-92282458D01*
X107680000Y-92282458D01*
X107680000Y-91680000D01*
X107672253Y-91600992D01*
X107665325Y-91521802D01*
X107664062Y-91517455D01*
X107663621Y-91512958D01*
X107640652Y-91436881D01*
X107618497Y-91360624D01*
X107616419Y-91356616D01*
X107615110Y-91352279D01*
X107577775Y-91282063D01*
X107541256Y-91211610D01*
X107538436Y-91208077D01*
X107536312Y-91204083D01*
X107486093Y-91142509D01*
X107436542Y-91080437D01*
X107430334Y-91074142D01*
X107430231Y-91074015D01*
X107430114Y-91073918D01*
X107428112Y-91071888D01*
X107276224Y-90920000D01*
X109725162Y-90920000D01*
X109788550Y-90974025D01*
X109952237Y-91047810D01*
X110130000Y-91073072D01*
X111330000Y-91073072D01*
X111431121Y-91065008D01*
X111602634Y-91011894D01*
X111676146Y-90963453D01*
X111688550Y-90974025D01*
X111852237Y-91047810D01*
X112030000Y-91073072D01*
X113230000Y-91073072D01*
X113331121Y-91065008D01*
X113502634Y-91011894D01*
X113642088Y-90920000D01*
X114828679Y-90920000D01*
X114859671Y-90933540D01*
X115038757Y-90972915D01*
X115222079Y-90976755D01*
X115402657Y-90944914D01*
X115573610Y-90878606D01*
X115728429Y-90780355D01*
X115861215Y-90653904D01*
X115966911Y-90504070D01*
X116041492Y-90336560D01*
X116082116Y-90157754D01*
X116085040Y-89948319D01*
X116049425Y-89768448D01*
X115979550Y-89598920D01*
X115878079Y-89446193D01*
X115748875Y-89316084D01*
X115596860Y-89213549D01*
X115427825Y-89142493D01*
X115248207Y-89105623D01*
X115064849Y-89104343D01*
X114884733Y-89138701D01*
X114733013Y-89200000D01*
X113634838Y-89200000D01*
X113571450Y-89145975D01*
X113407763Y-89072190D01*
X113230000Y-89046928D01*
X112030000Y-89046928D01*
X111928879Y-89054992D01*
X111757366Y-89108106D01*
X111683854Y-89156547D01*
X111671450Y-89145975D01*
X111507763Y-89072190D01*
X111330000Y-89046928D01*
X110130000Y-89046928D01*
X110028879Y-89054992D01*
X109857366Y-89108106D01*
X109717912Y-89200000D01*
X105556224Y-89200000D01*
X104888112Y-88531888D01*
X104826732Y-88481470D01*
X104765872Y-88430402D01*
X104761907Y-88428222D01*
X104758414Y-88425353D01*
X104688392Y-88387807D01*
X104618790Y-88349544D01*
X104614482Y-88348178D01*
X104610494Y-88346039D01*
X104534513Y-88322810D01*
X104458804Y-88298793D01*
X104454308Y-88298289D01*
X104449985Y-88296967D01*
X104370945Y-88288938D01*
X104292007Y-88280084D01*
X104283171Y-88280022D01*
X104283002Y-88280005D01*
X104282844Y-88280020D01*
X104280000Y-88280000D01*
X103112096Y-88280000D01*
X102968177Y-88101000D01*
X102918349Y-88059189D01*
X103022634Y-88026894D01*
X103172559Y-87928100D01*
X103289025Y-87791450D01*
X103362810Y-87627763D01*
X103388072Y-87450000D01*
X103388072Y-85750000D01*
X103380008Y-85648879D01*
X103326894Y-85477366D01*
X103228100Y-85327441D01*
X103091450Y-85210975D01*
X102927763Y-85137190D01*
X102750000Y-85111928D01*
X101050000Y-85111928D01*
X100948879Y-85119992D01*
X100777366Y-85173106D01*
X100627441Y-85271900D01*
X100510975Y-85408550D01*
X100437198Y-85572220D01*
X100428177Y-85561000D01*
X100206161Y-85374706D01*
X99952189Y-85235084D01*
X99675934Y-85147451D01*
X99387919Y-85115145D01*
X99367185Y-85115000D01*
X99352815Y-85115000D01*
X99064377Y-85143282D01*
X98786925Y-85227049D01*
X98531029Y-85363112D01*
X98306433Y-85546287D01*
X98121694Y-85769599D01*
X97983848Y-86024539D01*
X97898146Y-86301399D01*
X97867851Y-86589633D01*
X96727000Y-86589633D01*
X96727000Y-82777696D01*
X97107502Y-83368120D01*
X97711680Y-83993764D01*
X98425873Y-84490141D01*
X99222878Y-84838344D01*
X100072338Y-85025110D01*
X100941895Y-85043325D01*
X101798430Y-84892294D01*
X102609317Y-84577772D01*
X103343670Y-84111738D01*
X103973517Y-83511942D01*
X104274163Y-83085750D01*
X105515000Y-83085750D01*
X105515000Y-83712542D01*
X105539403Y-83835223D01*
X105587270Y-83950785D01*
X105656763Y-84054789D01*
X105745211Y-84143237D01*
X105849215Y-84212730D01*
X105964777Y-84260597D01*
X106087458Y-84285000D01*
X106714250Y-84285000D01*
X106873000Y-84126250D01*
X106873000Y-82927000D01*
X107127000Y-82927000D01*
X107127000Y-84126250D01*
X107285750Y-84285000D01*
X107912542Y-84285000D01*
X108035223Y-84260597D01*
X108150785Y-84212730D01*
X108254789Y-84143237D01*
X108343237Y-84054789D01*
X108412730Y-83950785D01*
X108460597Y-83835223D01*
X108485000Y-83712542D01*
X108485000Y-83085750D01*
X108326250Y-82927000D01*
X107127000Y-82927000D01*
X106873000Y-82927000D01*
X105673750Y-82927000D01*
X105515000Y-83085750D01*
X104274163Y-83085750D01*
X104474869Y-82801232D01*
X104828627Y-82006677D01*
X105021318Y-81158542D01*
X105035190Y-80165126D01*
X104866255Y-79311942D01*
X104534820Y-78507819D01*
X104053508Y-77783387D01*
X103440654Y-77166239D01*
X102719600Y-76679882D01*
X101917811Y-76342841D01*
X101353477Y-76227000D01*
X125273000Y-76227000D01*
X125273000Y-76783649D01*
M02*
