M48
;DRILL file {KiCad 4.0.6} date 07/11/17 13:46:05
;FORMAT={-:-/ absolute / metric / decimal}
FMAT,2
METRIC,TZ
T1C0.400
T2C1.000
T3C1.001
T4C3.000
T5C3.800
%
G90
G05
M71
T1
X111.3Y-84.9
X115.14Y-92.67
X115.15Y-90.04
X116.8Y-120.5
X118.69Y-97.9
X118.69Y-102.23
X118.8Y-78.1
X120.2Y-116.7
X122.87Y-106.97
X122.91Y-104.42
X123.3Y-116.1
T2
X99.36Y-86.6
X99.36Y-89.14
X99.36Y-91.68
X99.36Y-94.22
X99.36Y-96.76
X99.36Y-99.3
X99.36Y-101.84
X99.36Y-104.38
X99.36Y-106.92
X99.36Y-109.46
X99.36Y-112.
X99.36Y-114.54
X101.9Y-86.6
X101.9Y-89.14
X101.9Y-91.68
X101.9Y-94.22
X101.9Y-96.76
X101.9Y-99.3
X101.9Y-101.84
X101.9Y-104.38
X101.9Y-106.92
X101.9Y-109.46
X101.9Y-112.
X101.9Y-114.54
X107.Y-77.72
X107.Y-80.26
X107.Y-82.8
X107.Y-118.4
X107.Y-120.94
X107.Y-123.48
X121.6Y-77.74
X124.14Y-77.74
X126.68Y-77.74
X129.22Y-77.74
X131.76Y-77.74
T3
X173.8Y-77.6
X173.8Y-80.14
X173.8Y-82.68
X173.8Y-85.22
X173.8Y-87.76
X173.8Y-90.3
X173.8Y-92.84
X173.8Y-95.38
X173.8Y-97.92
X173.8Y-100.46
X173.8Y-103.
X173.8Y-105.54
X173.8Y-108.08
X173.8Y-110.62
X173.8Y-113.16
X173.8Y-115.7
X173.8Y-118.24
X173.8Y-120.78
X173.8Y-123.32
X176.34Y-77.6
X176.34Y-80.14
X176.34Y-82.68
X176.34Y-85.22
X176.34Y-87.76
X176.34Y-90.3
X176.34Y-92.84
X176.34Y-95.38
X176.34Y-97.92
X176.34Y-100.46
X176.34Y-103.
X176.34Y-105.54
X176.34Y-108.08
X176.34Y-110.62
X176.34Y-113.16
X176.34Y-115.7
X176.34Y-118.24
X176.34Y-120.78
X176.34Y-123.32
X178.88Y-77.6
X178.88Y-80.14
X178.88Y-82.68
X178.88Y-85.22
X178.88Y-87.76
X178.88Y-90.3
X178.88Y-92.84
X178.88Y-95.38
X178.88Y-97.92
X178.88Y-100.46
X178.88Y-103.
X178.88Y-105.54
X178.88Y-108.08
X178.88Y-110.62
X178.88Y-113.16
X178.88Y-115.7
X178.88Y-118.24
X178.88Y-120.78
X178.88Y-123.32
X181.42Y-77.6
X181.42Y-80.14
X181.42Y-82.68
X181.42Y-85.22
X181.42Y-87.76
X181.42Y-90.3
X181.42Y-92.84
X181.42Y-95.38
X181.42Y-97.92
X181.42Y-100.46
X181.42Y-103.
X181.42Y-105.54
X181.42Y-108.08
X181.42Y-110.62
X181.42Y-113.16
X181.42Y-115.7
X181.42Y-118.24
X181.42Y-120.78
X181.42Y-123.32
X183.96Y-77.6
X183.96Y-80.14
X183.96Y-82.68
X183.96Y-85.22
X183.96Y-87.76
X183.96Y-90.3
X183.96Y-92.84
X183.96Y-95.38
X183.96Y-97.92
X183.96Y-100.46
X183.96Y-103.
X183.96Y-105.54
X183.96Y-108.08
X183.96Y-110.62
X183.96Y-113.16
X183.96Y-115.7
X183.96Y-118.24
X183.96Y-120.78
X183.96Y-123.32
X186.5Y-85.22
X186.5Y-87.76
X186.5Y-90.3
X186.5Y-92.84
X186.5Y-95.38
X186.5Y-97.92
X186.5Y-100.46
X186.5Y-103.
X186.5Y-105.54
X186.5Y-108.08
X186.5Y-110.62
X186.5Y-113.16
X186.5Y-115.7
X189.04Y-87.76
X189.04Y-90.3
X189.04Y-92.84
X189.04Y-95.38
X189.04Y-97.92
X189.04Y-100.46
X189.04Y-103.
X189.04Y-105.54
X189.04Y-108.08
X189.04Y-110.62
X189.04Y-113.16
X191.58Y-87.76
X191.58Y-90.3
X191.58Y-92.84
X191.58Y-95.38
X191.58Y-97.92
X191.58Y-100.46
X191.58Y-103.
X191.58Y-105.54
X191.58Y-108.08
X191.58Y-110.62
X191.58Y-113.16
X194.12Y-87.76
X194.12Y-90.3
X194.12Y-92.84
X194.12Y-95.38
X194.12Y-97.92
X194.12Y-100.46
X194.12Y-103.
X194.12Y-105.54
X194.12Y-108.08
X194.12Y-110.62
X194.12Y-113.16
T4
X166.05Y-122.83
T5
X100.6Y-80.6
X100.6Y-120.6
X190.6Y-80.6
X190.6Y-120.6
T0
M30
