G04 #@! TF.FileFunction,Copper,L2,Bot,Signal*
%FSLAX46Y46*%
G04 Gerber Fmt 4.6, Leading zero omitted, Abs format (unit mm)*
G04 Created by KiCad (PCBNEW 4.0.6) date 07/11/17 13:45:29*
%MOMM*%
%LPD*%
G01*
G04 APERTURE LIST*
%ADD10C,0.100000*%
%ADD11C,4.000000*%
%ADD12C,2.000000*%
%ADD13R,1.700000X1.700000*%
%ADD14O,1.700000X1.700000*%
%ADD15C,7.600000*%
%ADD16C,0.600000*%
%ADD17C,0.450000*%
%ADD18C,0.250000*%
%ADD19C,0.254000*%
G04 APERTURE END LIST*
D10*
D11*
X166050000Y-122830000D03*
D12*
X183960000Y-123320000D03*
X181420000Y-123320000D03*
X178880000Y-123320000D03*
X176340000Y-123320000D03*
X173800000Y-123320000D03*
X183960000Y-120780000D03*
X181420000Y-120780000D03*
X178880000Y-120780000D03*
X176340000Y-120780000D03*
X173800000Y-120780000D03*
X183960000Y-118240000D03*
X181420000Y-118240000D03*
X178880000Y-118240000D03*
X176340000Y-118240000D03*
X173800000Y-118240000D03*
X186500000Y-115700000D03*
X183960000Y-115700000D03*
X181420000Y-115700000D03*
X178880000Y-115700000D03*
X176340000Y-115700000D03*
X173800000Y-115700000D03*
X194120000Y-113160000D03*
X191580000Y-113160000D03*
X189040000Y-113160000D03*
X186500000Y-113160000D03*
X183960000Y-113160000D03*
X181420000Y-113160000D03*
X178880000Y-113160000D03*
X176340000Y-113160000D03*
X173800000Y-113160000D03*
X194120000Y-110620000D03*
X191580000Y-110620000D03*
X189040000Y-110620000D03*
X186500000Y-110620000D03*
X183960000Y-110620000D03*
X181420000Y-110620000D03*
X178880000Y-110620000D03*
X176340000Y-110620000D03*
X173800000Y-110620000D03*
X194120000Y-108080000D03*
X191580000Y-108080000D03*
X189040000Y-108080000D03*
X186500000Y-108080000D03*
X183960000Y-108080000D03*
X181420000Y-108080000D03*
X178880000Y-108080000D03*
X176340000Y-108080000D03*
X173800000Y-108080000D03*
X194120000Y-105540000D03*
X191580000Y-105540000D03*
X189040000Y-105540000D03*
X186500000Y-105540000D03*
X183960000Y-105540000D03*
X181420000Y-105540000D03*
X178880000Y-105540000D03*
X176340000Y-105540000D03*
X173800000Y-105540000D03*
X194120000Y-103000000D03*
X191580000Y-103000000D03*
X189040000Y-103000000D03*
X186500000Y-103000000D03*
X183960000Y-103000000D03*
X181420000Y-103000000D03*
X178880000Y-103000000D03*
X176340000Y-103000000D03*
X173800000Y-103000000D03*
X194120000Y-100460000D03*
X191580000Y-100460000D03*
X189040000Y-100460000D03*
X186500000Y-100460000D03*
X183960000Y-100460000D03*
X181420000Y-100460000D03*
X178880000Y-100460000D03*
X176340000Y-100460000D03*
X173800000Y-100460000D03*
X194120000Y-97920000D03*
X191580000Y-97920000D03*
X189040000Y-97920000D03*
X186500000Y-97920000D03*
X183960000Y-97920000D03*
X181420000Y-97920000D03*
X178880000Y-97920000D03*
X176340000Y-97920000D03*
X173800000Y-97920000D03*
X194120000Y-95380000D03*
X191580000Y-95380000D03*
X189040000Y-95380000D03*
X186500000Y-95380000D03*
X183960000Y-95380000D03*
X181420000Y-95380000D03*
X178880000Y-95380000D03*
X176340000Y-95380000D03*
X173800000Y-95380000D03*
X194120000Y-92840000D03*
X191580000Y-92840000D03*
X189040000Y-92840000D03*
X186500000Y-92840000D03*
X183960000Y-92840000D03*
X181420000Y-92840000D03*
X178880000Y-92840000D03*
X176340000Y-92840000D03*
X173800000Y-92840000D03*
X194120000Y-90300000D03*
X191580000Y-90300000D03*
X189040000Y-90300000D03*
X186500000Y-90300000D03*
X183960000Y-90300000D03*
X181420000Y-90300000D03*
X178880000Y-90300000D03*
X176340000Y-90300000D03*
X173800000Y-90300000D03*
X194120000Y-87760000D03*
X191580000Y-87760000D03*
X189040000Y-87760000D03*
X186500000Y-87760000D03*
X183960000Y-87760000D03*
X181420000Y-87760000D03*
X178880000Y-87760000D03*
X176340000Y-87760000D03*
X173800000Y-87760000D03*
X186500000Y-85220000D03*
X183960000Y-85220000D03*
X181420000Y-85220000D03*
X178880000Y-85220000D03*
X176340000Y-85220000D03*
X173800000Y-85220000D03*
X183960000Y-82680000D03*
X181420000Y-82680000D03*
X178880000Y-82680000D03*
X176340000Y-82680000D03*
X173800000Y-82680000D03*
X183960000Y-80140000D03*
X181420000Y-80140000D03*
X178880000Y-80140000D03*
X176340000Y-80140000D03*
X173800000Y-80140000D03*
X183960000Y-77600000D03*
X181420000Y-77600000D03*
X178880000Y-77600000D03*
X176340000Y-77600000D03*
D13*
X101900000Y-86600000D03*
D14*
X99360000Y-86600000D03*
X101900000Y-89140000D03*
X99360000Y-89140000D03*
X101900000Y-91680000D03*
X99360000Y-91680000D03*
X101900000Y-94220000D03*
X99360000Y-94220000D03*
X101900000Y-96760000D03*
X99360000Y-96760000D03*
X101900000Y-99300000D03*
X99360000Y-99300000D03*
X101900000Y-101840000D03*
X99360000Y-101840000D03*
X101900000Y-104380000D03*
X99360000Y-104380000D03*
X101900000Y-106920000D03*
X99360000Y-106920000D03*
X101900000Y-109460000D03*
X99360000Y-109460000D03*
X101900000Y-112000000D03*
X99360000Y-112000000D03*
X101900000Y-114540000D03*
X99360000Y-114540000D03*
D13*
X107000000Y-82800000D03*
D14*
X107000000Y-80260000D03*
X107000000Y-77720000D03*
D13*
X121600000Y-77740000D03*
D14*
X124140000Y-77740000D03*
X126680000Y-77740000D03*
X129220000Y-77740000D03*
X131760000Y-77740000D03*
D13*
X107000000Y-118400000D03*
D14*
X107000000Y-120940000D03*
X107000000Y-123480000D03*
D15*
X190600000Y-80600000D03*
X190600000Y-120600000D03*
X100600000Y-120600000D03*
X100600000Y-80600000D03*
D12*
X173800000Y-77600000D03*
D16*
X115140000Y-92670000D03*
X115150000Y-90040000D03*
X118690000Y-102230000D03*
X118690000Y-97900000D03*
X111300000Y-84900000D03*
X120200000Y-116700000D03*
X123300000Y-116100000D03*
X116800000Y-120500000D03*
X118800000Y-78100000D03*
X122870000Y-106970000D03*
X122910000Y-104420000D03*
D17*
X126680000Y-77740000D02*
X126680000Y-83740000D01*
X103670000Y-89140000D02*
X101900000Y-89140000D01*
X105870000Y-86940000D02*
X103670000Y-89140000D01*
X123480000Y-86940000D02*
X105870000Y-86940000D01*
X126680000Y-83740000D02*
X123480000Y-86940000D01*
X118690000Y-102230000D02*
X118720000Y-102260000D01*
X118690000Y-97900000D02*
X118690000Y-97880000D01*
X124140000Y-77740000D02*
X124180000Y-77740000D01*
X124180000Y-77740000D02*
X125780000Y-76140000D01*
X137020000Y-80140000D02*
X173800000Y-80140000D01*
X133020000Y-76140000D02*
X137020000Y-80140000D01*
X125780000Y-76140000D02*
X133020000Y-76140000D01*
X173800000Y-120780000D02*
X169310000Y-120780000D01*
X121970000Y-119660000D02*
X121920000Y-119710000D01*
X168190000Y-119660000D02*
X121970000Y-119660000D01*
X169310000Y-120780000D02*
X168190000Y-119660000D01*
X124140000Y-77740000D02*
X124140000Y-77260000D01*
D18*
X131760000Y-77740000D02*
X131760000Y-98080000D01*
X131760000Y-98080000D02*
X122870000Y-106970000D01*
X101900000Y-106920000D02*
X122820000Y-106920000D01*
X122820000Y-106920000D02*
X122870000Y-106970000D01*
X101900000Y-106920000D02*
X101900000Y-106900000D01*
X129220000Y-77740000D02*
X129220000Y-98110000D01*
X129220000Y-98110000D02*
X122910000Y-104420000D01*
X101900000Y-104380000D02*
X122870000Y-104380000D01*
X122870000Y-104380000D02*
X122910000Y-104420000D01*
X102020000Y-104500000D02*
X101900000Y-104380000D01*
X101900000Y-109460000D02*
X104560000Y-109460000D01*
X152360000Y-113160000D02*
X173800000Y-113160000D01*
X150600000Y-111400000D02*
X152360000Y-113160000D01*
X106500000Y-111400000D02*
X150600000Y-111400000D01*
X104560000Y-109460000D02*
X106500000Y-111400000D01*
X140800000Y-112000000D02*
X150400000Y-112000000D01*
X154100000Y-115700000D02*
X173800000Y-115700000D01*
X150400000Y-112000000D02*
X154100000Y-115700000D01*
X101900000Y-112000000D02*
X140800000Y-112000000D01*
X141100000Y-112600000D02*
X150200000Y-112600000D01*
X155840000Y-118240000D02*
X173800000Y-118240000D01*
X150200000Y-112600000D02*
X155840000Y-118240000D01*
X101900000Y-114540000D02*
X104560000Y-114540000D01*
X106500000Y-112600000D02*
X141100000Y-112600000D01*
X104560000Y-114540000D02*
X106500000Y-112600000D01*
X101900000Y-114540000D02*
X102160000Y-114540000D01*
D19*
G36*
X125273000Y-76789664D02*
X125140269Y-76642412D01*
X124906920Y-76468359D01*
X124644099Y-76343175D01*
X124496890Y-76298524D01*
X124267000Y-76419845D01*
X124267000Y-77613000D01*
X124287000Y-77613000D01*
X124287000Y-77867000D01*
X124267000Y-77867000D01*
X124267000Y-79060155D01*
X124496890Y-79181476D01*
X124644099Y-79136825D01*
X124906920Y-79011641D01*
X125140269Y-78837588D01*
X125273000Y-78690336D01*
X125273000Y-83930776D01*
X123123776Y-86080000D01*
X105870000Y-86080000D01*
X105790988Y-86087747D01*
X105711802Y-86094675D01*
X105707454Y-86095938D01*
X105702958Y-86096379D01*
X105626927Y-86119334D01*
X105550624Y-86141502D01*
X105546611Y-86143582D01*
X105542279Y-86144890D01*
X105472138Y-86182185D01*
X105401610Y-86218743D01*
X105398073Y-86221566D01*
X105394083Y-86223688D01*
X105332543Y-86273879D01*
X105270438Y-86323457D01*
X105264142Y-86329666D01*
X105264015Y-86329769D01*
X105263918Y-86329886D01*
X105261888Y-86331888D01*
X103313776Y-88280000D01*
X103112096Y-88280000D01*
X102968177Y-88101000D01*
X102918349Y-88059189D01*
X103022634Y-88026894D01*
X103172559Y-87928100D01*
X103289025Y-87791450D01*
X103362810Y-87627763D01*
X103388072Y-87450000D01*
X103388072Y-85750000D01*
X103380008Y-85648879D01*
X103326894Y-85477366D01*
X103228100Y-85327441D01*
X103091450Y-85210975D01*
X102927763Y-85137190D01*
X102750000Y-85111928D01*
X101050000Y-85111928D01*
X100948879Y-85119992D01*
X100777366Y-85173106D01*
X100627441Y-85271900D01*
X100510975Y-85408550D01*
X100437198Y-85572220D01*
X100428177Y-85561000D01*
X100206161Y-85374706D01*
X99952189Y-85235084D01*
X99675934Y-85147451D01*
X99387919Y-85115145D01*
X99367185Y-85115000D01*
X99352815Y-85115000D01*
X99064377Y-85143282D01*
X98786925Y-85227049D01*
X98531029Y-85363112D01*
X98306433Y-85546287D01*
X98121694Y-85769599D01*
X97983848Y-86024539D01*
X97898146Y-86301399D01*
X97867851Y-86589633D01*
X97894118Y-86878261D01*
X97975947Y-87156291D01*
X98110220Y-87413131D01*
X98291823Y-87639000D01*
X98513839Y-87825294D01*
X98594247Y-87869498D01*
X98531029Y-87903112D01*
X98306433Y-88086287D01*
X98121694Y-88309599D01*
X97983848Y-88564539D01*
X97898146Y-88841399D01*
X97867851Y-89129633D01*
X97894118Y-89418261D01*
X97975947Y-89696291D01*
X98110220Y-89953131D01*
X98291823Y-90179000D01*
X98513839Y-90365294D01*
X98594247Y-90409498D01*
X98531029Y-90443112D01*
X98306433Y-90626287D01*
X98121694Y-90849599D01*
X97983848Y-91104539D01*
X97898146Y-91381399D01*
X97867851Y-91669633D01*
X97894118Y-91958261D01*
X97975947Y-92236291D01*
X98110220Y-92493131D01*
X98291823Y-92719000D01*
X98513839Y-92905294D01*
X98599889Y-92952600D01*
X98478645Y-93024822D01*
X98262412Y-93219731D01*
X98088359Y-93453080D01*
X97963175Y-93715901D01*
X97918524Y-93863110D01*
X98039845Y-94093000D01*
X99233000Y-94093000D01*
X99233000Y-94073000D01*
X99487000Y-94073000D01*
X99487000Y-94093000D01*
X101773000Y-94093000D01*
X101773000Y-94073000D01*
X102027000Y-94073000D01*
X102027000Y-94093000D01*
X103220155Y-94093000D01*
X103341476Y-93863110D01*
X103296825Y-93715901D01*
X103171641Y-93453080D01*
X102997588Y-93219731D01*
X102781355Y-93024822D01*
X102660910Y-92953077D01*
X102728971Y-92916888D01*
X102953567Y-92733713D01*
X103138306Y-92510401D01*
X103276152Y-92255461D01*
X103361854Y-91978601D01*
X103392149Y-91690367D01*
X103365882Y-91401739D01*
X103284053Y-91123709D01*
X103149780Y-90866869D01*
X102968177Y-90641000D01*
X102746161Y-90454706D01*
X102665753Y-90410502D01*
X102728971Y-90376888D01*
X102953567Y-90193713D01*
X103113820Y-90000000D01*
X103670000Y-90000000D01*
X103749008Y-89992253D01*
X103828198Y-89985325D01*
X103832546Y-89984062D01*
X103837042Y-89983621D01*
X103913073Y-89960666D01*
X103989376Y-89938498D01*
X103993389Y-89936418D01*
X103997721Y-89935110D01*
X104067862Y-89897815D01*
X104138390Y-89861257D01*
X104141927Y-89858434D01*
X104145917Y-89856312D01*
X104207457Y-89806121D01*
X104269562Y-89756543D01*
X104275858Y-89750334D01*
X104275985Y-89750231D01*
X104276082Y-89750114D01*
X104278112Y-89748112D01*
X106226224Y-87800000D01*
X123480000Y-87800000D01*
X123559008Y-87792253D01*
X123638198Y-87785325D01*
X123642546Y-87784062D01*
X123647042Y-87783621D01*
X123723073Y-87760666D01*
X123799376Y-87738498D01*
X123803389Y-87736418D01*
X123807721Y-87735110D01*
X123877862Y-87697815D01*
X123948390Y-87661257D01*
X123951927Y-87658434D01*
X123955917Y-87656312D01*
X124017457Y-87606121D01*
X124079562Y-87556543D01*
X124085858Y-87550334D01*
X124085985Y-87550231D01*
X124086082Y-87550114D01*
X124088112Y-87548112D01*
X125273000Y-86363224D01*
X125273000Y-100982198D01*
X122758128Y-103497070D01*
X122644733Y-103518701D01*
X122474722Y-103587390D01*
X122424889Y-103620000D01*
X103177556Y-103620000D01*
X103149780Y-103566869D01*
X102968177Y-103341000D01*
X102746161Y-103154706D01*
X102665753Y-103110502D01*
X102728971Y-103076888D01*
X102953567Y-102893713D01*
X103138306Y-102670401D01*
X103276152Y-102415461D01*
X103361854Y-102138601D01*
X103392149Y-101850367D01*
X103365882Y-101561739D01*
X103284053Y-101283709D01*
X103149780Y-101026869D01*
X102968177Y-100801000D01*
X102746161Y-100614706D01*
X102665753Y-100570502D01*
X102728971Y-100536888D01*
X102953567Y-100353713D01*
X103138306Y-100130401D01*
X103276152Y-99875461D01*
X103361854Y-99598601D01*
X103392149Y-99310367D01*
X103365882Y-99021739D01*
X103284053Y-98743709D01*
X103149780Y-98486869D01*
X102968177Y-98261000D01*
X102746161Y-98074706D01*
X102665753Y-98030502D01*
X102728971Y-97996888D01*
X102953567Y-97813713D01*
X103138306Y-97590401D01*
X103276152Y-97335461D01*
X103361854Y-97058601D01*
X103392149Y-96770367D01*
X103365882Y-96481739D01*
X103284053Y-96203709D01*
X103149780Y-95946869D01*
X102968177Y-95721000D01*
X102746161Y-95534706D01*
X102660111Y-95487400D01*
X102781355Y-95415178D01*
X102997588Y-95220269D01*
X103171641Y-94986920D01*
X103296825Y-94724099D01*
X103341476Y-94576890D01*
X103220155Y-94347000D01*
X102027000Y-94347000D01*
X102027000Y-94367000D01*
X101773000Y-94367000D01*
X101773000Y-94347000D01*
X99487000Y-94347000D01*
X99487000Y-94367000D01*
X99233000Y-94367000D01*
X99233000Y-94347000D01*
X98039845Y-94347000D01*
X97918524Y-94576890D01*
X97963175Y-94724099D01*
X98088359Y-94986920D01*
X98262412Y-95220269D01*
X98478645Y-95415178D01*
X98599090Y-95486923D01*
X98531029Y-95523112D01*
X98306433Y-95706287D01*
X98121694Y-95929599D01*
X97983848Y-96184539D01*
X97898146Y-96461399D01*
X97867851Y-96749633D01*
X97894118Y-97038261D01*
X97975947Y-97316291D01*
X98110220Y-97573131D01*
X98291823Y-97799000D01*
X98513839Y-97985294D01*
X98594247Y-98029498D01*
X98531029Y-98063112D01*
X98306433Y-98246287D01*
X98121694Y-98469599D01*
X97983848Y-98724539D01*
X97898146Y-99001399D01*
X97867851Y-99289633D01*
X97894118Y-99578261D01*
X97975947Y-99856291D01*
X98110220Y-100113131D01*
X98291823Y-100339000D01*
X98513839Y-100525294D01*
X98594247Y-100569498D01*
X98531029Y-100603112D01*
X98306433Y-100786287D01*
X98121694Y-101009599D01*
X97983848Y-101264539D01*
X97898146Y-101541399D01*
X97867851Y-101829633D01*
X97894118Y-102118261D01*
X97975947Y-102396291D01*
X98110220Y-102653131D01*
X98291823Y-102879000D01*
X98513839Y-103065294D01*
X98594247Y-103109498D01*
X98531029Y-103143112D01*
X98306433Y-103326287D01*
X98121694Y-103549599D01*
X97983848Y-103804539D01*
X97898146Y-104081399D01*
X97867851Y-104369633D01*
X97894118Y-104658261D01*
X97975947Y-104936291D01*
X98110220Y-105193131D01*
X98291823Y-105419000D01*
X98513839Y-105605294D01*
X98594247Y-105649498D01*
X98531029Y-105683112D01*
X98306433Y-105866287D01*
X98121694Y-106089599D01*
X97983848Y-106344539D01*
X97898146Y-106621399D01*
X97867851Y-106909633D01*
X97894118Y-107198261D01*
X97975947Y-107476291D01*
X98110220Y-107733131D01*
X98291823Y-107959000D01*
X98513839Y-108145294D01*
X98594247Y-108189498D01*
X98531029Y-108223112D01*
X98306433Y-108406287D01*
X98121694Y-108629599D01*
X97983848Y-108884539D01*
X97898146Y-109161399D01*
X97867851Y-109449633D01*
X97894118Y-109738261D01*
X97975947Y-110016291D01*
X98110220Y-110273131D01*
X98291823Y-110499000D01*
X98513839Y-110685294D01*
X98594247Y-110729498D01*
X98531029Y-110763112D01*
X98306433Y-110946287D01*
X98121694Y-111169599D01*
X97983848Y-111424539D01*
X97898146Y-111701399D01*
X97867851Y-111989633D01*
X97894118Y-112278261D01*
X97975947Y-112556291D01*
X98110220Y-112813131D01*
X98291823Y-113039000D01*
X98513839Y-113225294D01*
X98594247Y-113269498D01*
X98531029Y-113303112D01*
X98306433Y-113486287D01*
X98121694Y-113709599D01*
X97983848Y-113964539D01*
X97898146Y-114241399D01*
X97867851Y-114529633D01*
X97894118Y-114818261D01*
X97975947Y-115096291D01*
X98110220Y-115353131D01*
X98291823Y-115579000D01*
X98513839Y-115765294D01*
X98767811Y-115904916D01*
X99044066Y-115992549D01*
X99332081Y-116024855D01*
X99352815Y-116025000D01*
X99367185Y-116025000D01*
X99655623Y-115996718D01*
X99933075Y-115912951D01*
X100188971Y-115776888D01*
X100413567Y-115593713D01*
X100598306Y-115370401D01*
X100629290Y-115313097D01*
X100650220Y-115353131D01*
X100831823Y-115579000D01*
X101053839Y-115765294D01*
X101307811Y-115904916D01*
X101584066Y-115992549D01*
X101872081Y-116024855D01*
X101892815Y-116025000D01*
X101907185Y-116025000D01*
X102195623Y-115996718D01*
X102473075Y-115912951D01*
X102728971Y-115776888D01*
X102953567Y-115593713D01*
X103138306Y-115370401D01*
X103176372Y-115300000D01*
X104560000Y-115300000D01*
X104629877Y-115293149D01*
X104699803Y-115287031D01*
X104703641Y-115285916D01*
X104707618Y-115285526D01*
X104774821Y-115265236D01*
X104842240Y-115245649D01*
X104845788Y-115243810D01*
X104849613Y-115242655D01*
X104911591Y-115209701D01*
X104973925Y-115177390D01*
X104977048Y-115174897D01*
X104980578Y-115173020D01*
X105034987Y-115128645D01*
X105089846Y-115084852D01*
X105095406Y-115079369D01*
X105095522Y-115079274D01*
X105095611Y-115079166D01*
X105097401Y-115077401D01*
X106814802Y-113360000D01*
X125273000Y-113360000D01*
X125273000Y-124973000D01*
X101340726Y-124973000D01*
X101798430Y-124892294D01*
X102609317Y-124577772D01*
X103343670Y-124111738D01*
X103973517Y-123511942D01*
X104474869Y-122801232D01*
X104828627Y-122006677D01*
X105021318Y-121158542D01*
X105024514Y-120929633D01*
X105507851Y-120929633D01*
X105534118Y-121218261D01*
X105615947Y-121496291D01*
X105750220Y-121753131D01*
X105931823Y-121979000D01*
X106153839Y-122165294D01*
X106234247Y-122209498D01*
X106171029Y-122243112D01*
X105946433Y-122426287D01*
X105761694Y-122649599D01*
X105623848Y-122904539D01*
X105538146Y-123181399D01*
X105507851Y-123469633D01*
X105534118Y-123758261D01*
X105615947Y-124036291D01*
X105750220Y-124293131D01*
X105931823Y-124519000D01*
X106153839Y-124705294D01*
X106407811Y-124844916D01*
X106684066Y-124932549D01*
X106972081Y-124964855D01*
X106992815Y-124965000D01*
X107007185Y-124965000D01*
X107295623Y-124936718D01*
X107573075Y-124852951D01*
X107828971Y-124716888D01*
X108053567Y-124533713D01*
X108238306Y-124310401D01*
X108376152Y-124055461D01*
X108461854Y-123778601D01*
X108492149Y-123490367D01*
X108465882Y-123201739D01*
X108384053Y-122923709D01*
X108249780Y-122666869D01*
X108068177Y-122441000D01*
X107846161Y-122254706D01*
X107765753Y-122210502D01*
X107828971Y-122176888D01*
X108053567Y-121993713D01*
X108238306Y-121770401D01*
X108376152Y-121515461D01*
X108461854Y-121238601D01*
X108492149Y-120950367D01*
X108465882Y-120661739D01*
X108384053Y-120383709D01*
X108249780Y-120126869D01*
X108068177Y-119901000D01*
X108022939Y-119863041D01*
X108035223Y-119860597D01*
X108150785Y-119812730D01*
X108254789Y-119743237D01*
X108343237Y-119654789D01*
X108412730Y-119550785D01*
X108460597Y-119435223D01*
X108485000Y-119312542D01*
X108485000Y-118685750D01*
X108326250Y-118527000D01*
X107127000Y-118527000D01*
X107127000Y-118547000D01*
X106873000Y-118547000D01*
X106873000Y-118527000D01*
X105673750Y-118527000D01*
X105515000Y-118685750D01*
X105515000Y-119312542D01*
X105539403Y-119435223D01*
X105587270Y-119550785D01*
X105656763Y-119654789D01*
X105745211Y-119743237D01*
X105849215Y-119812730D01*
X105964777Y-119860597D01*
X105975353Y-119862701D01*
X105946433Y-119886287D01*
X105761694Y-120109599D01*
X105623848Y-120364539D01*
X105538146Y-120641399D01*
X105507851Y-120929633D01*
X105024514Y-120929633D01*
X105035190Y-120165126D01*
X104866255Y-119311942D01*
X104534820Y-118507819D01*
X104053508Y-117783387D01*
X103759639Y-117487458D01*
X105515000Y-117487458D01*
X105515000Y-118114250D01*
X105673750Y-118273000D01*
X106873000Y-118273000D01*
X106873000Y-117073750D01*
X107127000Y-117073750D01*
X107127000Y-118273000D01*
X108326250Y-118273000D01*
X108485000Y-118114250D01*
X108485000Y-117487458D01*
X108460597Y-117364777D01*
X108412730Y-117249215D01*
X108343237Y-117145211D01*
X108254789Y-117056763D01*
X108150785Y-116987270D01*
X108035223Y-116939403D01*
X107912542Y-116915000D01*
X107285750Y-116915000D01*
X107127000Y-117073750D01*
X106873000Y-117073750D01*
X106714250Y-116915000D01*
X106087458Y-116915000D01*
X105964777Y-116939403D01*
X105849215Y-116987270D01*
X105745211Y-117056763D01*
X105656763Y-117145211D01*
X105587270Y-117249215D01*
X105539403Y-117364777D01*
X105515000Y-117487458D01*
X103759639Y-117487458D01*
X103440654Y-117166239D01*
X102719600Y-116679882D01*
X101917811Y-116342841D01*
X101065827Y-116167954D01*
X100196100Y-116161882D01*
X99341757Y-116324857D01*
X98535340Y-116650670D01*
X97807566Y-117126912D01*
X97186154Y-117735443D01*
X96727000Y-118406022D01*
X96727000Y-82777696D01*
X97107502Y-83368120D01*
X97711680Y-83993764D01*
X98425873Y-84490141D01*
X99222878Y-84838344D01*
X100072338Y-85025110D01*
X100941895Y-85043325D01*
X101798430Y-84892294D01*
X102609317Y-84577772D01*
X103343670Y-84111738D01*
X103973517Y-83511942D01*
X104474869Y-82801232D01*
X104828627Y-82006677D01*
X105021318Y-81158542D01*
X105034009Y-80249633D01*
X105507851Y-80249633D01*
X105534118Y-80538261D01*
X105615947Y-80816291D01*
X105750220Y-81073131D01*
X105931823Y-81299000D01*
X105981651Y-81340811D01*
X105877366Y-81373106D01*
X105727441Y-81471900D01*
X105610975Y-81608550D01*
X105537190Y-81772237D01*
X105511928Y-81950000D01*
X105511928Y-83650000D01*
X105519992Y-83751121D01*
X105573106Y-83922634D01*
X105671900Y-84072559D01*
X105808550Y-84189025D01*
X105972237Y-84262810D01*
X106150000Y-84288072D01*
X107850000Y-84288072D01*
X107951121Y-84280008D01*
X108122634Y-84226894D01*
X108272559Y-84128100D01*
X108389025Y-83991450D01*
X108462810Y-83827763D01*
X108488072Y-83650000D01*
X108488072Y-81950000D01*
X108480008Y-81848879D01*
X108426894Y-81677366D01*
X108328100Y-81527441D01*
X108191450Y-81410975D01*
X108027763Y-81337190D01*
X108025224Y-81336829D01*
X108053567Y-81313713D01*
X108238306Y-81090401D01*
X108376152Y-80835461D01*
X108461854Y-80558601D01*
X108492149Y-80270367D01*
X108465882Y-79981739D01*
X108384053Y-79703709D01*
X108249780Y-79446869D01*
X108068177Y-79221000D01*
X107846161Y-79034706D01*
X107760111Y-78987400D01*
X107881355Y-78915178D01*
X108097588Y-78720269D01*
X108271641Y-78486920D01*
X108396825Y-78224099D01*
X108441476Y-78076890D01*
X108320155Y-77847000D01*
X107127000Y-77847000D01*
X107127000Y-77867000D01*
X106873000Y-77867000D01*
X106873000Y-77847000D01*
X105679845Y-77847000D01*
X105558524Y-78076890D01*
X105603175Y-78224099D01*
X105728359Y-78486920D01*
X105902412Y-78720269D01*
X106118645Y-78915178D01*
X106239090Y-78986923D01*
X106171029Y-79023112D01*
X105946433Y-79206287D01*
X105761694Y-79429599D01*
X105623848Y-79684539D01*
X105538146Y-79961399D01*
X105507851Y-80249633D01*
X105034009Y-80249633D01*
X105035190Y-80165126D01*
X104866255Y-79311942D01*
X104534820Y-78507819D01*
X104053508Y-77783387D01*
X103636156Y-77363110D01*
X105558524Y-77363110D01*
X105679845Y-77593000D01*
X106873000Y-77593000D01*
X106873000Y-76399186D01*
X107127000Y-76399186D01*
X107127000Y-77593000D01*
X108320155Y-77593000D01*
X108441476Y-77363110D01*
X108396825Y-77215901D01*
X108271641Y-76953080D01*
X108224591Y-76890000D01*
X120111928Y-76890000D01*
X120111928Y-78590000D01*
X120119992Y-78691121D01*
X120173106Y-78862634D01*
X120271900Y-79012559D01*
X120408550Y-79129025D01*
X120572237Y-79202810D01*
X120750000Y-79228072D01*
X122450000Y-79228072D01*
X122551121Y-79220008D01*
X122722634Y-79166894D01*
X122872559Y-79068100D01*
X122989025Y-78931450D01*
X123062810Y-78767763D01*
X123064714Y-78754364D01*
X123139731Y-78837588D01*
X123373080Y-79011641D01*
X123635901Y-79136825D01*
X123783110Y-79181476D01*
X124013000Y-79060155D01*
X124013000Y-77867000D01*
X123993000Y-77867000D01*
X123993000Y-77613000D01*
X124013000Y-77613000D01*
X124013000Y-76419845D01*
X123783110Y-76298524D01*
X123635901Y-76343175D01*
X123373080Y-76468359D01*
X123139731Y-76642412D01*
X123061520Y-76729179D01*
X123026894Y-76617366D01*
X122928100Y-76467441D01*
X122791450Y-76350975D01*
X122627763Y-76277190D01*
X122450000Y-76251928D01*
X120750000Y-76251928D01*
X120648879Y-76259992D01*
X120477366Y-76313106D01*
X120327441Y-76411900D01*
X120210975Y-76548550D01*
X120137190Y-76712237D01*
X120111928Y-76890000D01*
X108224591Y-76890000D01*
X108097588Y-76719731D01*
X107881355Y-76524822D01*
X107631252Y-76375843D01*
X107356891Y-76278519D01*
X107127000Y-76399186D01*
X106873000Y-76399186D01*
X106643109Y-76278519D01*
X106368748Y-76375843D01*
X106118645Y-76524822D01*
X105902412Y-76719731D01*
X105728359Y-76953080D01*
X105603175Y-77215901D01*
X105558524Y-77363110D01*
X103636156Y-77363110D01*
X103440654Y-77166239D01*
X102719600Y-76679882D01*
X101917811Y-76342841D01*
X101353477Y-76227000D01*
X125273000Y-76227000D01*
X125273000Y-76789664D01*
X125273000Y-76789664D01*
G37*
X125273000Y-76789664D02*
X125140269Y-76642412D01*
X124906920Y-76468359D01*
X124644099Y-76343175D01*
X124496890Y-76298524D01*
X124267000Y-76419845D01*
X124267000Y-77613000D01*
X124287000Y-77613000D01*
X124287000Y-77867000D01*
X124267000Y-77867000D01*
X124267000Y-79060155D01*
X124496890Y-79181476D01*
X124644099Y-79136825D01*
X124906920Y-79011641D01*
X125140269Y-78837588D01*
X125273000Y-78690336D01*
X125273000Y-83930776D01*
X123123776Y-86080000D01*
X105870000Y-86080000D01*
X105790988Y-86087747D01*
X105711802Y-86094675D01*
X105707454Y-86095938D01*
X105702958Y-86096379D01*
X105626927Y-86119334D01*
X105550624Y-86141502D01*
X105546611Y-86143582D01*
X105542279Y-86144890D01*
X105472138Y-86182185D01*
X105401610Y-86218743D01*
X105398073Y-86221566D01*
X105394083Y-86223688D01*
X105332543Y-86273879D01*
X105270438Y-86323457D01*
X105264142Y-86329666D01*
X105264015Y-86329769D01*
X105263918Y-86329886D01*
X105261888Y-86331888D01*
X103313776Y-88280000D01*
X103112096Y-88280000D01*
X102968177Y-88101000D01*
X102918349Y-88059189D01*
X103022634Y-88026894D01*
X103172559Y-87928100D01*
X103289025Y-87791450D01*
X103362810Y-87627763D01*
X103388072Y-87450000D01*
X103388072Y-85750000D01*
X103380008Y-85648879D01*
X103326894Y-85477366D01*
X103228100Y-85327441D01*
X103091450Y-85210975D01*
X102927763Y-85137190D01*
X102750000Y-85111928D01*
X101050000Y-85111928D01*
X100948879Y-85119992D01*
X100777366Y-85173106D01*
X100627441Y-85271900D01*
X100510975Y-85408550D01*
X100437198Y-85572220D01*
X100428177Y-85561000D01*
X100206161Y-85374706D01*
X99952189Y-85235084D01*
X99675934Y-85147451D01*
X99387919Y-85115145D01*
X99367185Y-85115000D01*
X99352815Y-85115000D01*
X99064377Y-85143282D01*
X98786925Y-85227049D01*
X98531029Y-85363112D01*
X98306433Y-85546287D01*
X98121694Y-85769599D01*
X97983848Y-86024539D01*
X97898146Y-86301399D01*
X97867851Y-86589633D01*
X97894118Y-86878261D01*
X97975947Y-87156291D01*
X98110220Y-87413131D01*
X98291823Y-87639000D01*
X98513839Y-87825294D01*
X98594247Y-87869498D01*
X98531029Y-87903112D01*
X98306433Y-88086287D01*
X98121694Y-88309599D01*
X97983848Y-88564539D01*
X97898146Y-88841399D01*
X97867851Y-89129633D01*
X97894118Y-89418261D01*
X97975947Y-89696291D01*
X98110220Y-89953131D01*
X98291823Y-90179000D01*
X98513839Y-90365294D01*
X98594247Y-90409498D01*
X98531029Y-90443112D01*
X98306433Y-90626287D01*
X98121694Y-90849599D01*
X97983848Y-91104539D01*
X97898146Y-91381399D01*
X97867851Y-91669633D01*
X97894118Y-91958261D01*
X97975947Y-92236291D01*
X98110220Y-92493131D01*
X98291823Y-92719000D01*
X98513839Y-92905294D01*
X98599889Y-92952600D01*
X98478645Y-93024822D01*
X98262412Y-93219731D01*
X98088359Y-93453080D01*
X97963175Y-93715901D01*
X97918524Y-93863110D01*
X98039845Y-94093000D01*
X99233000Y-94093000D01*
X99233000Y-94073000D01*
X99487000Y-94073000D01*
X99487000Y-94093000D01*
X101773000Y-94093000D01*
X101773000Y-94073000D01*
X102027000Y-94073000D01*
X102027000Y-94093000D01*
X103220155Y-94093000D01*
X103341476Y-93863110D01*
X103296825Y-93715901D01*
X103171641Y-93453080D01*
X102997588Y-93219731D01*
X102781355Y-93024822D01*
X102660910Y-92953077D01*
X102728971Y-92916888D01*
X102953567Y-92733713D01*
X103138306Y-92510401D01*
X103276152Y-92255461D01*
X103361854Y-91978601D01*
X103392149Y-91690367D01*
X103365882Y-91401739D01*
X103284053Y-91123709D01*
X103149780Y-90866869D01*
X102968177Y-90641000D01*
X102746161Y-90454706D01*
X102665753Y-90410502D01*
X102728971Y-90376888D01*
X102953567Y-90193713D01*
X103113820Y-90000000D01*
X103670000Y-90000000D01*
X103749008Y-89992253D01*
X103828198Y-89985325D01*
X103832546Y-89984062D01*
X103837042Y-89983621D01*
X103913073Y-89960666D01*
X103989376Y-89938498D01*
X103993389Y-89936418D01*
X103997721Y-89935110D01*
X104067862Y-89897815D01*
X104138390Y-89861257D01*
X104141927Y-89858434D01*
X104145917Y-89856312D01*
X104207457Y-89806121D01*
X104269562Y-89756543D01*
X104275858Y-89750334D01*
X104275985Y-89750231D01*
X104276082Y-89750114D01*
X104278112Y-89748112D01*
X106226224Y-87800000D01*
X123480000Y-87800000D01*
X123559008Y-87792253D01*
X123638198Y-87785325D01*
X123642546Y-87784062D01*
X123647042Y-87783621D01*
X123723073Y-87760666D01*
X123799376Y-87738498D01*
X123803389Y-87736418D01*
X123807721Y-87735110D01*
X123877862Y-87697815D01*
X123948390Y-87661257D01*
X123951927Y-87658434D01*
X123955917Y-87656312D01*
X124017457Y-87606121D01*
X124079562Y-87556543D01*
X124085858Y-87550334D01*
X124085985Y-87550231D01*
X124086082Y-87550114D01*
X124088112Y-87548112D01*
X125273000Y-86363224D01*
X125273000Y-100982198D01*
X122758128Y-103497070D01*
X122644733Y-103518701D01*
X122474722Y-103587390D01*
X122424889Y-103620000D01*
X103177556Y-103620000D01*
X103149780Y-103566869D01*
X102968177Y-103341000D01*
X102746161Y-103154706D01*
X102665753Y-103110502D01*
X102728971Y-103076888D01*
X102953567Y-102893713D01*
X103138306Y-102670401D01*
X103276152Y-102415461D01*
X103361854Y-102138601D01*
X103392149Y-101850367D01*
X103365882Y-101561739D01*
X103284053Y-101283709D01*
X103149780Y-101026869D01*
X102968177Y-100801000D01*
X102746161Y-100614706D01*
X102665753Y-100570502D01*
X102728971Y-100536888D01*
X102953567Y-100353713D01*
X103138306Y-100130401D01*
X103276152Y-99875461D01*
X103361854Y-99598601D01*
X103392149Y-99310367D01*
X103365882Y-99021739D01*
X103284053Y-98743709D01*
X103149780Y-98486869D01*
X102968177Y-98261000D01*
X102746161Y-98074706D01*
X102665753Y-98030502D01*
X102728971Y-97996888D01*
X102953567Y-97813713D01*
X103138306Y-97590401D01*
X103276152Y-97335461D01*
X103361854Y-97058601D01*
X103392149Y-96770367D01*
X103365882Y-96481739D01*
X103284053Y-96203709D01*
X103149780Y-95946869D01*
X102968177Y-95721000D01*
X102746161Y-95534706D01*
X102660111Y-95487400D01*
X102781355Y-95415178D01*
X102997588Y-95220269D01*
X103171641Y-94986920D01*
X103296825Y-94724099D01*
X103341476Y-94576890D01*
X103220155Y-94347000D01*
X102027000Y-94347000D01*
X102027000Y-94367000D01*
X101773000Y-94367000D01*
X101773000Y-94347000D01*
X99487000Y-94347000D01*
X99487000Y-94367000D01*
X99233000Y-94367000D01*
X99233000Y-94347000D01*
X98039845Y-94347000D01*
X97918524Y-94576890D01*
X97963175Y-94724099D01*
X98088359Y-94986920D01*
X98262412Y-95220269D01*
X98478645Y-95415178D01*
X98599090Y-95486923D01*
X98531029Y-95523112D01*
X98306433Y-95706287D01*
X98121694Y-95929599D01*
X97983848Y-96184539D01*
X97898146Y-96461399D01*
X97867851Y-96749633D01*
X97894118Y-97038261D01*
X97975947Y-97316291D01*
X98110220Y-97573131D01*
X98291823Y-97799000D01*
X98513839Y-97985294D01*
X98594247Y-98029498D01*
X98531029Y-98063112D01*
X98306433Y-98246287D01*
X98121694Y-98469599D01*
X97983848Y-98724539D01*
X97898146Y-99001399D01*
X97867851Y-99289633D01*
X97894118Y-99578261D01*
X97975947Y-99856291D01*
X98110220Y-100113131D01*
X98291823Y-100339000D01*
X98513839Y-100525294D01*
X98594247Y-100569498D01*
X98531029Y-100603112D01*
X98306433Y-100786287D01*
X98121694Y-101009599D01*
X97983848Y-101264539D01*
X97898146Y-101541399D01*
X97867851Y-101829633D01*
X97894118Y-102118261D01*
X97975947Y-102396291D01*
X98110220Y-102653131D01*
X98291823Y-102879000D01*
X98513839Y-103065294D01*
X98594247Y-103109498D01*
X98531029Y-103143112D01*
X98306433Y-103326287D01*
X98121694Y-103549599D01*
X97983848Y-103804539D01*
X97898146Y-104081399D01*
X97867851Y-104369633D01*
X97894118Y-104658261D01*
X97975947Y-104936291D01*
X98110220Y-105193131D01*
X98291823Y-105419000D01*
X98513839Y-105605294D01*
X98594247Y-105649498D01*
X98531029Y-105683112D01*
X98306433Y-105866287D01*
X98121694Y-106089599D01*
X97983848Y-106344539D01*
X97898146Y-106621399D01*
X97867851Y-106909633D01*
X97894118Y-107198261D01*
X97975947Y-107476291D01*
X98110220Y-107733131D01*
X98291823Y-107959000D01*
X98513839Y-108145294D01*
X98594247Y-108189498D01*
X98531029Y-108223112D01*
X98306433Y-108406287D01*
X98121694Y-108629599D01*
X97983848Y-108884539D01*
X97898146Y-109161399D01*
X97867851Y-109449633D01*
X97894118Y-109738261D01*
X97975947Y-110016291D01*
X98110220Y-110273131D01*
X98291823Y-110499000D01*
X98513839Y-110685294D01*
X98594247Y-110729498D01*
X98531029Y-110763112D01*
X98306433Y-110946287D01*
X98121694Y-111169599D01*
X97983848Y-111424539D01*
X97898146Y-111701399D01*
X97867851Y-111989633D01*
X97894118Y-112278261D01*
X97975947Y-112556291D01*
X98110220Y-112813131D01*
X98291823Y-113039000D01*
X98513839Y-113225294D01*
X98594247Y-113269498D01*
X98531029Y-113303112D01*
X98306433Y-113486287D01*
X98121694Y-113709599D01*
X97983848Y-113964539D01*
X97898146Y-114241399D01*
X97867851Y-114529633D01*
X97894118Y-114818261D01*
X97975947Y-115096291D01*
X98110220Y-115353131D01*
X98291823Y-115579000D01*
X98513839Y-115765294D01*
X98767811Y-115904916D01*
X99044066Y-115992549D01*
X99332081Y-116024855D01*
X99352815Y-116025000D01*
X99367185Y-116025000D01*
X99655623Y-115996718D01*
X99933075Y-115912951D01*
X100188971Y-115776888D01*
X100413567Y-115593713D01*
X100598306Y-115370401D01*
X100629290Y-115313097D01*
X100650220Y-115353131D01*
X100831823Y-115579000D01*
X101053839Y-115765294D01*
X101307811Y-115904916D01*
X101584066Y-115992549D01*
X101872081Y-116024855D01*
X101892815Y-116025000D01*
X101907185Y-116025000D01*
X102195623Y-115996718D01*
X102473075Y-115912951D01*
X102728971Y-115776888D01*
X102953567Y-115593713D01*
X103138306Y-115370401D01*
X103176372Y-115300000D01*
X104560000Y-115300000D01*
X104629877Y-115293149D01*
X104699803Y-115287031D01*
X104703641Y-115285916D01*
X104707618Y-115285526D01*
X104774821Y-115265236D01*
X104842240Y-115245649D01*
X104845788Y-115243810D01*
X104849613Y-115242655D01*
X104911591Y-115209701D01*
X104973925Y-115177390D01*
X104977048Y-115174897D01*
X104980578Y-115173020D01*
X105034987Y-115128645D01*
X105089846Y-115084852D01*
X105095406Y-115079369D01*
X105095522Y-115079274D01*
X105095611Y-115079166D01*
X105097401Y-115077401D01*
X106814802Y-113360000D01*
X125273000Y-113360000D01*
X125273000Y-124973000D01*
X101340726Y-124973000D01*
X101798430Y-124892294D01*
X102609317Y-124577772D01*
X103343670Y-124111738D01*
X103973517Y-123511942D01*
X104474869Y-122801232D01*
X104828627Y-122006677D01*
X105021318Y-121158542D01*
X105024514Y-120929633D01*
X105507851Y-120929633D01*
X105534118Y-121218261D01*
X105615947Y-121496291D01*
X105750220Y-121753131D01*
X105931823Y-121979000D01*
X106153839Y-122165294D01*
X106234247Y-122209498D01*
X106171029Y-122243112D01*
X105946433Y-122426287D01*
X105761694Y-122649599D01*
X105623848Y-122904539D01*
X105538146Y-123181399D01*
X105507851Y-123469633D01*
X105534118Y-123758261D01*
X105615947Y-124036291D01*
X105750220Y-124293131D01*
X105931823Y-124519000D01*
X106153839Y-124705294D01*
X106407811Y-124844916D01*
X106684066Y-124932549D01*
X106972081Y-124964855D01*
X106992815Y-124965000D01*
X107007185Y-124965000D01*
X107295623Y-124936718D01*
X107573075Y-124852951D01*
X107828971Y-124716888D01*
X108053567Y-124533713D01*
X108238306Y-124310401D01*
X108376152Y-124055461D01*
X108461854Y-123778601D01*
X108492149Y-123490367D01*
X108465882Y-123201739D01*
X108384053Y-122923709D01*
X108249780Y-122666869D01*
X108068177Y-122441000D01*
X107846161Y-122254706D01*
X107765753Y-122210502D01*
X107828971Y-122176888D01*
X108053567Y-121993713D01*
X108238306Y-121770401D01*
X108376152Y-121515461D01*
X108461854Y-121238601D01*
X108492149Y-120950367D01*
X108465882Y-120661739D01*
X108384053Y-120383709D01*
X108249780Y-120126869D01*
X108068177Y-119901000D01*
X108022939Y-119863041D01*
X108035223Y-119860597D01*
X108150785Y-119812730D01*
X108254789Y-119743237D01*
X108343237Y-119654789D01*
X108412730Y-119550785D01*
X108460597Y-119435223D01*
X108485000Y-119312542D01*
X108485000Y-118685750D01*
X108326250Y-118527000D01*
X107127000Y-118527000D01*
X107127000Y-118547000D01*
X106873000Y-118547000D01*
X106873000Y-118527000D01*
X105673750Y-118527000D01*
X105515000Y-118685750D01*
X105515000Y-119312542D01*
X105539403Y-119435223D01*
X105587270Y-119550785D01*
X105656763Y-119654789D01*
X105745211Y-119743237D01*
X105849215Y-119812730D01*
X105964777Y-119860597D01*
X105975353Y-119862701D01*
X105946433Y-119886287D01*
X105761694Y-120109599D01*
X105623848Y-120364539D01*
X105538146Y-120641399D01*
X105507851Y-120929633D01*
X105024514Y-120929633D01*
X105035190Y-120165126D01*
X104866255Y-119311942D01*
X104534820Y-118507819D01*
X104053508Y-117783387D01*
X103759639Y-117487458D01*
X105515000Y-117487458D01*
X105515000Y-118114250D01*
X105673750Y-118273000D01*
X106873000Y-118273000D01*
X106873000Y-117073750D01*
X107127000Y-117073750D01*
X107127000Y-118273000D01*
X108326250Y-118273000D01*
X108485000Y-118114250D01*
X108485000Y-117487458D01*
X108460597Y-117364777D01*
X108412730Y-117249215D01*
X108343237Y-117145211D01*
X108254789Y-117056763D01*
X108150785Y-116987270D01*
X108035223Y-116939403D01*
X107912542Y-116915000D01*
X107285750Y-116915000D01*
X107127000Y-117073750D01*
X106873000Y-117073750D01*
X106714250Y-116915000D01*
X106087458Y-116915000D01*
X105964777Y-116939403D01*
X105849215Y-116987270D01*
X105745211Y-117056763D01*
X105656763Y-117145211D01*
X105587270Y-117249215D01*
X105539403Y-117364777D01*
X105515000Y-117487458D01*
X103759639Y-117487458D01*
X103440654Y-117166239D01*
X102719600Y-116679882D01*
X101917811Y-116342841D01*
X101065827Y-116167954D01*
X100196100Y-116161882D01*
X99341757Y-116324857D01*
X98535340Y-116650670D01*
X97807566Y-117126912D01*
X97186154Y-117735443D01*
X96727000Y-118406022D01*
X96727000Y-82777696D01*
X97107502Y-83368120D01*
X97711680Y-83993764D01*
X98425873Y-84490141D01*
X99222878Y-84838344D01*
X100072338Y-85025110D01*
X100941895Y-85043325D01*
X101798430Y-84892294D01*
X102609317Y-84577772D01*
X103343670Y-84111738D01*
X103973517Y-83511942D01*
X104474869Y-82801232D01*
X104828627Y-82006677D01*
X105021318Y-81158542D01*
X105034009Y-80249633D01*
X105507851Y-80249633D01*
X105534118Y-80538261D01*
X105615947Y-80816291D01*
X105750220Y-81073131D01*
X105931823Y-81299000D01*
X105981651Y-81340811D01*
X105877366Y-81373106D01*
X105727441Y-81471900D01*
X105610975Y-81608550D01*
X105537190Y-81772237D01*
X105511928Y-81950000D01*
X105511928Y-83650000D01*
X105519992Y-83751121D01*
X105573106Y-83922634D01*
X105671900Y-84072559D01*
X105808550Y-84189025D01*
X105972237Y-84262810D01*
X106150000Y-84288072D01*
X107850000Y-84288072D01*
X107951121Y-84280008D01*
X108122634Y-84226894D01*
X108272559Y-84128100D01*
X108389025Y-83991450D01*
X108462810Y-83827763D01*
X108488072Y-83650000D01*
X108488072Y-81950000D01*
X108480008Y-81848879D01*
X108426894Y-81677366D01*
X108328100Y-81527441D01*
X108191450Y-81410975D01*
X108027763Y-81337190D01*
X108025224Y-81336829D01*
X108053567Y-81313713D01*
X108238306Y-81090401D01*
X108376152Y-80835461D01*
X108461854Y-80558601D01*
X108492149Y-80270367D01*
X108465882Y-79981739D01*
X108384053Y-79703709D01*
X108249780Y-79446869D01*
X108068177Y-79221000D01*
X107846161Y-79034706D01*
X107760111Y-78987400D01*
X107881355Y-78915178D01*
X108097588Y-78720269D01*
X108271641Y-78486920D01*
X108396825Y-78224099D01*
X108441476Y-78076890D01*
X108320155Y-77847000D01*
X107127000Y-77847000D01*
X107127000Y-77867000D01*
X106873000Y-77867000D01*
X106873000Y-77847000D01*
X105679845Y-77847000D01*
X105558524Y-78076890D01*
X105603175Y-78224099D01*
X105728359Y-78486920D01*
X105902412Y-78720269D01*
X106118645Y-78915178D01*
X106239090Y-78986923D01*
X106171029Y-79023112D01*
X105946433Y-79206287D01*
X105761694Y-79429599D01*
X105623848Y-79684539D01*
X105538146Y-79961399D01*
X105507851Y-80249633D01*
X105034009Y-80249633D01*
X105035190Y-80165126D01*
X104866255Y-79311942D01*
X104534820Y-78507819D01*
X104053508Y-77783387D01*
X103636156Y-77363110D01*
X105558524Y-77363110D01*
X105679845Y-77593000D01*
X106873000Y-77593000D01*
X106873000Y-76399186D01*
X107127000Y-76399186D01*
X107127000Y-77593000D01*
X108320155Y-77593000D01*
X108441476Y-77363110D01*
X108396825Y-77215901D01*
X108271641Y-76953080D01*
X108224591Y-76890000D01*
X120111928Y-76890000D01*
X120111928Y-78590000D01*
X120119992Y-78691121D01*
X120173106Y-78862634D01*
X120271900Y-79012559D01*
X120408550Y-79129025D01*
X120572237Y-79202810D01*
X120750000Y-79228072D01*
X122450000Y-79228072D01*
X122551121Y-79220008D01*
X122722634Y-79166894D01*
X122872559Y-79068100D01*
X122989025Y-78931450D01*
X123062810Y-78767763D01*
X123064714Y-78754364D01*
X123139731Y-78837588D01*
X123373080Y-79011641D01*
X123635901Y-79136825D01*
X123783110Y-79181476D01*
X124013000Y-79060155D01*
X124013000Y-77867000D01*
X123993000Y-77867000D01*
X123993000Y-77613000D01*
X124013000Y-77613000D01*
X124013000Y-76419845D01*
X123783110Y-76298524D01*
X123635901Y-76343175D01*
X123373080Y-76468359D01*
X123139731Y-76642412D01*
X123061520Y-76729179D01*
X123026894Y-76617366D01*
X122928100Y-76467441D01*
X122791450Y-76350975D01*
X122627763Y-76277190D01*
X122450000Y-76251928D01*
X120750000Y-76251928D01*
X120648879Y-76259992D01*
X120477366Y-76313106D01*
X120327441Y-76411900D01*
X120210975Y-76548550D01*
X120137190Y-76712237D01*
X120111928Y-76890000D01*
X108224591Y-76890000D01*
X108097588Y-76719731D01*
X107881355Y-76524822D01*
X107631252Y-76375843D01*
X107356891Y-76278519D01*
X107127000Y-76399186D01*
X106873000Y-76399186D01*
X106643109Y-76278519D01*
X106368748Y-76375843D01*
X106118645Y-76524822D01*
X105902412Y-76719731D01*
X105728359Y-76953080D01*
X105603175Y-77215901D01*
X105558524Y-77363110D01*
X103636156Y-77363110D01*
X103440654Y-77166239D01*
X102719600Y-76679882D01*
X101917811Y-76342841D01*
X101353477Y-76227000D01*
X125273000Y-76227000D01*
X125273000Y-76789664D01*
M02*
